<svg width="200" height="172" viewBox="0 0 200 172" fill="none" xmlns="http://www.w3.org/2000/svg">
<g clip-path="url(#clip0_181_722)">
<path opacity="0.2" d="M254.05 142.762C251.406 142.293 248.49 140.897 242.526 142.113C236.542 143.332 245.659 141.505 245.766 137.646C245.874 133.784 244.856 122.324 241.456 110.639C238.038 98.9004 230.828 99.2534 229.539 96.7266C228.249 94.1966 233.542 87.5528 235.673 80.8521C237.805 74.1504 219.002 77.1777 213.325 72.9365C207.624 68.6762 223.434 63.8607 224.062 57.0746C224.691 50.2823 208.489 45.159 209.587 44.0789M209.587 44.0789C210.686 42.9989 219.422 42.0147 227.493 47.5173C235.514 52.9861 234.027 57.8365 236.656 66.5761C239.277 75.2842 238.51 75.8943 243.215 84.616C247.898 93.2956 251.592 94.1397 252.813 98.206C254.031 102.266 257.322 106.192 255.423 110.506C253.523 114.82 253.874 118.075 254.421 119.627C254.967 121.178 248.499 114.298 248.603 110.575C248.708 106.849 253.02 101.319 250.662 95.5253C248.297 89.7172 242.856 92.2682 239.18 84.3768C235.491 76.4538 238.818 75.5887 235.073 69.5266C231.314 63.4423 229.854 61.5087 230.541 58.3686C231.228 55.2285 232.567 61.7406 233.275 69.1662C233.982 76.5761 234.643 80.046 235.448 83.6729C236.252 87.2946 239.551 92.8331 243.306 97.5833C247.049 102.316 244.69 101.501 245.17 110.998C245.651 120.472 247.404 132.095 247.763 135.187C248.119 138.276 249.277 139.206 249.538 140.44C249.799 141.674 248.024 141.668 247.271 142.129C246.517 142.589 246.495 143.361 245.999 145.21C245.504 147.058 236.868 147.819 236.028 145.808C235.188 143.796 240.331 140.873 241.864 139.178C243.395 137.484 240.282 131.743 238.957 125.687C237.629 119.619 235.599 117.265 229.173 110.799C222.712 104.299 219.774 94.8362 218.077 96.0638C216.379 97.2935 229.64 115.954 228.674 118.439C227.708 120.923 223.622 133.664 222.177 137.235C220.733 140.807 223.171 139.571 223.91 140.04C224.649 140.509 222.545 140.502 221.335 140.808C220.122 141.115 221.679 145.004 221.517 145.47C221.355 145.936 215.77 146.392 213.506 146.389C211.238 146.386 212.467 145.609 210.693 143.892C208.917 142.172 209.561 140.614 212.448 140.156C215.332 139.699 222.811 112.284 218.282 106.116C213.734 99.9236 215.049 95.8562 215.064 95.2261C215.079 94.597 195.652 104.601 167.927 99.284M209.587 44.0789C203.692 44.0473 191.65 39.353 180.121 40.5395C173.879 41.1818 168.684 44.2033 164.444 44.0789C160.194 43.9546 150.124 44.728 145.073 42.453C140.004 40.1717 122.663 39.433 119.548 42.4425C116.43 45.4551 128.52 46.4867 131.494 51.4698C134.459 56.4371 134.555 60.5024 134.74 68.9449C134.923 77.3706 132.12 72.7721 123.351 69.1536C114.529 65.5119 116.859 72.2526 115.197 75.634C113.534 79.0155 106.73 66.7858 107.422 63.5329C108.116 60.279 110.877 60.1895 111.734 56.7775C112.592 53.3644 111.624 53.0083 110.837 51.1843C110.049 49.3571 110.663 51.9977 111.306 52.5088C111.948 53.0199 116.319 53.3096 119.575 51.7701C122.826 50.2327 123.784 50.9156 123.784 50.9156C123.784 50.9156 122.517 49.4077 119.176 45.8713C115.827 42.3245 112.536 45.6638 111.569 45.1411C110.602 44.6185 115.167 43.1232 114.89 39.6691C114.613 36.2128 109.432 34.7207 106.504 34.2898C103.571 33.8588 112.132 39.5774 109.668 41.4678C107.201 43.3603 89.5347 41.9704 86.4327 39.3898C83.3233 36.8029 88.1636 32 88.1636 32C88.1636 32 83.3726 32.1633 82.8176 37.7797C82.2627 43.3919 88.1824 45.0663 88.8412 45.0863C89.499 45.1074 88.0293 44.0695 85.8892 43.8376C83.7471 43.6048 76.112 45.8503 75.2801 46.1548C74.4482 46.4604 75.4186 48.9756 78.8711 51.5604C82.3141 54.1389 86.312 50.4572 87.3212 48.5078C88.3304 46.5573 85.8305 49.2875 86.7851 52.2865C87.7398 55.2822 89.0595 54.9903 89.1822 58.6162C89.3049 62.24 88.9588 63.8765 90.888 67.3759C92.8141 70.869 93.3438 67.6004 97.7583 67.71C102.161 67.8185 103.804 66.7131 104.431 68.5287C105.059 70.3422 101.973 69.7774 99.8469 70.3812C97.7184 70.986 97.8915 70.1704 94.801 68.9491C91.7041 67.7258 90.8586 70.0029 90.504 72.2926C90.1505 74.5813 91.2383 79.6856 99.8962 79.5413C108.511 79.398 107.193 68.5972 106.405 66.7785C105.616 64.9597 106.291 75.4349 108.66 80.379C111.022 85.3105 112.454 86.9638 114.165 91.7045C115.872 96.4358 115.87 96.598 120.152 100.872C124.419 105.132 131.621 104.426 133.23 103.483C134.838 102.54 131.391 88.616 131.597 85.7119C131.802 82.8057 135.676 99.8183 134.765 107.043C133.853 114.261 128.445 134.256 126.639 137.771C124.832 141.285 121.139 142.875 118.39 144.951C115.639 147.029 123.627 147.199 128.413 146.567C133.186 145.937 129.81 142.265 129.81 142.265C129.81 142.265 131.458 141.61 132.014 140.954C132.57 140.296 131.836 138.428 132.832 137.553C133.828 136.679 142.028 114.975 144.937 110.166C147.844 105.361 151.499 101.119 153.844 97.1923C156.188 93.2672 157.189 80.0534 153.957 84.9553C150.723 89.8605 147.162 107.113 146.704 108.538C146.245 109.963 147.515 118.001 148.657 120.865C149.797 123.726 155.738 135.357 155.367 137.975C154.997 140.59 148.469 143.844 151.898 145.16C155.319 146.473 160.391 145.177 160.528 143.546C160.667 141.915 159.505 140.932 160.477 140.608C161.449 140.285 162.309 140.179 162.426 139.636C162.544 139.092 160.027 136.032 159.552 132.759C159.075 129.483 155.924 119.399 156.833 111.081C157.742 102.751 160.29 99.1639 160.29 99.1639C160.29 99.1639 153.051 99.1607 157.048 99.4431C161.035 99.7245 168.458 99.5116 167.927 99.284M167.927 99.284C167.396 99.0564 155.546 98.8699 153.129 100.812C150.711 102.757 143.778 108.058 143.332 108.714C142.886 109.369 135.874 104.752 136.04 107.958C136.206 111.163 140.851 113.862 139.179 116.156C137.506 118.451 132.892 120.17 132.951 123.366C133.01 126.56 134.092 127.118 132.955 129.97C131.818 132.822 130.014 136.332 129.532 139.187C129.05 142.041 118.675 139.257 117.776 140.577C116.877 141.897 119.061 143.004 114.433 143.324" stroke="#AAA9BC" stroke-width="2" stroke-linecap="round" stroke-linejoin="round"/>
</g>
<defs>
<clipPath id="clip0_181_722">
<rect width="200" height="172" fill="white"/>
</clipPath>
</defs>
</svg>
