<svg width="200" height="172" viewBox="0 0 200 172" fill="none" xmlns="http://www.w3.org/2000/svg">
<g clip-path="url(#clip0_181_750)">
<g opacity="0.2">
<path d="M214.625 41.5557L119.955 133.979M214.625 41.5557C211.103 37.5345 205.842 34.9816 199.964 34.9816H167.961M214.625 41.5557C217.458 44.7899 219.167 48.974 219.167 53.5437V121.605C219.167 131.856 210.569 140.167 199.964 140.167H129.556C118.951 140.167 110.354 131.856 110.354 121.605V93.7616M167.961 93.7616L209.565 133.979M122.596 42.8705V42.4751M100.833 42.4132C100.833 56.133 122.596 74.4261 122.596 74.4261C122.596 74.4261 144.358 56.133 144.358 42.4132C144.358 31.0473 134.615 21.8335 122.596 21.8335C110.577 21.8335 100.833 31.0473 100.833 42.4132Z" stroke="#AAA9BC" stroke-width="2" stroke-linecap="round" stroke-linejoin="round"/>
</g>
</g>
<defs>
<clipPath id="clip0_181_750">
<rect width="200" height="172" fill="white"/>
</clipPath>
</defs>
</svg>
