<svg width="200" height="172" viewBox="0 0 200 172" fill="none" xmlns="http://www.w3.org/2000/svg">
<g clip-path="url(#clip0_181_745)">
<path opacity="0.2" d="M200.473 129C196.2 128.965 196.671 127.257 196.222 123.894C197.411 125.53 198.708 127.251 200.609 127.976C202.51 128.703 205.15 127.892 205.562 125.918C205.76 124.974 205.416 124.007 205.079 123.097C203.877 119.868 202.678 116.637 201.665 114.445C216.202 108.321 224.97 91.9967 223.914 76.4122C222.859 60.8299 213.009 46.5555 199.757 38.048C186.506 29.5383 170.236 26.3938 154.454 27.0947C143.013 27.6013 131.358 30.1719 121.957 36.6374C112.555 43.103 105.76 53.946 106.079 66.79C102.857 67.2359 99.1064 64.8805 96.5785 66.9125C94.9293 68.238 94.9192 70.6762 95.0499 72.7732C95.2106 75.3294 95.3714 77.8845 95.5356 80.4408C95.5925 81.3591 95.6718 82.3403 96.2513 83.0632C96.7202 83.6515 97.446 83.9738 98.1494 84.2464C102.359 85.87 106.939 86.5289 111.441 86.1613C112.491 84.3104 113.561 82.4142 113.938 80.3227C114.32 78.2344 113.883 75.8736 112.302 74.4365C111.265 73.4928 109.872 73.0503 108.527 72.6308C105.571 71.7125 102.616 70.7942 99.6602 69.8782C99.2024 69.7369 98.6899 69.5967 98.2556 69.8042C97.8078 70.0205 97.6068 70.5349 97.4605 71.0073C96.5639 73.9509 96.3752 77.102 96.9157 80.1295C98.241 80.1317 99.5686 80.135 100.894 80.1372C101.536 80.1372 102.312 80.0611 102.587 79.4871C102.841 78.9618 102.49 78.3448 102.076 77.9309C101.187 77.0336 99.9259 76.5104 98.6553 76.5049C101.463 75.2809 105.096 76.3537 106.763 78.9C104.872 79.3282 104.008 82.0202 105.297 83.4495C106.59 84.8832 109.39 84.3413 110.041 82.5345C110.69 80.7266 108.862 78.5578 107.669 79.9044C104.536 82.1129 101.95 85.072 100.196 88.456C104.536 96.6743 113.559 101.28 122.276 104.704C144.244 113.334 167.908 117.728 191.547 117.561C193.321 117.549 195.696 116.936 195.645 115.18C195.645 115.18 195.471 117.358 194.949 116.872C208.882 107.832 217.297 91.0784 216.17 74.6418C215.043 58.2041 204.416 42.73 189.374 35.6309C189.555 37.7566 189.04 39.9332 187.926 41.7598C181.548 40.3956 175.08 39.4751 168.574 39.0082C168.638 36.4829 168.705 33.9587 166.917 32.0283C150.175 27.2558 131.651 33.057 118.066 43.8447C113.202 39.3427 106.971 36.3041 100.398 35.2192C102.906 40.7709 105.938 46.0919 109.439 51.0929C114.48 48.9583 120.709 49.881 124.896 53.3853C128.349 48.2596 132.945 43.8933 138.266 40.6903L135.543 57.7008C135.476 58.1236 135.306 58.65 134.875 58.6964C134.44 58.7405 134.519 57.8178 134.433 58.2759C142.5 66.8882 144.502 80.5291 139.241 91.0508C137.944 93.6523 136.198 96.3432 136.673 99.204C137.377 103.411 142.27 105.331 146.427 106.482C160.05 110.251 174.005 114.056 187.642 114.159C186.862 118.106 185.661 121.972 184.063 125.673C181.705 124.582 179.869 122.438 179.168 119.958C163.644 121.385 147.752 118.687 133.712 113.169C131.267 115.399 128.825 117.627 126.382 119.853C124.315 116.728 123.553 112.787 124.305 109.13C118.891 107.91 113.794 105.338 109.612 101.724C108.728 100.96 107.64 100.085 106.515 100.421C105.616 100.687 105.126 101.623 104.782 102.488C103.084 106.785 102.638 111.561 103.52 116.094C105.524 114.186 107.526 112.279 109.531 110.374C110.827 109.141 112.031 106.798 110.472 105.916C108.956 105.059 107.514 107.143 107.018 108.799C105.762 113.035 102.32 114.301 101.059 118.537" stroke="#AAA9BC" stroke-width="2" stroke-linecap="round" stroke-linejoin="round"/>
</g>
<defs>
<clipPath id="clip0_181_745">
<rect width="200" height="172" fill="white"/>
</clipPath>
</defs>
</svg>
