<svg width="1332" height="95" viewBox="0 0 1332 95" fill="none" xmlns="http://www.w3.org/2000/svg">
<path d="M1 93.4687C1 93.4687 74.3554 82.5626 69.8535 91.7199C70.2928 94.4384 104.013 88.3997 107.228 87.1112C107.228 87.1112 130.106 84.327 127.783 86.8103C125.459 89.2925 121.446 89.7059 127.15 90.3268C132.852 90.9476 145.314 90.3268 145.314 90.3268C145.314 90.3268 149.745 85.9677 148.576 83.9637C147.406 81.9597 142.731 83.8199 141.124 81.817C139.518 79.8141 139.81 77.381 137.764 77.2384C135.719 77.0957 133.965 80.387 133.965 79.9579C133.965 79.5288 133.089 77.8112 134.258 75.0928C135.426 72.3743 139.81 71.8014 142.001 73.0888C144.192 74.3761 145.945 75.951 147.845 75.3781C149.745 74.8052 155.881 71.2286 157.195 66.7926C158.511 62.3566 156.757 54.6292 158.802 57.7768C160.848 60.9254 160.116 63.5012 161.139 62.3554C162.162 61.2108 163.623 58.2059 163.623 60.4952C163.623 62.7845 163.039 65.3614 163.039 65.3614C163.039 65.3614 166.546 62.0701 165.814 64.3594C165.084 66.6488 163.915 66.077 164.353 68.9381C164.792 71.8003 168.882 71.943 165.23 78.2392C161.577 84.5355 157.926 84.249 157.926 84.8219C157.926 85.3948 158.656 89.9735 157.926 89.1152C157.195 88.257 156.318 83.821 155.441 84.3928C154.565 84.9657 150.328 84.9657 150.328 84.9657C150.328 84.9657 148.429 89.1152 149.598 89.4006C150.768 89.687 162.893 88.1132 161.579 89.1141C160.264 90.1161 154.127 90.4015 159.534 90.5452C164.939 90.6879 184.37 89.8297 185.101 89.5432C185.83 89.2568 184.078 84.8208 184.078 84.3917C184.078 83.9626 178.672 86.8248 174.434 82.8179C170.198 78.811 171.659 74.9479 170.051 74.375C168.444 73.8032 164.645 77.809 164.792 75.8061C164.938 73.8032 165.961 69.511 168.883 68.9381C171.806 68.3652 173.267 72.5148 177.065 73.0877C180.864 73.6606 187.876 70.0828 188.899 67.6497C189.922 65.2166 191.822 58.0621 192.551 59.7797C193.282 61.4961 192.26 64.3583 193.574 63.2125C194.889 62.0679 197.226 58.3474 197.226 60.9232C197.226 63.499 195.18 66.933 195.912 66.5039C196.642 66.0748 199.272 63.3563 198.541 65.7883C197.811 68.2214 195.035 70.2232 195.035 70.6534C195.035 71.0837 196.058 73.2303 195.473 76.6643C194.889 80.0983 191.822 82.245 191.966 83.3897C192.113 84.5355 194.158 89.5432 193.427 88.685C192.697 87.8257 190.214 82.6752 190.214 82.6752C190.214 82.6752 192.698 77.2372 192.26 74.375C191.822 71.5139 193.428 71.943 187 73.5157C180.572 75.0906 174.434 77.6652 178.38 80.815C182.325 83.9626 184.516 82.8179 185.977 83.8188C187.438 84.8208 186.562 88.8266 186.562 88.8266C186.562 88.8266 187.731 87.3954 190.214 87.9683C192.698 88.5401 203.656 89.113 203.801 87.9683C203.948 86.8237 198.688 84.1041 200.733 82.5315C202.779 80.9577 209.792 80.815 209.061 80.3848C208.33 79.9557 204.971 77.9528 206.139 77.6663C207.309 77.3799 211.691 79.2412 211.983 78.2392C212.276 77.2372 211.983 77.5237 211.983 76.5228C211.983 75.5219 211.107 73.8043 211.107 73.3741C211.107 72.9439 205.118 67.2217 203.657 63.7866C202.196 60.3526 203.802 58.0621 203.364 54.9146C202.926 51.767 199.127 51.3379 199.127 51.3379C199.127 51.3379 200.297 50.3359 202.78 49.9068C205.264 49.4776 208.333 50.1932 208.771 51.9108C209.209 53.6283 208.186 56.3468 210.232 57.4914C212.278 58.635 220.605 60.3525 223.527 58.2059C226.449 56.0592 232.147 48.761 232.001 50.0494C231.854 51.3368 229.954 53.4834 231.562 53.0543C233.169 52.6252 235.654 50.9088 235.214 52.1961C234.776 53.4834 234.046 55.0583 234.046 55.0583C234.046 55.0583 236.236 53.3419 235.798 55.2021C235.36 57.0623 232.876 58.4934 232.584 59.637C232.292 60.7828 232.876 62.9283 229.516 67.6508C226.156 72.3732 220.312 73.2314 220.167 72.0868C220.02 70.9421 221.628 78.8121 221.335 77.9539C221.043 77.0957 220.313 73.5168 219.145 72.6585C217.975 71.8003 214.761 71.2274 214.616 71.6566C214.469 72.0857 214.031 78.2392 214.031 78.2392C214.031 78.2392 221.043 78.2392 218.998 79.2412C216.953 80.2432 210.379 79.5266 213.154 80.3848C215.93 81.2441 222.651 81.2441 220.897 82.6752C219.145 84.1052 212.569 84.9646 217.975 85.1072C220.209 85.1663 222.717 84.395 224.686 83.5089C227.48 82.2517 229.186 80.7648 227.471 81.1003C224.55 81.6732 222.358 84.6781 227.618 85.251C232.878 85.8228 266.833 85.6801 266.833 85.6801" stroke="#AAA9BC" stroke-width="1.2" stroke-linecap="round" stroke-linejoin="round"/>
<path d="M1123.64 85.1141C1123.64 85.1141 1111.63 85.3298 1109.62 84.9743C1107.6 84.6188 1105.38 83.5603 1100.84 84.4822C1096.28 85.4065 1103.22 84.0213 1103.31 81.0957C1103.39 78.1678 1102.61 69.4791 1100.02 60.6202C1097.42 51.7206 1091.92 51.9882 1090.94 50.0725C1089.96 48.1544 1093.99 43.1174 1095.62 38.0372C1097.24 32.9563 1082.91 35.2515 1078.59 32.036C1074.25 28.8061 1086.29 25.1552 1086.77 20.0103C1087.25 14.8607 1074.9 10.9765 1075.74 10.1577M1075.74 10.1577C1076.58 9.3388 1083.23 8.59263 1089.38 12.7644C1095.5 16.9107 1094.36 20.5879 1096.37 27.2139C1098.36 33.8159 1097.78 34.2785 1101.36 40.8909C1104.93 47.4713 1107.74 48.1112 1108.68 51.1941C1109.6 54.2723 1112.11 57.2489 1110.66 60.5196C1109.22 63.7902 1109.48 66.258 1109.9 67.4347C1110.32 68.6107 1105.39 63.394 1105.47 60.5715C1105.55 57.7466 1108.83 53.5541 1107.04 49.1618C1105.23 44.7583 1101.09 46.6924 1098.29 40.7095C1095.48 34.7027 1098.01 34.0468 1095.16 29.4508C1092.3 24.838 1091.18 23.3721 1091.71 20.9914C1092.23 18.6107 1093.25 23.5478 1093.79 29.1776C1094.33 34.7954 1094.83 37.4261 1095.44 40.1759C1096.06 42.9217 1098.57 47.1206 1101.43 50.722C1104.28 54.3098 1102.49 53.6923 1102.85 60.8926C1103.22 68.0755 1104.55 76.8872 1104.83 79.2311C1105.1 81.5735 1105.98 82.2781 1106.18 83.2136C1106.38 84.1491 1105.03 84.1451 1104.45 84.4942C1103.88 84.8433 1103.86 85.4281 1103.48 86.8301C1103.11 88.2314 1096.53 88.8082 1095.89 87.2839C1095.25 85.758 1099.17 83.5419 1100.33 82.2573C1101.5 80.9727 1099.13 76.6204 1098.12 72.0291C1097.11 67.4283 1095.56 65.6436 1090.66 60.7417C1085.74 55.8133 1083.5 48.6393 1082.21 49.57C1080.92 50.5023 1091.02 64.6498 1090.28 66.5336C1089.55 68.4174 1086.43 78.0767 1085.33 80.7842C1084.23 83.4924 1086.09 82.5553 1086.65 82.9108C1087.22 83.2663 1085.61 83.2607 1084.69 83.4932C1083.77 83.7257 1084.95 86.6744 1084.83 87.0275C1084.71 87.3806 1080.45 87.7265 1078.73 87.7241C1077 87.7217 1077.94 87.1329 1076.58 85.8307C1075.23 84.527 1075.72 83.3454 1077.92 82.9987C1080.12 82.652 1085.82 61.8673 1082.37 57.1914C1078.9 52.4963 1079.9 49.4126 1079.91 48.9349C1079.93 48.4579 1065.12 56.0428 1044 52.0114M1075.74 10.1577C1071.25 10.1337 1062.07 6.57471 1053.29 7.47419C1048.54 7.96117 1044.58 10.2519 1041.35 10.1577C1038.11 10.0634 1030.44 10.6498 1026.59 8.92497C1022.73 7.19538 1009.51 6.63536 1007.14 8.91698C1004.77 11.201 1013.98 11.9831 1016.24 15.7611C1018.5 19.527 1018.57 22.6091 1018.71 29.0098C1018.85 35.3977 1016.72 31.9114 1010.04 29.168C1003.32 26.407 1005.09 31.5175 1003.83 34.0812C1002.56 36.6448 997.374 27.3729 997.902 24.9067C998.43 22.4398 1000.53 22.3719 1001.19 19.7851C1001.84 17.1975 1001.1 16.9274 1000.5 15.5446C999.903 14.1593 1000.37 16.1613 1000.86 16.5488C1001.35 16.9362 1004.68 17.1559 1007.16 15.9887C1009.64 14.8232 1010.37 15.3408 1010.37 15.3408C1010.37 15.3408 1009.4 14.1976 1006.86 11.5166C1004.31 8.82751 1001.8 11.3592 1001.06 10.9629C1000.32 10.5667 1003.8 9.43306 1003.59 6.81431C1003.38 4.19396 999.433 3.06273 997.202 2.73599C994.967 2.40924 1001.49 6.7448 999.613 8.17801C997.733 9.61281 984.273 8.55908 981.91 6.6026C979.541 4.64133 983.228 1 983.228 1C983.228 1 979.578 1.12383 979.155 5.3819C978.733 9.63678 983.243 10.9062 983.745 10.9214C984.246 10.9374 983.126 10.1505 981.496 9.97471C979.863 9.79815 974.046 11.5006 973.413 11.7315C972.779 11.9631 973.518 13.8701 976.148 15.8298C978.772 17.7846 981.818 14.9933 982.587 13.5154C983.356 12.0366 981.451 14.1066 982.178 16.3802C982.906 18.6514 983.911 18.4301 984.005 21.1791C984.098 23.9265 983.834 25.1672 985.304 27.8203C986.772 30.4686 987.175 27.9904 990.539 28.0735C993.893 28.1558 995.145 27.3178 995.623 28.6943C996.101 30.0691 993.75 29.6409 992.13 30.0987C990.508 30.5573 990.64 29.9389 988.285 29.013C985.926 28.0855 985.282 29.8119 985.012 31.5479C984.742 33.2831 985.571 37.1529 992.168 37.0434C998.731 36.9348 997.727 28.7462 997.126 27.3673C996.525 25.9884 997.04 33.9302 998.845 37.6786C1000.64 41.4173 1001.74 42.6708 1003.04 46.265C1004.34 49.852 1004.34 49.975 1007.6 53.2153C1010.85 56.4452 1016.34 55.91 1017.56 55.195C1018.79 54.48 1016.16 43.9235 1016.32 41.7217C1016.48 39.5184 1019.43 52.4164 1018.73 57.8936C1018.04 63.366 1013.92 78.5257 1012.54 81.19C1011.17 83.8543 1008.35 85.0598 1006.26 86.6336C1004.16 88.209 1010.25 88.3385 1013.89 87.8591C1017.53 87.3814 1014.96 84.5973 1014.96 84.5973C1014.96 84.5973 1016.21 84.1012 1016.64 83.6034C1017.06 83.1049 1016.5 81.6885 1017.26 81.0254C1018.02 80.3624 1024.27 63.9077 1026.48 60.2615C1028.7 56.6186 1031.48 53.4023 1033.27 50.4256C1035.06 47.4498 1035.82 37.4317 1033.36 41.1481C1030.89 44.8669 1028.18 57.9471 1027.83 59.0272C1027.48 60.1073 1028.45 66.2021 1029.32 68.3734C1030.19 70.5424 1034.71 79.3605 1034.43 81.345C1034.15 83.3278 1029.17 85.7948 1031.79 86.7926C1034.39 87.788 1038.26 86.8054 1038.36 85.5687C1038.47 84.332 1037.58 83.5867 1038.32 83.3414C1039.07 83.0961 1039.72 83.0163 1039.81 82.604C1039.9 82.1918 1037.98 79.8718 1037.62 77.3905C1037.26 74.9067 1034.86 67.2614 1035.55 60.955C1036.24 54.6397 1038.18 51.9203 1038.18 51.9203C1038.18 51.9203 1032.67 51.9179 1035.71 52.132C1038.75 52.3453 1044.41 52.184 1044 52.0114M1044 52.0114C1043.6 51.8388 1034.57 51.6974 1032.73 53.1698C1030.88 54.6445 1025.6 58.6637 1025.26 59.1607C1024.92 59.6576 1019.58 56.1568 1019.71 58.5879C1019.83 61.0173 1023.37 63.064 1022.1 64.8032C1020.82 66.5432 1017.31 67.8462 1017.35 70.2692C1017.4 72.6906 1018.22 73.114 1017.36 75.2758C1016.49 77.4384 1015.11 80.0995 1014.75 82.2637C1014.38 84.4279 1006.48 82.3172 1005.79 83.3174C1005.11 84.3185 1006.77 85.1581 1003.24 85.4001C1000.38 85.5967 834.118 86.8762 801.918 86.8794" stroke="#AAA9BC" stroke-width="1.2" stroke-linecap="round" stroke-linejoin="round"/>
<path d="M1331.05 84.9372C1331.05 84.9372 1214.95 85.0735 1213.68 84.8488C1212.41 84.6241 1211.01 83.955 1208.15 84.5377C1205.28 85.122 1209.66 84.2464 1209.71 82.3972C1209.76 80.5465 1209.27 75.0545 1207.64 69.455C1206 63.8297 1202.53 63.9988 1201.92 62.7879C1201.3 61.5755 1203.84 58.3917 1204.86 55.1806C1205.88 51.9691 1196.86 53.4198 1194.13 51.3874C1191.39 49.3458 1198.99 47.0381 1199.29 43.7861C1199.59 40.5311 1191.81 38.076 1192.34 37.5584M1192.34 37.5584C1192.86 37.0408 1197.06 36.5692 1200.93 39.2061C1204.78 41.8269 1204.07 44.1512 1205.33 48.3394C1206.59 52.5124 1206.22 52.8048 1208.48 56.9844C1210.73 61.1438 1212.5 61.5482 1213.09 63.4969C1213.67 65.4425 1215.25 67.324 1214.34 69.3913C1213.43 71.4587 1213.6 73.0185 1213.86 73.7623C1214.12 74.5056 1211.02 71.2082 1211.07 69.4242C1211.12 67.6386 1213.19 64.9886 1212.06 62.2123C1210.92 59.4289 1208.31 60.6514 1206.54 56.8697C1204.77 53.0729 1206.37 52.6584 1204.57 49.7533C1202.77 46.8376 1202.07 45.911 1202.4 44.4062C1202.73 42.9014 1203.37 46.0221 1203.71 49.5806C1204.05 53.1315 1204.37 54.7943 1204.75 56.5324C1205.14 58.268 1206.72 60.9221 1208.53 63.1985C1210.32 65.4663 1209.19 65.0759 1209.42 69.6272C1209.65 74.1673 1210.49 79.737 1210.67 81.2186C1210.84 82.6992 1211.39 83.1445 1211.52 83.7358C1211.64 84.3272 1210.79 84.3246 1210.43 84.5453C1210.07 84.766 1210.06 85.1356 1209.82 86.0218C1209.58 86.9075 1205.43 87.2721 1205.03 86.3086C1204.63 85.3442 1207.1 83.9434 1207.83 83.1314C1208.57 82.3194 1207.07 79.5684 1206.44 76.6663C1205.8 73.7583 1204.83 72.6302 1201.74 69.5317C1198.64 66.4166 1197.23 61.882 1196.41 62.4703C1195.6 63.0596 1201.96 72.002 1201.5 73.1927C1201.04 74.3834 1199.08 80.4889 1198.38 82.2003C1197.69 83.9121 1198.86 83.3198 1199.21 83.5445C1199.57 83.7692 1198.56 83.7656 1197.98 83.9126C1197.4 84.0595 1198.14 85.9234 1198.06 86.1465C1197.99 86.3697 1195.31 86.5884 1194.22 86.5869C1193.13 86.5854 1193.72 86.2132 1192.87 85.3901C1192.02 84.566 1192.32 83.8192 1193.71 83.6C1195.1 83.3809 1198.69 70.2432 1196.51 67.2877C1194.33 64.32 1194.96 62.3708 1194.97 62.0689C1194.97 61.7674 1185.65 66.5616 1172.34 64.0135M1192.34 37.5584C1189.51 37.5433 1183.73 35.2937 1178.19 35.8622C1175.19 36.1701 1172.7 37.618 1170.66 37.5584C1168.62 37.4988 1163.79 37.8695 1161.36 36.7793C1158.93 35.686 1150.6 35.332 1149.11 36.7742C1147.61 38.2179 1153.42 38.7123 1154.84 41.1002C1156.27 43.4806 1156.31 45.4288 1156.4 49.4746C1156.49 53.5122 1155.14 51.3086 1150.93 49.5745C1146.7 47.8294 1147.82 51.0596 1147.02 52.6801C1146.22 54.3005 1142.96 48.4399 1143.29 46.8811C1143.62 45.3217 1144.95 45.2788 1145.36 43.6437C1145.77 42.0082 1145.3 41.8375 1144.93 40.9634C1144.55 40.0878 1144.84 41.3532 1145.15 41.5981C1145.46 41.843 1147.56 41.9819 1149.12 41.2442C1150.68 40.5074 1151.14 40.8346 1151.14 40.8346C1151.14 40.8346 1150.53 40.112 1148.93 38.4174C1147.32 36.7177 1145.74 38.3179 1145.28 38.0674C1144.81 37.817 1147.01 37.1004 1146.87 35.4451C1146.74 33.7889 1144.25 33.0738 1142.85 32.8673C1141.44 32.6608 1145.55 35.4012 1144.37 36.3071C1143.18 37.214 1134.7 36.548 1133.21 35.3113C1131.72 34.0716 1134.04 31.77 1134.04 31.77C1134.04 31.77 1131.74 31.8483 1131.47 34.5397C1131.21 37.2292 1134.05 38.0316 1134.37 38.0412C1134.68 38.0513 1133.98 37.5539 1132.95 37.4428C1131.92 37.3312 1128.26 38.4073 1127.86 38.5532C1127.46 38.6996 1127.92 39.905 1129.58 41.1437C1131.23 42.3793 1133.15 40.615 1133.64 39.6808C1134.12 38.7461 1132.92 40.0545 1133.38 41.4916C1133.84 42.9272 1134.47 42.7873 1134.53 44.5249C1134.59 46.2615 1134.42 47.0457 1135.35 48.7227C1136.27 50.3966 1136.53 48.8302 1138.65 48.8827C1140.76 48.9347 1141.55 48.405 1141.85 49.2751C1142.15 50.1441 1140.67 49.8735 1139.65 50.1628C1138.63 50.4527 1138.71 50.0618 1137.23 49.4766C1135.74 48.8903 1135.34 49.9815 1135.16 51.0788C1135 52.1756 1135.52 54.6217 1139.67 54.5525C1143.81 54.4838 1143.18 49.3079 1142.8 48.4363C1142.42 47.5648 1142.74 52.5846 1143.88 54.9539C1145.02 57.3171 1145.7 58.1094 1146.52 60.3813C1147.34 62.6486 1147.34 62.7263 1149.4 64.7745C1151.45 66.816 1154.91 66.4777 1155.68 66.0258C1156.45 65.5738 1154.79 58.9012 1154.89 57.5095C1154.99 56.1168 1156.85 64.2695 1156.41 67.7315C1155.98 71.1905 1153.38 80.7727 1152.51 82.4568C1151.65 84.1408 1149.87 84.9028 1148.55 85.8976C1147.23 86.8934 1151.07 86.9752 1153.37 86.6722C1155.66 86.3702 1154.04 84.6104 1154.04 84.6104C1154.04 84.6104 1154.83 84.2969 1155.09 83.9823C1155.36 83.6672 1155.01 82.7719 1155.49 82.3528C1155.96 81.9336 1159.9 71.5329 1161.3 69.2282C1162.69 66.9256 1164.45 64.8926 1165.57 63.0111C1166.7 61.1301 1167.18 54.7979 1165.63 57.147C1164.08 59.4976 1162.37 67.7654 1162.15 68.4481C1161.93 69.1308 1162.54 72.9831 1163.08 74.3556C1163.63 75.7266 1166.48 81.3004 1166.31 82.5547C1166.13 83.8081 1162.99 85.3674 1164.64 85.9981C1166.28 86.6273 1168.72 86.0062 1168.78 85.2245C1168.85 84.4428 1168.29 83.9717 1168.76 83.8166C1169.23 83.6616 1169.64 83.6111 1169.7 83.3506C1169.75 83.09 1168.54 81.6236 1168.32 80.0552C1168.09 78.4852 1166.57 73.6527 1167.01 69.6665C1167.45 65.6748 1168.67 63.9559 1168.67 63.9559C1168.67 63.9559 1165.19 63.9544 1167.11 64.0897C1169.03 64.2246 1172.59 64.1225 1172.34 64.0135M1172.34 64.0135C1172.08 63.9044 1166.39 63.815 1165.23 64.7457C1164.07 65.6778 1160.74 68.2183 1160.53 68.5324C1160.31 68.8465 1156.95 66.6337 1157.03 68.1703C1157.11 69.7059 1159.34 70.9997 1158.53 72.099C1157.73 73.1988 1155.52 74.0224 1155.54 75.5539C1155.57 77.0845 1156.09 77.3521 1155.55 78.7185C1155 80.0855 1154.13 81.7675 1153.9 83.1354C1153.67 84.5034 1148.69 83.1693 1148.26 83.8015C1147.83 84.4342 1148.88 84.9649 1146.65 85.1179C1144.85 85.2421 1143.93 85.2225 1123.64 85.2245" stroke="#AAA9BC" stroke-width="1.2" stroke-linecap="round" stroke-linejoin="round"/>
<path d="M803.035 86.8048C802.41 86.7981 784.059 87.1242 783.449 87.1176C779.137 87.0746 775.575 86.1341 770.684 86.1084C768.574 86.0977 766.143 86.42 763.631 86.4184C708.059 86.3853 766.358 87.692 763.115 87.6474C763.115 87.6474 761.893 88.3292 759.719 87.1027C757.544 85.877 757.681 84.3778 757.681 84.3778C757.681 84.3778 761.35 84.6505 762.708 81.5173C764.067 78.3833 763.931 77.7023 765.29 77.2932C766.648 76.8841 768.007 77.8379 768.007 77.8379C768.007 77.8379 769.094 75.1129 766.377 74.7047C763.659 74.2956 762.029 76.0675 760.535 76.0675C759.04 76.0675 753.877 70.8896 753.469 68.9829C753.062 67.0754 752.79 59.3098 751.567 61.8992C750.345 64.4877 750.888 66.3944 750.752 65.4406C750.616 64.4869 749.393 61.0818 749.257 62.9885C749.121 64.8952 749.529 68.0283 749.257 67.0754C748.986 66.1217 747.763 60.2636 747.627 63.3967C747.491 66.5308 747.627 68.3011 747.627 68.3011C747.627 68.3011 745.59 67.0754 745.181 68.5738C744.774 70.0714 744.502 76.3394 746.539 78.5189C748.577 80.6991 751.431 82.0612 751.431 82.8786C751.431 83.6959 750.616 87.9193 751.295 87.2382C751.974 86.5572 754.42 83.5604 753.469 82.4695C752.518 81.3802 747.763 83.5596 748.17 76.3386C748.577 69.1185 751.295 66.9382 751.974 69.9359C752.653 72.9327 753.332 76.0667 756.322 77.0196C759.311 77.9734 757.816 83.2868 756.865 83.5596C755.914 83.8315 754.42 86.6928 754.42 86.6928C754.42 86.6928 744.094 86.9647 743.006 86.42C741.92 85.8754 740.425 79.8809 740.833 79.0635C741.24 78.2461 740.833 76.0667 742.327 71.026C743.822 65.9853 743.686 59.4453 742.871 61.0809C742.056 62.7157 743.142 64.7588 742.056 62.7157C740.969 60.6727 740.562 58.9015 740.29 59.8545C740.019 60.8082 740.562 63.3967 739.883 62.0347C739.203 60.6727 738.388 58.4932 738.252 59.3098C738.117 60.1272 737.845 65.0324 735.671 68.4375C733.496 71.8434 729.692 73.6145 726.704 72.2517C723.714 70.8888 722.084 68.5738 720.317 70.2078C718.552 71.8434 718.143 73.8864 718.143 73.8864C718.143 73.8864 719.637 72.6608 720.453 73.2054C721.269 73.7501 718.823 74.5675 723.714 78.1106C728.605 81.6521 730.915 80.8355 731.594 81.3801C732.273 81.9248 729.284 88.4639 730.779 86.6936C732.273 84.9224 732.41 82.4703 734.04 81.9256C735.671 81.381 737.437 80.0181 737.98 81.1082C738.523 82.1984 738.251 85.8762 739.066 85.8762C739.882 85.8762 745.589 84.2414 739.61 85.1952C733.631 86.1489 723.441 86.4217 723.034 86.4217C722.627 86.4217 714.746 86.2861 716.105 84.9233C717.463 83.5612 721.675 83.0158 719.501 82.062C717.327 81.1082 715.426 80.8363 712.029 80.9719C708.632 81.1082 704.828 82.4703 704.284 80.1545C703.741 77.8387 705.235 75.7948 705.779 75.9312C706.322 76.0675 710.126 75.2501 712.843 72.5252C715.561 69.8003 713.115 67.8936 716.376 65.9853C719.637 64.0778 721.811 65.7134 720.588 65.0315C719.365 64.3505 717.734 60.5355 714.745 62.9885C711.756 65.4406 712.163 66.6671 710.126 66.6671C708.088 66.6671 699.392 66.8027 697.354 64.0778C695.317 61.3529 694.773 58.0833 694.501 60.1272C694.229 62.1711 695.316 64.3505 694.365 63.5331C693.413 62.7157 692.191 59.8545 692.87 62.0347C693.549 64.2141 694.365 65.7134 693.957 65.8497C693.55 65.9853 692.463 63.6703 692.463 65.3043C692.463 66.9382 692.463 69.2557 694.637 72.3889C696.812 75.5221 698.577 74.7047 698.577 75.6584C698.577 76.6122 697.219 80.1545 697.762 80.29C698.306 80.4264 699.256 79.1999 699.936 76.8841C700.616 74.5683 701.024 76.2031 698.714 73.3426C696.404 70.4813 695.181 67.3482 698.442 67.3482C701.703 67.3482 706.187 67.7564 707.818 69.5276C709.448 71.2987 710.263 70.8896 705.508 75.1138C700.752 79.3371 699.393 80.7 699.936 81.2446C700.48 81.7893 704.964 81.5173 703.605 82.062C702.247 82.6066 698.849 82.062 700.344 83.2885C701.838 84.5142 707.138 85.4679 705.78 86.2861C704.421 87.1027 690.97 87.5118 690.29 85.877C689.611 84.2423 689.067 82.1992 689.067 82.1992C689.067 82.1992 691.514 81.9265 692.736 78.1122C693.958 74.2972 693.279 73.0707 693.415 71.7087C693.551 70.3458 695.045 66.8035 695.045 66.8035C695.045 66.8035 693.415 65.0324 692.6 64.3513C691.785 63.6703 691.242 66.9399 690.426 65.577C689.61 64.215 689.61 62.1711 689.339 63.5331C689.067 64.8952 689.882 63.5331 688.252 66.6671C686.622 69.8003 687.573 72.3889 684.041 73.4782C680.508 74.5683 675.616 74.8402 674.122 77.1568C672.629 79.4735 672.9 82.8786 673.308 83.9687L673.715 85.058C673.715 85.058 673.308 84.7861 673.851 83.9687C674.394 83.1513 674.53 80.8355 676.568 80.8355C678.607 80.8355 679.422 82.8786 680.915 83.5604C682.41 84.2414 682.274 86.83 682.274 86.83C682.274 86.83 683.089 83.9687 683.768 83.8323C684.447 83.696 686.622 82.3331 687.029 83.1513C687.437 83.9687 688.387 87.2382 688.116 86.83C687.844 86.4209 679.42 85.6035 679.012 86.5572C678.605 87.511 682.138 87.1019 678.605 87.511C675.351 87.887 660.595 87.9275 659.028 86.0572C658.456 85.3745 665.857 85.082 667.392 83.5422C668.089 82.843 646.938 84.2423 646.938 81.943C646.938 79.6437 647.038 78.2461 648.532 76.9469C650.026 75.6485 651.821 74.6493 652.418 72.85C653.016 71.0524 650.923 72.4508 650.625 72.3508C650.325 72.2508 652.816 68.8532 652.418 68.154C652.02 67.4548 650.026 69.3524 645.742 70.3524C641.457 71.3516 640.66 73.3501 642.254 76.7469C643.849 80.1446 647.137 79.2453 646.938 79.5454C646.738 79.8445 648.432 79.7454 649.33 80.7438C650.226 81.743 649.628 82.7422 649.33 84.3406C649.031 85.9398 650.525 84.6406 651.821 84.6406C653.116 84.6406 650.526 84.0414 650.127 83.7414C649.729 83.4422 651.92 83.3422 651.92 83.3422C651.92 83.3422 649.031 79.5454 649.33 79.2454C649.628 78.9453 656.405 74.9485 656.803 71.9508C657.202 68.9532 656.106 68.854 655.906 67.854C655.708 66.8547 657.7 64.6563 658.497 62.5587C659.295 60.4603 657.201 62.9579 656.803 62.9579C656.405 62.9579 656.803 61.5587 656.504 59.9602C656.206 58.361 655.607 61.4587 654.91 62.6579C654.213 63.8571 654.312 62.2587 653.316 60.4594C652.319 58.661 652.519 65.0555 651.224 66.7539C649.928 68.4532 643.949 70.0516 641.159 69.4515C638.369 68.8524 638.767 65.6547 636.177 65.7547C633.586 65.8547 633.586 68.0523 633.287 68.9515C632.988 69.8507 632.688 70.5508 632.688 70.5508C632.688 70.5508 633.486 69.9516 634.482 69.4515C635.478 68.9515 636.574 69.5516 637.571 71.55C638.568 73.5484 638.269 77.3461 640.261 78.4453C642.254 79.5445 644.447 79.4445 645.444 80.2429C646.44 81.0429 646.44 83.6406 645.842 84.5398C645.244 85.4382 641.657 85.339 641.657 85.339C641.657 85.339 629.799 86.039 626.81 85.8382C623.82 85.6382 627.009 85.139 628.703 83.9398C630.397 82.7414 620.233 83.5406 617.841 83.0406C615.45 82.5414 621.629 80.5429 621.629 80.5429C621.629 80.5429 619.137 80.2429 618.539 79.9437C617.941 79.6437 619.635 79.6437 620.631 79.4437C621.628 79.2437 619.436 79.2437 619.436 79.2437C619.436 79.2437 617.841 76.9453 617.543 76.146C617.244 75.3468 615.251 75.1468 613.657 73.9476C612.063 72.7492 610.268 70.2508 608.574 67.6531C606.881 65.0547 609.671 67.1539 610.269 67.1539C610.867 67.1539 609.372 64.2563 610.468 63.5563C611.564 62.8562 618.539 68.4523 618.739 70.6499C618.938 72.8484 614.952 74.1476 616.248 75.0468C617.544 75.946 621.53 73.5484 623.024 71.65C624.518 69.7516 625.017 69.0524 626.113 68.9515C627.21 68.8515 626.711 70.1508 626.91 70.6499C627.109 71.15 627.309 69.5516 627.508 68.1523C627.707 66.7531 627.21 65.9539 625.217 65.1547C623.224 64.3555 620.334 66.7531 617.942 67.0531C615.551 67.3531 612.362 62.357 611.764 61.1578C611.167 59.9594 612.163 56.2617 611.864 55.1625C611.565 54.0633 610.867 56.3609 610.369 57.9602C609.87 59.5594 610.169 56.6609 609.572 55.1625C608.973 53.6641 608.774 58.0602 608.176 59.8586C607.579 61.657 606.681 58.3602 605.286 57.9602C603.892 57.5601 607.08 63.2554 606.98 63.9555C606.881 64.6547 606.083 66.9531 607.977 70.0507C609.87 73.1484 612.76 73.6484 613.657 75.0468C614.553 76.4461 612.959 78.4445 613.258 80.0429C613.556 81.6421 617.642 81.0421 617.642 81.0421C617.642 81.0421 611.563 81.8413 609.969 82.3413C608.374 82.8405 611.265 83.6397 611.862 84.339C612.46 85.039 607.976 84.639 605.783 85.5382C603.591 86.4374 608.075 87.0366 608.673 88.4358C609.271 89.8342 599.007 88.6358 596.815 88.6358C594.622 88.6358 595.121 82.2405 594.324 81.2413C593.527 80.2421 589.042 77.8436 589.042 77.8436C589.042 77.8436 592.33 80.6413 598.31 79.6429C604.289 78.6437 599.207 73.3476 598.908 72.3492C598.608 71.35 596.815 73.0484 592.629 74.1476C588.444 75.2468 586.85 73.5484 586.152 74.1476C585.455 74.7476 587.348 79.4437 587.548 80.1429C587.747 80.8421 586.252 79.7429 585.954 79.0437C585.655 78.3445 581.968 77.6445 581.271 76.9453C580.573 76.2461 581.769 74.7476 581.769 74.2484C581.769 73.7492 580.872 74.0484 579.676 73.7484C578.48 73.4492 580.174 72.4492 580.773 71.85C581.371 71.2508 579.776 70.7508 579.378 69.8516C578.979 68.9524 581.571 69.3515 581.571 69.3515C581.571 69.3515 581.072 66.8539 583.464 67.0539C585.856 67.2539 585.457 71.65 588.446 71.95C591.436 72.25 595.322 71.3508 597.016 70.5516C598.711 69.7524 597.215 67.5539 597.116 65.9555C597.016 64.3571 598.51 62.9579 600.006 62.4579C601.501 61.9578 601.699 63.3571 602.198 64.2563C602.697 65.1555 603.494 64.9555 603.494 64.9555C603.494 64.9555 601.002 65.0547 600.803 67.7531C600.604 70.4508 601.8 70.1516 602.397 72.8484C602.996 75.5468 602.099 77.0453 600.803 79.9429C599.508 82.8405 596.718 82.7405 595.921 84.2398C595.124 85.7382 595.921 85.5382 596.12 86.7374C596.319 87.9366 598.412 87.6366 599.209 87.8366C600.006 88.0366 595.024 88.1366 595.024 88.1366C595.024 88.1366 594.525 85.239 594.326 84.7398C594.127 84.2398 592.632 82.4414 592.632 82.4414C592.632 82.4414 591.437 84.339 590.34 85.139C589.243 85.9382 588.048 81.9413 588.048 81.9413C588.048 81.9413 589.045 83.9398 589.543 85.439C590.041 86.9374 589.444 86.3382 589.144 87.8374C588.844 89.3359 591.735 88.6367 593.03 88.6367C593.29 88.535 590.368 89.0185 584.683 88.8069C583.033 88.7458 580.923 87.1498 578.87 87.2903C576.298 87.4664 572.848 88.6598 569.845 88.6631C567.394 88.6656 564.577 87.1812 561.931 87.1837C559.434 87.1862 557.115 88.6763 554.514 88.6796C550.763 88.6838 521.231 85.8349 517.433 85.8382" stroke="#AAA9BC" stroke-width="1.2" stroke-linecap="round" stroke-linejoin="round"/>
<path d="M266.461 85.7623C274.211 85.3192 361.506 86.5717 389.077 86.3497C390.957 86.3342 390.75 85.5826 390.947 84.1022C390.424 84.8222 389.854 85.5797 389.017 85.8989C388.181 86.219 387.019 85.8619 386.838 84.9933C386.751 84.5774 386.902 84.1518 387.051 83.7515C387.579 82.3299 388.107 80.9079 388.552 79.943C382.157 77.2471 378.299 70.0615 378.764 63.2015C379.228 56.3425 383.562 50.0591 389.392 46.3143C395.222 42.5685 402.38 41.1843 409.323 41.4929C414.357 41.7158 419.484 42.8474 423.62 45.6934C427.756 48.5394 430.746 53.3123 430.606 58.966C432.023 59.1623 433.673 58.1255 434.785 59.0199C435.511 59.6034 435.515 60.6766 435.458 61.5997C435.387 62.7249 435.316 63.8496 435.244 64.9748C435.219 65.379 435.184 65.8109 434.929 66.1292C434.723 66.3881 434.404 66.53 434.094 66.65C432.242 67.3647 430.227 67.6547 428.247 67.4929C427.785 66.6782 427.314 65.8435 427.148 64.9228C426.98 64.0036 427.172 62.9644 427.868 62.3319C428.324 61.9165 428.937 61.7217 429.529 61.537C430.829 61.1328 432.129 60.7286 433.43 60.3254C433.631 60.2632 433.857 60.2015 434.048 60.2928C434.245 60.388 434.333 60.6144 434.397 60.8224C434.792 62.1181 434.875 63.5052 434.637 64.8378C434.054 64.8388 433.47 64.8402 432.887 64.8412C432.604 64.8412 432.263 64.8077 432.142 64.5551C432.03 64.3238 432.185 64.0522 432.367 63.87C432.758 63.475 433.313 63.2448 433.872 63.2423C432.636 62.7035 431.038 63.1758 430.305 64.2966C431.137 64.4851 431.517 65.6701 430.95 66.2992C430.381 66.9303 429.149 66.6918 428.863 65.8965C428.577 65.1007 429.381 64.146 429.906 64.7387C431.284 65.7109 432.422 67.0134 433.194 68.503C431.284 72.1205 427.315 74.1479 423.48 75.655C413.815 79.4537 403.404 81.3879 393.004 81.3145C392.223 81.3092 391.179 81.0395 391.201 80.2666C391.201 80.2666 391.278 81.2251 391.507 81.0113C385.378 77.0318 381.675 69.6573 382.171 62.4222C382.667 55.1867 387.343 48.3752 393.96 45.2503C393.88 46.186 394.107 47.1441 394.597 47.9482C397.403 47.3477 400.249 46.9425 403.111 46.737C403.083 45.6254 403.053 44.5143 403.84 43.6645C411.206 41.5638 419.355 44.1173 425.332 48.8659C427.472 46.8842 430.213 45.5467 433.105 45.0691C432.002 47.5129 430.668 49.8551 429.127 52.0564C426.91 51.1168 424.169 51.523 422.327 53.0655C420.808 50.8093 418.786 48.8873 416.445 47.4774L417.643 54.9651C417.672 55.1512 417.747 55.3829 417.937 55.4033C418.128 55.4228 418.093 55.0166 418.131 55.2182C414.582 59.0092 413.702 65.0137 416.016 69.6452C416.587 70.7903 417.355 71.9748 417.146 73.2341C416.836 75.0861 414.684 75.9309 412.855 76.4377C406.861 78.0968 400.722 79.7715 394.722 79.8172C395.065 81.5545 395.594 83.2559 396.297 84.8854C397.334 84.4049 398.142 83.4614 398.45 82.3697C405.28 82.9979 412.272 81.8101 418.448 79.3814C419.524 80.3627 420.599 81.3437 421.673 82.3236C422.583 80.9477 422.918 79.2133 422.587 77.6032C424.969 77.0663 427.212 75.9343 429.051 74.3432C429.44 74.007 429.919 73.6218 430.414 73.7699C430.809 73.887 431.025 74.299 431.176 74.6794C431.924 76.5713 432.12 78.6735 431.731 80.6688C430.85 79.8288 429.969 78.9893 429.087 78.1507C428.517 77.608 427.987 76.5766 428.673 76.1884C429.34 75.8114 429.974 76.7287 430.192 77.4574C430.745 79.3221 432.26 79.8793 432.814 81.744C443.107 81.8776 507.518 86.1272 517.806 85.7623" stroke="#AAA9BC" stroke-width="1.2" stroke-linecap="round" stroke-linejoin="round"/>
</svg>
