<svg width="992" height="97" viewBox="0 0 992 97" fill="none" xmlns="http://www.w3.org/2000/svg">
<g clip-path="url(#clip0_99_512)">
<path d="M749.288 24.4471C749.07 25.2159 748.45 26.933 748.153 28.0265C747.856 29.1199 748.642 30.5722 748.913 30.9652C749.175 31.3581 749.402 31.0591 749.402 31.0591C749.402 31.0591 749.855 32.2722 750.24 32.426L750.615 32.5797C750.615 32.5797 751.453 33.7586 753.042 34.1858C754.631 34.6129 754.674 34.6129 755.277 34.3652C755.879 34.126 756.342 33.5451 756.342 33.5451C756.342 33.5451 756.717 33.7245 757.101 33.4511C757.477 33.1777 758.088 32.2722 758.088 32.2722C758.088 32.2722 758.769 32.3064 759.109 31.9732C759.45 31.64 759.947 31.2129 759.947 31.2129C759.947 31.2129 760.855 31.7596 761.353 31.3923C761.842 31.025 761.432 30.2988 761.432 30.2988C761.432 30.2988 763.291 30.4184 763.439 29.9657C763.588 29.5129 762.532 28.6586 762.532 28.6586C762.532 28.6586 763.937 28.3596 763.597 27.8385C763.256 27.326 762.497 27.0184 762.497 27.0184C762.497 27.0184 762.61 26.0446 763.562 26.3521C764.513 26.6511 763.029 24.7119 761.248 24.84C759.467 24.9596 758.402 26.839 757.075 27.0526C755.748 27.2662 754.194 25.6003 753.924 24.6009C753.662 23.6014 752.178 22.2345 751.078 21.5682C751.078 21.5682 751.567 21.5682 751.802 21.2948C752.029 21.0215 751.348 20.9617 751.348 20.9617C751.348 20.9617 751.575 20.4491 751.235 20.4149C750.894 20.3808 750.702 20.6285 750.702 20.6285C750.702 20.6285 750.737 20.1159 750.554 20.1416C750.362 20.1757 749.952 20.6541 749.952 20.6541C749.952 20.6541 749.917 20.2612 749.611 20.5003C749.305 20.7395 749.236 20.8933 749.236 20.8933C749.236 20.8933 748.974 20.526 748.817 20.8591C748.668 21.1923 748.625 21.3119 748.625 21.3119C748.625 21.3119 748.136 21.4315 748.136 21.739C748.136 21.739 748.511 21.7049 748.703 21.8586C748.895 22.0124 748.703 22.4908 748.511 22.6787C748.319 22.8581 748.398 23.4049 749 23.2511C749.602 23.0973 749.419 24.037 749.305 24.43L749.288 24.4471Z" fill="#CE666D"/>
<path d="M754.474 33.0669C754.474 33.0669 754.727 35.2965 754.631 35.9458C754.535 36.595 754.002 37.1418 754.002 37.1418L754.657 36.6207L754.561 37.082C754.561 37.082 754.901 36.5352 755.094 36.5352C755.286 36.5352 756.028 36.595 756.028 36.595C756.028 36.595 755.12 36.3815 755.024 35.9543C754.928 35.5272 755.207 33.0156 755.207 33.0156L754.456 33.0754L754.474 33.0669Z" fill="#CE666D"/>
<path d="M753.828 32.6055C753.828 32.6055 753.583 34.8437 753.347 35.4502C753.112 36.0567 752.474 36.4839 752.474 36.4839L753.234 36.1165L753.042 36.5437C753.042 36.5437 753.496 36.0738 753.679 36.1165C753.863 36.1592 754.578 36.3728 754.578 36.3728C754.578 36.3728 753.74 35.9713 753.74 35.5356C753.74 35.0999 754.57 32.708 754.57 32.708L753.819 32.614L753.828 32.6055Z" fill="#CE666D"/>
<path d="M782.183 33.0669C782.183 33.0669 782.436 35.2965 782.34 35.9458C782.244 36.5865 781.711 37.1418 781.711 37.1418L782.366 36.6207L782.27 37.082C782.27 37.082 782.611 36.5352 782.803 36.5352C782.995 36.5352 783.737 36.595 783.737 36.595C783.737 36.595 782.829 36.3815 782.733 35.9543C782.637 35.5272 782.916 33.0156 782.916 33.0156L782.165 33.0754L782.183 33.0669Z" fill="#CE666D"/>
<path d="M781.537 32.6055C781.537 32.6055 781.292 34.8437 781.057 35.4502C780.821 36.0567 780.184 36.4839 780.184 36.4839L780.943 36.1165L780.751 36.5437C780.751 36.5437 781.205 36.0738 781.388 36.1165C781.572 36.1592 782.288 36.3728 782.288 36.3728C782.288 36.3728 781.45 35.9713 781.45 35.5356C781.45 35.0999 782.279 32.708 782.279 32.708L781.537 32.614V32.6055Z" fill="#CE666D"/>
<path d="M790.616 27.4886C790.642 27.0102 789.394 26.4634 789.394 26.4634C789.394 26.4634 790.669 25.8142 790.197 25.4041C789.734 24.9941 788.914 24.8916 788.914 24.8916C788.914 24.8916 788.765 23.9262 789.761 23.9775C790.756 24.0288 788.809 22.5338 787.124 23.1061C785.439 23.6785 784.915 25.7629 783.684 26.3097C782.462 26.8564 780.515 25.6433 779.992 24.7463C779.765 24.3534 779.285 23.9433 778.708 23.5845C778.621 23.5589 777.39 22.4484 775.81 22.6705C775.312 22.7388 774.631 23.2172 774.361 23.7127C774.387 23.9092 774.335 24.1484 774.247 24.285C774.239 24.3021 774.23 24.3192 774.23 24.3448L773.854 24.9257L774.649 24.7976C774.649 24.7976 774.684 24.7976 774.71 24.7891H774.745V24.7805C774.789 24.7634 774.841 24.7463 774.893 24.7207C775.435 24.4217 775.504 25.3785 775.504 25.78C775.496 26.5745 775.365 28.3941 775.365 29.5217C775.365 30.6494 776.517 31.8539 776.884 32.1614C777.242 32.4775 777.381 32.1272 777.381 32.1272C777.381 32.1272 778.141 33.178 778.551 33.2293L778.962 33.2805C778.962 33.2805 780.079 34.2117 781.729 34.2117C783.379 34.2117 783.414 34.2117 783.938 33.8187C784.461 33.4257 784.741 32.7594 784.741 32.7594C784.741 32.7594 785.151 32.8363 785.448 32.4775C785.745 32.1187 786.085 31.085 786.085 31.085C786.085 31.085 786.749 30.9398 786.993 30.5298C787.238 30.1197 787.596 29.5815 787.596 29.5815C787.596 29.5815 788.617 29.872 789.001 29.4021C789.376 28.9237 788.783 28.3257 788.783 28.3257C788.783 28.3257 790.607 27.9669 790.634 27.4886H790.616Z" fill="#CE666D"/>
<path d="M718.183 28.8211C718.436 29.5814 718.916 31.3412 719.283 32.409C719.658 33.4769 721.151 34.2457 721.596 34.4336C722.041 34.6216 722.059 34.2372 722.059 34.2372C722.059 34.2372 723.133 34.9889 723.534 34.912L723.936 34.8266C723.936 34.8266 725.306 35.3477 726.869 34.8266C728.432 34.3055 728.467 34.2884 728.825 33.7502C729.191 33.2206 729.235 32.4944 729.235 32.4944C729.235 32.4944 729.654 32.4346 729.811 32.0075C729.968 31.5718 729.951 30.4869 729.951 30.4869C729.951 30.4869 730.536 30.1367 730.623 29.6754C730.719 29.214 730.885 28.5904 730.885 28.5904C730.885 28.5904 731.95 28.5477 732.151 27.9754C732.352 27.403 731.592 27.0271 731.592 27.0271C731.592 27.0271 733.198 26.113 733.067 25.6517C732.937 25.1904 731.566 25.0708 731.566 25.0708C731.566 25.0708 732.552 24.0542 731.976 23.815C731.4 23.5759 730.597 23.7382 730.597 23.7382C730.597 23.7382 730.134 22.8754 731.094 22.602C732.055 22.3372 729.715 21.5341 728.31 22.6105C726.904 23.6869 727.096 25.8226 726.118 26.7281C725.141 27.6336 722.897 27.104 722.103 26.4206C721.308 25.7372 719.309 25.4125 718.017 25.4638C718.017 25.4638 718.427 25.1904 718.462 24.8402C718.497 24.4899 717.895 24.8145 717.895 24.8145C717.895 24.8145 717.79 24.2593 717.484 24.4216C717.179 24.5839 717.161 24.8914 717.161 24.8914C717.161 24.8914 716.899 24.4472 716.76 24.5754C716.62 24.7035 716.55 25.3357 716.55 25.3357C716.55 25.3357 716.297 25.0281 716.184 25.3955C716.07 25.7628 716.096 25.9336 716.096 25.9336C716.096 25.9336 715.668 25.7799 715.73 26.1387C715.791 26.4975 715.834 26.6171 715.834 26.6171C715.834 26.6171 715.494 26.9844 715.668 27.2407C715.668 27.2407 715.965 27.01 716.21 27.0271C716.454 27.0527 716.576 27.5568 716.524 27.813C716.472 28.0693 716.847 28.4794 717.266 28.0181C717.685 27.5568 718.061 28.4452 718.191 28.8296L718.183 28.8211Z" fill="#CE666D"/>
<path d="M726.677 32.8618C726.677 32.8618 726.503 35.1 726.293 35.7151C726.083 36.3302 725.455 36.7744 725.455 36.7744L726.197 36.3814L726.022 36.8171C726.022 36.8171 726.468 36.3387 726.651 36.3729C726.834 36.407 727.559 36.6035 727.559 36.6035C727.559 36.6035 726.712 36.2276 726.695 35.792C726.686 35.3563 727.428 32.9387 727.428 32.9387L726.677 32.8618Z" fill="#CE666D"/>
<path d="M725.848 32.8018C725.848 32.8018 725.184 34.9545 724.844 35.5098C724.503 36.0651 723.796 36.3726 723.796 36.3726L724.608 36.142L724.337 36.5264C724.337 36.5264 724.87 36.1505 725.045 36.2188C725.219 36.2872 725.883 36.6374 725.883 36.6374C725.883 36.6374 725.132 36.0907 725.219 35.6636C725.307 35.2364 726.564 33.0324 726.564 33.0324L725.848 32.8018Z" fill="#CE666D"/>
</g>
<g clip-path="url(#clip1_99_512)">
<path d="M816.83 1.01172H814.219V39.7019H816.83V1.01172Z" fill="#93B1BF"/>
<path d="M816.83 8.25049H814.219V39.698H816.83V8.25049Z" fill="#E5DDDB"/>
<path d="M852.325 1.01172H849.713V39.7019H852.325V1.01172Z" fill="#B3C9D1"/>
<path d="M837.158 19.4102H834.546V39.9998H837.158V19.4102Z" fill="#B3C9D1"/>
<path d="M837.158 26.6528H834.546V39.9998H837.158V26.6528Z" fill="#E5DDDB"/>
<path d="M867.715 19.4102H865.104V39.9998H867.715V19.4102Z" fill="#B3C9D1"/>
<path d="M867.715 26.6528H865.104V39.9998H867.715V26.6528Z" fill="#E5DDDB"/>
<path d="M865.807 30.6724H836.07V33.4878H865.807V30.6724Z" fill="#E5DDDB"/>
<path d="M862.559 32.1289H859.947V39.9714H862.559V32.1289Z" fill="#E5DDDB"/>
<path d="M857.477 32.1289H854.866V39.9714H857.477V32.1289Z" fill="#E5DDDB"/>
<path d="M852.399 32.1289H849.788V39.9714H852.399V32.1289Z" fill="#E5DDDB"/>
<path d="M847.317 32.1289H844.706V39.9714H847.317V32.1289Z" fill="#E5DDDB"/>
<path d="M842.236 32.1289H839.624V39.9714H842.236V32.1289Z" fill="#E5DDDB"/>
<path d="M853.369 0H812L817.215 5.9084H858.581L853.369 0Z" fill="#2FAE29"/>
<path d="M830.635 21.1117H872L866.883 15.3135H825.517L830.635 21.1117Z" fill="#2FAE29"/>
<path d="M818.661 7.54883L824.068 13.6735H865.438L860.03 7.54883H818.661Z" fill="#2FAE29"/>
<path d="M858.581 5.9082H817.215L818.661 7.54852H860.03L858.581 5.9082Z" fill="#388159"/>
<path d="M825.518 15.3137H866.883L865.438 13.6733H824.068L825.518 15.3137Z" fill="#388159"/>
</g>
<g clip-path="url(#clip2_99_512)">
<path d="M360.17 1.01172H362.781V39.7019H360.17V1.01172Z" fill="#93B1BF"/>
<path d="M360.17 8.25049H362.781V39.698H360.17V8.25049Z" fill="#E5DDDB"/>
<path d="M324.675 1.01172H327.287V39.7019H324.675V1.01172Z" fill="#B3C9D1"/>
<path d="M339.842 19.4102H342.454V39.9998H339.842V19.4102Z" fill="#B3C9D1"/>
<path d="M339.842 26.6528H342.454V39.9998H339.842V26.6528Z" fill="#E5DDDB"/>
<path d="M309.285 19.4102H311.896V39.9998H309.285V19.4102Z" fill="#B3C9D1"/>
<path d="M309.285 26.6528H311.896V39.9998H309.285V26.6528Z" fill="#E5DDDB"/>
<path d="M311.193 30.6724H340.93V33.4878H311.193V30.6724Z" fill="#E5DDDB"/>
<path d="M314.441 32.1289H317.053V39.9714H314.441V32.1289Z" fill="#E5DDDB"/>
<path d="M319.523 32.1289H322.134V39.9714H319.523V32.1289Z" fill="#E5DDDB"/>
<path d="M324.601 32.1289H327.212V39.9714H324.601V32.1289Z" fill="#E5DDDB"/>
<path d="M329.683 32.1289H332.294V39.9714H329.683V32.1289Z" fill="#E5DDDB"/>
<path d="M334.764 32.1289H337.376V39.9714H334.764V32.1289Z" fill="#E5DDDB"/>
<path d="M323.631 0H365L359.785 5.9084H318.419L323.631 0Z" fill="#2FAE29"/>
<path d="M346.365 21.1117H305L310.117 15.3135H351.483L346.365 21.1117Z" fill="#2FAE29"/>
<path d="M358.339 7.54883L352.932 13.6735H311.562L316.97 7.54883H358.339Z" fill="#2FAE29"/>
<path d="M318.419 5.9082H359.785L358.339 7.54852H316.97L318.419 5.9082Z" fill="#388159"/>
<path d="M351.483 15.3137H310.117L311.562 13.6733H352.932L351.483 15.3137Z" fill="#388159"/>
</g>
<g clip-path="url(#clip3_99_512)">
<path d="M150.455 28.6899H146.603V37.2929H150.455V28.6899Z" fill="#C67C57"/>
<path d="M163.949 28.6899H160.098V37.2929H163.949V28.6899Z" fill="#C67C57"/>
<path d="M204.358 28.6899H200.507V37.2929H204.358V28.6899Z" fill="#C67C57"/>
<path d="M257.944 28.6899H254.092V37.2929H257.944V28.6899Z" fill="#C67C57"/>
<path d="M274.812 28.6899H270.961V37.2929H274.812V28.6899Z" fill="#C67C57"/>
<path d="M154.147 21.1462L153.978 20.8024L148.655 9.96973L144.41 18.6006L143.323 20.8024L138 31.6445H148.655H159.31L154.147 21.1462Z" fill="#52D1C1"/>
<path d="M144.41 18.6006L143.323 20.8024L138 31.6445H148.655V18.1082V9.96973L144.41 18.6006Z" fill="#66E8A1"/>
<path d="M261.702 21.1462L261.533 20.8024L256.201 9.96973L251.955 18.6006L250.878 20.8024L245.555 31.6445H256.201H266.856L261.702 21.1462Z" fill="#52D1C1"/>
<path d="M251.955 18.6006L250.878 20.8024L245.555 31.6445H256.201V18.1082V9.96973L251.955 18.6006Z" fill="#66E8A1"/>
<path d="M278.842 20.1984L278.654 19.8175L272.844 8L268.215 17.4206L267.034 19.8175L261.224 31.6443H272.844H284.465L278.842 20.1984Z" fill="#52D1C1"/>
<path d="M268.215 17.4206L267.034 19.8175L261.224 31.6443H272.844V16.8724V8L268.215 17.4206Z" fill="#66E8A1"/>
<path d="M166.517 24.1285L166.395 23.887L162.59 16.1294L159.545 22.3076L158.776 23.887L154.962 31.6445H162.59H170.209L166.517 24.1285Z" fill="#52D1C1"/>
<path d="M159.545 22.3076L158.776 23.887L154.962 31.6445H162.59V21.9452V16.1294L159.545 22.3076Z" fill="#66E8A1"/>
<path d="M206.907 22.7161L206.767 22.4281L202.241 13.2119L198.623 20.5514L197.705 22.4281L193.178 31.6443H202.241H211.293L206.907 22.7161Z" fill="#52D1C1"/>
<path d="M198.623 20.5514L197.705 22.4281L193.178 31.6443H202.241V20.1333V13.2119L198.623 20.5514Z" fill="#66E8A1"/>
</g>
<g clip-path="url(#clip4_99_512)">
<path d="M573.455 28.6899H569.603V37.2929H573.455V28.6899Z" fill="#C67C57"/>
<path d="M586.949 28.6899H583.098V37.2929H586.949V28.6899Z" fill="#C67C57"/>
<path d="M627.358 28.6899H623.507V37.2929H627.358V28.6899Z" fill="#C67C57"/>
<path d="M680.944 28.6899H677.092V37.2929H680.944V28.6899Z" fill="#C67C57"/>
<path d="M697.812 28.6899H693.961V37.2929H697.812V28.6899Z" fill="#C67C57"/>
<path d="M577.147 21.1462L576.978 20.8024L571.655 9.96973L567.41 18.6006L566.323 20.8024L561 31.6445H571.655H582.31L577.147 21.1462Z" fill="#52D1C1"/>
<path d="M567.41 18.6006L566.323 20.8024L561 31.6445H571.655V18.1082V9.96973L567.41 18.6006Z" fill="#66E8A1"/>
<path d="M684.702 21.1462L684.533 20.8024L679.201 9.96973L674.955 18.6006L673.878 20.8024L668.555 31.6445H679.201H689.856L684.702 21.1462Z" fill="#52D1C1"/>
<path d="M674.955 18.6006L673.878 20.8024L668.555 31.6445H679.201V18.1082V9.96973L674.955 18.6006Z" fill="#66E8A1"/>
<path d="M701.842 20.1984L701.654 19.8175L695.844 8L691.215 17.4206L690.034 19.8175L684.224 31.6443H695.844H707.465L701.842 20.1984Z" fill="#52D1C1"/>
<path d="M691.215 17.4206L690.034 19.8175L684.224 31.6443H695.844V16.8724V8L691.215 17.4206Z" fill="#66E8A1"/>
<path d="M589.517 24.1285L589.395 23.887L585.59 16.1294L582.545 22.3076L581.776 23.887L577.962 31.6445H585.59H593.209L589.517 24.1285Z" fill="#52D1C1"/>
<path d="M582.545 22.3076L581.776 23.887L577.962 31.6445H585.59V21.9452V16.1294L582.545 22.3076Z" fill="#66E8A1"/>
<path d="M629.907 22.7161L629.767 22.4281L625.241 13.2119L621.623 20.5514L620.705 22.4281L616.178 31.6443H625.241H634.293L629.907 22.7161Z" fill="#52D1C1"/>
<path d="M621.623 20.5514L620.705 22.4281L616.178 31.6443H625.241V20.1333V13.2119L621.623 20.5514Z" fill="#66E8A1"/>
</g>
<rect width="992" height="60" transform="translate(0 37)" fill="#2FAE29"/>
<rect x="36" y="37" width="20" height="60" fill="#2F9A29"/>
<rect x="136" y="37" width="20" height="60" fill="#2F9A29"/>
<rect x="236" y="37" width="20" height="60" fill="#2F9A29"/>
<rect x="336" y="37" width="20" height="60" fill="#2F9A29"/>
<rect x="436" y="37" width="20" height="60" fill="#2F9A29"/>
<rect x="536" y="37" width="20" height="60" fill="#2F9A29"/>
<rect x="636" y="37" width="20" height="60" fill="#2F9A29"/>
<rect x="736" y="37" width="20" height="60" fill="#2F9A29"/>
<rect x="836" y="37" width="20" height="60" fill="#2F9A29"/>
<rect x="936" y="37" width="20" height="60" fill="#2F9A29"/>
<path d="M124.925 55.7789C125.657 55.7789 126.25 55.1492 126.25 54.3724C126.25 53.5955 125.657 52.9658 124.925 52.9658C124.194 52.9658 123.6 53.5955 123.6 54.3724C123.6 55.1492 124.194 55.7789 124.925 55.7789Z" fill="white"/>
<path d="M128.358 59.8229C129.089 59.8229 129.683 59.1931 129.683 58.4163C129.683 57.6395 129.089 57.0098 128.358 57.0098C127.626 57.0098 127.033 57.6395 127.033 58.4163C127.033 59.1931 127.626 59.8229 128.358 59.8229Z" fill="white"/>
<path d="M132.663 55.859C133.395 55.859 133.988 55.2293 133.988 54.4524C133.988 53.6756 133.395 53.0459 132.663 53.0459C131.932 53.0459 131.339 53.6756 131.339 54.4524C131.339 55.2293 131.932 55.859 132.663 55.859Z" fill="white"/>
<path d="M142.148 52.4065C142.148 53.1897 141.546 53.8131 140.823 53.8131C140.101 53.8131 139.498 53.1737 139.498 52.4065C139.498 51.6393 140.101 51 140.823 51C141.546 51 142.148 51.6393 142.148 52.4065Z" fill="white"/>
<path d="M119.325 59.631C120.056 59.631 120.65 59.0012 120.65 58.2244C120.65 57.4476 120.056 56.8179 119.325 56.8179C118.593 56.8179 118 57.4476 118 58.2244C118 59.0012 118.593 59.631 119.325 59.631Z" fill="white"/>
<path d="M136.698 61.2452C137.43 61.2452 138.023 60.6155 138.023 59.8387C138.023 59.0619 137.43 58.4321 136.698 58.4321C135.966 58.4321 135.373 59.0619 135.373 59.8387C135.373 60.6155 135.966 61.2452 136.698 61.2452Z" fill="white"/>
<path d="M147.733 60.6378C148.465 60.6378 149.058 60.0081 149.058 59.2313C149.058 58.4544 148.465 57.8247 147.733 57.8247C147.002 57.8247 146.408 58.4544 146.408 59.2313C146.408 60.0081 147.002 60.6378 147.733 60.6378Z" fill="white"/>
<path d="M149.224 55.603C148.576 55.2354 148.32 54.3883 148.667 53.701C149.013 53.0137 149.811 52.742 150.458 53.1096C151.106 53.4772 151.362 54.3244 151.015 55.0116C150.669 55.6989 149.871 55.9706 149.224 55.603Z" fill="white"/>
<path d="M155.878 60.5421C156.61 60.5421 157.203 59.9124 157.203 59.1355C157.203 58.3587 156.61 57.729 155.878 57.729C155.146 57.729 154.553 58.3587 154.553 59.1355C154.553 59.9124 155.146 60.5421 155.878 60.5421Z" fill="white"/>
<path d="M603.331 55.7789C604.063 55.7789 604.656 55.1492 604.656 54.3724C604.656 53.5955 604.063 52.9658 603.331 52.9658C602.599 52.9658 602.006 53.5955 602.006 54.3724C602.006 55.1492 602.599 55.7789 603.331 55.7789Z" fill="white"/>
<path d="M606.764 59.8229C607.495 59.8229 608.088 59.1931 608.088 58.4163C608.088 57.6395 607.495 57.0098 606.764 57.0098C606.032 57.0098 605.439 57.6395 605.439 58.4163C605.439 59.1931 606.032 59.8229 606.764 59.8229Z" fill="white"/>
<path d="M611.069 55.859C611.801 55.859 612.394 55.2293 612.394 54.4524C612.394 53.6756 611.801 53.0459 611.069 53.0459C610.338 53.0459 609.744 53.6756 609.744 54.4524C609.744 55.2293 610.338 55.859 611.069 55.859Z" fill="white"/>
<path d="M620.554 52.4065C620.554 53.1897 619.952 53.8131 619.229 53.8131C618.506 53.8131 617.904 53.1737 617.904 52.4065C617.904 51.6393 618.506 51 619.229 51C619.952 51 620.554 51.6393 620.554 52.4065Z" fill="white"/>
<path d="M597.731 59.631C598.462 59.631 599.055 59.0012 599.055 58.2244C599.055 57.4476 598.462 56.8179 597.731 56.8179C596.999 56.8179 596.406 57.4476 596.406 58.2244C596.406 59.0012 596.999 59.631 597.731 59.631Z" fill="white"/>
<path d="M615.104 61.2452C615.836 61.2452 616.429 60.6155 616.429 59.8387C616.429 59.0619 615.836 58.4321 615.104 58.4321C614.372 58.4321 613.779 59.0619 613.779 59.8387C613.779 60.6155 614.372 61.2452 615.104 61.2452Z" fill="white"/>
<path d="M626.139 60.6378C626.871 60.6378 627.464 60.0081 627.464 59.2313C627.464 58.4544 626.871 57.8247 626.139 57.8247C625.407 57.8247 624.814 58.4544 624.814 59.2313C624.814 60.0081 625.407 60.6378 626.139 60.6378Z" fill="white"/>
<path d="M627.63 55.603C626.982 55.2354 626.726 54.3883 627.073 53.701C627.419 53.0137 628.217 52.742 628.864 53.1096C629.511 53.4772 629.767 54.3244 629.421 55.0116C629.075 55.6989 628.277 55.9706 627.63 55.603Z" fill="white"/>
<path d="M634.284 60.5421C635.016 60.5421 635.609 59.9124 635.609 59.1355C635.609 58.3587 635.016 57.729 634.284 57.729C633.552 57.729 632.959 58.3587 632.959 59.1355C632.959 59.9124 633.552 60.5421 634.284 60.5421Z" fill="white"/>
<path d="M364.128 71.7789C364.86 71.7789 365.453 71.1492 365.453 70.3724C365.453 69.5955 364.86 68.9658 364.128 68.9658C363.396 68.9658 362.803 69.5955 362.803 70.3724C362.803 71.1492 363.396 71.7789 364.128 71.7789Z" fill="white"/>
<path d="M367.561 75.8229C368.292 75.8229 368.885 75.1931 368.885 74.4163C368.885 73.6395 368.292 73.0098 367.561 73.0098C366.829 73.0098 366.236 73.6395 366.236 74.4163C366.236 75.1931 366.829 75.8229 367.561 75.8229Z" fill="white"/>
<path d="M371.866 71.859C372.598 71.859 373.191 71.2293 373.191 70.4524C373.191 69.6756 372.598 69.0459 371.866 69.0459C371.135 69.0459 370.541 69.6756 370.541 70.4524C370.541 71.2293 371.135 71.859 371.866 71.859Z" fill="white"/>
<path d="M381.351 68.4065C381.351 69.1897 380.749 69.8131 380.026 69.8131C379.303 69.8131 378.701 69.1737 378.701 68.4065C378.701 67.6393 379.303 67 380.026 67C380.749 67 381.351 67.6393 381.351 68.4065Z" fill="white"/>
<path d="M358.528 75.631C359.259 75.631 359.853 75.0012 359.853 74.2244C359.853 73.4476 359.259 72.8179 358.528 72.8179C357.796 72.8179 357.203 73.4476 357.203 74.2244C357.203 75.0012 357.796 75.631 358.528 75.631Z" fill="white"/>
<path d="M375.901 77.2452C376.633 77.2452 377.226 76.6155 377.226 75.8387C377.226 75.0619 376.633 74.4321 375.901 74.4321C375.169 74.4321 374.576 75.0619 374.576 75.8387C374.576 76.6155 375.169 77.2452 375.901 77.2452Z" fill="white"/>
<path d="M386.936 76.6378C387.668 76.6378 388.261 76.0081 388.261 75.2313C388.261 74.4544 387.668 73.8247 386.936 73.8247C386.205 73.8247 385.611 74.4544 385.611 75.2313C385.611 76.0081 386.205 76.6378 386.936 76.6378Z" fill="white"/>
<path d="M388.427 71.603C387.779 71.2354 387.523 70.3883 387.87 69.701C388.216 69.0137 389.014 68.742 389.661 69.1096C390.309 69.4772 390.564 70.3244 390.218 71.0116C389.872 71.6989 389.074 71.9706 388.427 71.603Z" fill="white"/>
<path d="M395.081 76.5421C395.813 76.5421 396.406 75.9124 396.406 75.1355C396.406 74.3587 395.813 73.729 395.081 73.729C394.349 73.729 393.756 74.3587 393.756 75.1355C393.756 75.9124 394.349 76.5421 395.081 76.5421Z" fill="white"/>
<path d="M842.534 71.7789C843.266 71.7789 843.859 71.1492 843.859 70.3724C843.859 69.5955 843.266 68.9658 842.534 68.9658C841.802 68.9658 841.209 69.5955 841.209 70.3724C841.209 71.1492 841.802 71.7789 842.534 71.7789Z" fill="white"/>
<path d="M845.966 75.8229C846.698 75.8229 847.291 75.1931 847.291 74.4163C847.291 73.6395 846.698 73.0098 845.966 73.0098C845.235 73.0098 844.642 73.6395 844.642 74.4163C844.642 75.1931 845.235 75.8229 845.966 75.8229Z" fill="white"/>
<path d="M850.272 71.859C851.004 71.859 851.597 71.2293 851.597 70.4524C851.597 69.6756 851.004 69.0459 850.272 69.0459C849.54 69.0459 848.947 69.6756 848.947 70.4524C848.947 71.2293 849.54 71.859 850.272 71.859Z" fill="white"/>
<path d="M859.757 68.4065C859.757 69.1897 859.155 69.8131 858.432 69.8131C857.709 69.8131 857.107 69.1737 857.107 68.4065C857.107 67.6393 857.709 67 858.432 67C859.155 67 859.757 67.6393 859.757 68.4065Z" fill="white"/>
<path d="M836.934 75.631C837.665 75.631 838.258 75.0012 838.258 74.2244C838.258 73.4476 837.665 72.8179 836.934 72.8179C836.202 72.8179 835.609 73.4476 835.609 74.2244C835.609 75.0012 836.202 75.631 836.934 75.631Z" fill="white"/>
<path d="M854.307 77.2452C855.039 77.2452 855.632 76.6155 855.632 75.8387C855.632 75.0619 855.039 74.4321 854.307 74.4321C853.575 74.4321 852.982 75.0619 852.982 75.8387C852.982 76.6155 853.575 77.2452 854.307 77.2452Z" fill="white"/>
<path d="M865.342 76.6378C866.074 76.6378 866.667 76.0081 866.667 75.2313C866.667 74.4544 866.074 73.8247 865.342 73.8247C864.61 73.8247 864.017 74.4544 864.017 75.2313C864.017 76.0081 864.61 76.6378 865.342 76.6378Z" fill="white"/>
<path d="M866.833 71.603C866.185 71.2354 865.929 70.3883 866.275 69.701C866.622 69.0137 867.42 68.742 868.067 69.1096C868.714 69.4772 868.97 70.3244 868.624 71.0116C868.278 71.6989 867.48 71.9706 866.833 71.603Z" fill="white"/>
<path d="M873.487 76.5421C874.218 76.5421 874.812 75.9124 874.812 75.1355C874.812 74.3587 874.218 73.729 873.487 73.729C872.755 73.729 872.162 74.3587 872.162 75.1355C872.162 75.9124 872.755 76.5421 873.487 76.5421Z" fill="white"/>
<g clip-path="url(#clip5_99_512)">
<path d="M80.6523 54.0072C82.1368 53.9605 86.2473 54.1475 87.2193 55.5716C88.1913 56.9958 88.3256 58.5243 87.2193 59.7434C86.113 60.959 86.8517 61.4122 86.4488 61.8617C86.0459 62.3112 85.9893 63.5736 85.286 63.6419C84.5826 63.7102 85.2047 63.6059 85.2365 62.9442C85.2683 62.2825 85.1729 60.995 84.7381 59.952C84.3034 58.9091 84.0666 59.8837 82.7624 60.3009C81.4546 60.7181 78.7755 59.8837 78.7755 59.8837C78.7755 59.8837 78.3408 60.995 78.3055 61.3438C78.2737 61.6927 78.005 61.8293 78.005 62.4551C78.005 63.0809 77.6693 63.4297 77.6693 63.4297L77.5703 63.2211C77.5703 63.2211 77.4042 63.498 77.0331 63.57C77.0331 63.57 77.0649 62.5954 77.2345 62.3544C77.4042 62.1134 77.2663 61.2431 77.0331 60.8943C76.7998 60.5454 76.1283 59.7111 76.1283 59.7111C76.1283 59.7111 75.2234 59.4665 74.7887 59.4665C74.354 59.4665 74.0854 59.7434 73.1487 59.4305C72.2121 59.1177 72.3782 59.1177 72.0778 59.0817C71.7774 59.0457 71.4063 58.8048 71.4063 58.8048C71.4063 58.8048 71.0387 58.9091 71.0033 58.6645C70.9715 58.42 71.1023 57.8661 71.3391 57.6899C71.3391 57.6899 71.5724 57.8625 71.841 57.7942C72.1096 57.7259 72.3429 57.6539 72.4772 57.5496C72.6115 57.4453 73.1134 56.9598 73.1134 56.9598L73.5481 56.4024C73.5481 56.4024 73.6824 55.8126 73.5163 55.3954C73.3502 54.9782 73.951 54.4568 73.951 54.9099C73.951 55.363 74.2197 55.4314 74.3858 55.5716C74.5519 55.7119 74.9902 55.7802 74.9902 55.7802C74.9902 55.7802 76.2626 55.3271 76.7645 55.0142C77.2663 54.7013 77.3688 54.5287 77.9379 54.4244C78.5105 54.3201 79.5461 54.0396 80.6523 54.0072Z" fill="#FFD4C5"/>
<path d="M88.4141 57.0568C88.3682 57.0568 88.3258 57.0496 88.2834 57.0316C88.1597 56.9777 88.0925 56.8554 88.1031 56.7044C88.1173 56.5317 88.2233 56.3807 88.3611 56.2656C88.3081 56.2225 88.248 56.1973 88.1809 56.1829C87.884 56.1218 87.5623 56.3591 87.5588 56.3591C87.527 56.3843 87.4811 56.3771 87.4563 56.3447C87.4316 56.3124 87.4386 56.2656 87.4705 56.2404C87.4846 56.2296 87.8486 55.9599 88.2091 56.0354C88.3116 56.057 88.4035 56.1038 88.4848 56.1757C88.5591 56.1325 88.6333 56.0966 88.7075 56.0714C88.9832 55.9779 89.2306 56.0175 89.3684 56.1757C89.3967 56.2081 89.3932 56.2548 89.3614 56.28C89.3296 56.3088 89.2836 56.3052 89.2589 56.2728C89.1599 56.1613 88.9726 56.1361 88.7534 56.2117C88.6969 56.2296 88.6403 56.2584 88.5838 56.2872C88.605 56.3124 88.6227 56.3411 88.6403 56.3735C88.8277 56.6972 88.7216 56.8806 88.6651 56.9417C88.6015 57.0137 88.506 57.0568 88.4071 57.0568H88.4141ZM88.4672 56.3699C88.3505 56.4634 88.2622 56.5857 88.2516 56.7152C88.2445 56.8015 88.2763 56.8626 88.3399 56.8914C88.4141 56.9237 88.506 56.9022 88.5591 56.841C88.6297 56.7583 88.6156 56.6145 88.5166 56.4454C88.499 56.4167 88.4848 56.3915 88.4636 56.3663L88.4672 56.3699Z" fill="#FFD4C5"/>
</g>
<g clip-path="url(#clip6_99_512)">
<path d="M567.652 73.0072C569.137 72.9605 573.247 73.1475 574.219 74.5716C575.191 75.9958 575.326 77.5243 574.219 78.7434C573.113 79.959 573.852 80.4122 573.449 80.8617C573.046 81.3112 572.989 82.5736 572.286 82.6419C571.583 82.7102 572.205 82.6059 572.236 81.9442C572.268 81.2825 572.173 79.995 571.738 78.952C571.303 77.9091 571.067 78.8837 569.762 79.3009C568.455 79.7181 565.776 78.8837 565.776 78.8837C565.776 78.8837 565.341 79.995 565.305 80.3438C565.274 80.6927 565.005 80.8293 565.005 81.4551C565.005 82.0809 564.669 82.4297 564.669 82.4297L564.57 82.2211C564.57 82.2211 564.404 82.498 564.033 82.57C564.033 82.57 564.065 81.5954 564.235 81.3544C564.404 81.1134 564.266 80.2431 564.033 79.8943C563.8 79.5454 563.128 78.7111 563.128 78.7111C563.128 78.7111 562.223 78.4665 561.789 78.4665C561.354 78.4665 561.085 78.7434 560.149 78.4305C559.212 78.1177 559.378 78.1177 559.078 78.0817C558.777 78.0457 558.406 77.8048 558.406 77.8048C558.406 77.8048 558.039 77.9091 558.003 77.6645C557.972 77.42 558.102 76.8661 558.339 76.6899C558.339 76.6899 558.572 76.8625 558.841 76.7942C559.11 76.7259 559.343 76.6539 559.477 76.5496C559.612 76.4453 560.113 75.9598 560.113 75.9598L560.548 75.4024C560.548 75.4024 560.682 74.8126 560.516 74.3954C560.35 73.9782 560.951 73.4568 560.951 73.9099C560.951 74.363 561.22 74.4314 561.386 74.5716C561.552 74.7119 561.99 74.7802 561.99 74.7802C561.99 74.7802 563.263 74.3271 563.764 74.0142C564.266 73.7013 564.369 73.5287 564.938 73.4244C565.51 73.3201 566.546 73.0396 567.652 73.0072Z" fill="#FFD4C5"/>
<path d="M575.414 76.0568C575.368 76.0568 575.326 76.0496 575.283 76.0316C575.16 75.9777 575.093 75.8554 575.103 75.7044C575.117 75.5317 575.223 75.3807 575.361 75.2656C575.308 75.2225 575.248 75.1973 575.181 75.1829C574.884 75.1218 574.562 75.3591 574.559 75.3591C574.527 75.3843 574.481 75.3771 574.456 75.3447C574.432 75.3124 574.439 75.2656 574.47 75.2404C574.485 75.2296 574.849 74.9599 575.209 75.0354C575.312 75.057 575.404 75.1038 575.485 75.1757C575.559 75.1325 575.633 75.0966 575.708 75.0714C575.983 74.9779 576.231 75.0175 576.368 75.1757C576.397 75.2081 576.393 75.2548 576.361 75.28C576.33 75.3088 576.284 75.3052 576.259 75.2728C576.16 75.1613 575.973 75.1361 575.753 75.2117C575.697 75.2296 575.64 75.2584 575.584 75.2872C575.605 75.3124 575.623 75.3411 575.64 75.3735C575.828 75.6972 575.722 75.8806 575.665 75.9417C575.601 76.0137 575.506 76.0568 575.407 76.0568H575.414ZM575.467 75.3699C575.351 75.4634 575.262 75.5857 575.252 75.7152C575.244 75.8015 575.276 75.8626 575.34 75.8914C575.414 75.9237 575.506 75.9022 575.559 75.841C575.63 75.7583 575.616 75.6145 575.517 75.4454C575.499 75.4167 575.485 75.3915 575.464 75.3663L575.467 75.3699Z" fill="#FFD4C5"/>
</g>
<path d="M172.58 66.3998C174.344 66.346 179.229 66.5611 180.384 68.1994C181.539 69.8377 181.698 71.5959 180.384 72.9984C179.069 74.3967 179.947 74.918 179.468 75.4351C178.989 75.9523 178.922 77.4044 178.086 77.483C177.25 77.5616 177.99 77.4416 178.027 76.6804C178.065 75.9192 177.952 74.4381 177.435 73.2383C176.919 72.0386 176.637 73.1597 175.087 73.6396C173.533 74.1195 170.35 73.1597 170.35 73.1597C170.35 73.1597 169.833 74.4381 169.791 74.8394C169.754 75.2407 169.434 75.3979 169.434 76.1177C169.434 76.8376 169.035 77.2389 169.035 77.2389L168.918 76.9989C168.918 76.9989 168.72 77.3175 168.279 77.4002C168.279 77.4002 168.317 76.2791 168.519 76.0019C168.72 75.7247 168.557 74.7236 168.279 74.3223C168.002 73.921 167.204 72.9612 167.204 72.9612C167.204 72.9612 166.129 72.6798 165.612 72.6798C165.096 72.6798 164.777 72.9984 163.664 72.6385C162.551 72.2785 162.748 72.2785 162.391 72.2372C162.034 72.1958 161.593 71.9186 161.593 71.9186C161.593 71.9186 161.156 72.0386 161.114 71.7573C161.076 71.4759 161.232 70.8388 161.513 70.6361C161.513 70.6361 161.79 70.8347 162.11 70.7561C162.429 70.6775 162.706 70.5948 162.866 70.4748C163.025 70.3548 163.622 69.7963 163.622 69.7963L164.138 69.155C164.138 69.155 164.298 68.4766 164.1 67.9967C163.903 67.5168 164.617 66.9169 164.617 67.4382C164.617 67.9594 164.936 68.038 165.134 68.1994C165.331 68.3607 165.852 68.4393 165.852 68.4393C165.852 68.4393 167.364 67.9181 167.96 67.5581C168.557 67.1982 168.678 66.9996 169.355 66.8797C170.035 66.7597 171.265 66.437 172.58 66.3998Z" fill="#FFD4C5"/>
<path d="M567.58 57.3998C569.344 57.346 574.229 57.5611 575.384 59.1994C576.539 60.8377 576.698 62.5959 575.384 63.9984C574.069 65.3967 574.947 65.918 574.468 66.4351C573.989 66.9523 573.922 68.4044 573.086 68.483C572.25 68.5616 572.99 68.4416 573.027 67.6804C573.065 66.9192 572.952 65.4381 572.435 64.2383C571.919 63.0386 571.637 64.1597 570.087 64.6396C568.533 65.1195 565.35 64.1597 565.35 64.1597C565.35 64.1597 564.833 65.4381 564.791 65.8394C564.754 66.2407 564.434 66.3979 564.434 67.1177C564.434 67.8376 564.035 68.2389 564.035 68.2389L563.918 67.9989C563.918 67.9989 563.72 68.3175 563.279 68.4002C563.279 68.4002 563.317 67.2791 563.519 67.0019C563.72 66.7247 563.557 65.7236 563.279 65.3223C563.002 64.921 562.204 63.9612 562.204 63.9612C562.204 63.9612 561.129 63.6798 560.612 63.6798C560.096 63.6798 559.777 63.9984 558.664 63.6385C557.551 63.2785 557.748 63.2785 557.391 63.2372C557.034 63.1958 556.593 62.9186 556.593 62.9186C556.593 62.9186 556.156 63.0386 556.114 62.7573C556.076 62.4759 556.232 61.8388 556.513 61.6361C556.513 61.6361 556.79 61.8347 557.11 61.7561C557.429 61.6775 557.706 61.5948 557.866 61.4748C558.025 61.3548 558.622 60.7963 558.622 60.7963L559.138 60.155C559.138 60.155 559.298 59.4766 559.1 58.9967C558.903 58.5168 559.617 57.9169 559.617 58.4382C559.617 58.9594 559.936 59.038 560.134 59.1994C560.331 59.3607 560.852 59.4393 560.852 59.4393C560.852 59.4393 562.364 58.9181 562.96 58.5581C563.557 58.1982 563.678 57.9996 564.355 57.8797C565.035 57.7597 566.266 57.437 567.58 57.3998Z" fill="#FFD4C5"/>
<g clip-path="url(#clip7_99_512)">
<path d="M146.944 74.4823C145.232 74.4285 140.491 74.6437 139.37 76.2824C138.248 77.9211 138.093 79.6799 139.37 81.0827C140.646 82.4814 139.794 83.0029 140.258 83.5201C140.723 84.0374 140.788 85.4899 141.6 85.5686C142.411 85.6472 141.693 85.5272 141.657 84.7657C141.62 84.0043 141.73 82.5228 142.232 81.3227C142.733 80.1227 143.006 81.2441 144.511 81.7242C146.019 82.2042 149.109 81.2441 149.109 81.2441C149.109 81.2441 149.611 82.5228 149.652 82.9242C149.688 83.3256 149.998 83.4829 149.998 84.2029C149.998 84.923 150.385 85.3244 150.385 85.3244L150.5 85.0844C150.5 85.0844 150.691 85.403 151.119 85.4858C151.119 85.4858 151.083 84.3643 150.887 84.0871C150.691 83.8098 150.85 82.8084 151.119 82.407C151.388 82.0056 152.163 81.0455 152.163 81.0455C152.163 81.0455 153.207 80.7641 153.708 80.7641C154.209 80.7641 154.519 81.0827 155.6 80.7227C156.68 80.3627 156.488 80.3627 156.835 80.3213C157.182 80.2799 157.61 80.0027 157.61 80.0027C157.61 80.0027 158.034 80.1227 158.074 79.8413C158.111 79.5599 157.96 78.9226 157.687 78.7198C157.687 78.7198 157.418 78.9184 157.108 78.8398C156.798 78.7612 156.529 78.6784 156.374 78.5584C156.219 78.4384 155.64 77.8798 155.64 77.8798L155.139 77.2383C155.139 77.2383 154.984 76.5597 155.176 76.0796C155.367 75.5996 154.674 74.9996 154.674 75.521C154.674 76.0424 154.364 76.121 154.173 76.2824C153.981 76.4438 153.476 76.5224 153.476 76.5224C153.476 76.5224 152.008 76.001 151.429 75.641C150.85 75.281 150.732 75.0823 150.076 74.9623C149.415 74.8423 148.221 74.5195 146.944 74.4823Z" fill="#FFD4C5"/>
<path d="M137.991 77.9911C138.044 77.9911 138.093 77.9828 138.142 77.9622C138.285 77.9001 138.362 77.7594 138.35 77.5856C138.334 77.3869 138.212 77.2131 138.053 77.0807C138.114 77.0311 138.183 77.0021 138.26 76.9855C138.603 76.9152 138.974 77.1883 138.978 77.1883C139.015 77.2173 139.068 77.209 139.096 77.1718C139.125 77.1345 139.117 77.0807 139.08 77.0517C139.064 77.0393 138.644 76.729 138.228 76.8159C138.11 76.8407 138.004 76.8945 137.91 76.9773C137.824 76.9276 137.739 76.8862 137.653 76.8572C137.335 76.7497 137.05 76.7952 136.891 76.9773C136.858 77.0145 136.862 77.0683 136.899 77.0973C136.935 77.1304 136.988 77.1262 137.017 77.089C137.131 76.9607 137.347 76.9317 137.6 77.0186C137.665 77.0393 137.73 77.0724 137.796 77.1055C137.771 77.1345 137.751 77.1676 137.73 77.2049C137.514 77.5773 137.637 77.7883 137.702 77.8587C137.775 77.9415 137.885 77.9911 138 77.9911H137.991ZM137.93 77.2007C138.065 77.3083 138.167 77.449 138.179 77.598C138.187 77.6973 138.15 77.7677 138.077 77.8008C137.991 77.838 137.885 77.8132 137.824 77.7428C137.743 77.6476 137.759 77.4821 137.873 77.2876C137.894 77.2545 137.91 77.2255 137.934 77.1966L137.93 77.2007Z" fill="#FFD4C5"/>
</g>
<g clip-path="url(#clip8_99_512)">
<path d="M541.944 65.4823C540.232 65.4285 535.491 65.6437 534.37 67.2824C533.248 68.9211 533.093 70.6799 534.37 72.0827C535.646 73.4814 534.794 74.0029 535.258 74.5201C535.723 75.0374 535.788 76.4899 536.6 76.5686C537.411 76.6472 536.693 76.5272 536.657 75.7657C536.62 75.0043 536.73 73.5228 537.232 72.3227C537.733 71.1227 538.006 72.2441 539.511 72.7242C541.019 73.2042 544.109 72.2441 544.109 72.2441C544.109 72.2441 544.611 73.5228 544.652 73.9242C544.688 74.3256 544.998 74.4829 544.998 75.2029C544.998 75.923 545.385 76.3244 545.385 76.3244L545.5 76.0844C545.5 76.0844 545.691 76.403 546.119 76.4858C546.119 76.4858 546.083 75.3643 545.887 75.0871C545.691 74.8098 545.85 73.8084 546.119 73.407C546.388 73.0056 547.163 72.0455 547.163 72.0455C547.163 72.0455 548.207 71.7641 548.708 71.7641C549.209 71.7641 549.519 72.0827 550.6 71.7227C551.68 71.3627 551.488 71.3627 551.835 71.3213C552.182 71.2799 552.61 71.0027 552.61 71.0027C552.61 71.0027 553.034 71.1227 553.074 70.8413C553.111 70.5599 552.96 69.9226 552.687 69.7198C552.687 69.7198 552.418 69.9184 552.108 69.8398C551.798 69.7612 551.529 69.6784 551.374 69.5584C551.219 69.4384 550.64 68.8798 550.64 68.8798L550.139 68.2383C550.139 68.2383 549.984 67.5597 550.176 67.0796C550.367 66.5996 549.674 65.9996 549.674 66.521C549.674 67.0424 549.364 67.121 549.173 67.2824C548.981 67.4438 548.476 67.5224 548.476 67.5224C548.476 67.5224 547.008 67.001 546.429 66.641C545.85 66.281 545.732 66.0823 545.076 65.9623C544.415 65.8423 543.221 65.5195 541.944 65.4823Z" fill="#FFD4C5"/>
<path d="M532.991 68.9911C533.044 68.9911 533.093 68.9828 533.142 68.9622C533.285 68.9001 533.362 68.7594 533.35 68.5856C533.334 68.3869 533.212 68.2131 533.053 68.0807C533.114 68.0311 533.183 68.0021 533.26 67.9855C533.603 67.9152 533.974 68.1883 533.978 68.1883C534.015 68.2173 534.068 68.209 534.096 68.1718C534.125 68.1345 534.117 68.0807 534.08 68.0517C534.064 68.0393 533.644 67.729 533.228 67.8159C533.11 67.8407 533.004 67.8945 532.91 67.9773C532.824 67.9276 532.739 67.8862 532.653 67.8572C532.335 67.7497 532.05 67.7952 531.891 67.9773C531.858 68.0145 531.862 68.0683 531.899 68.0973C531.935 68.1304 531.988 68.1262 532.017 68.089C532.131 67.9607 532.347 67.9317 532.6 68.0186C532.665 68.0393 532.73 68.0724 532.796 68.1055C532.771 68.1345 532.751 68.1676 532.73 68.2049C532.514 68.5773 532.637 68.7883 532.702 68.8587C532.775 68.9415 532.885 68.9911 533 68.9911H532.991ZM532.93 68.2007C533.065 68.3083 533.167 68.449 533.179 68.598C533.187 68.6973 533.15 68.7677 533.077 68.8008C532.991 68.838 532.885 68.8132 532.824 68.7428C532.743 68.6476 532.759 68.4821 532.873 68.2876C532.894 68.2545 532.91 68.2255 532.934 68.1966L532.93 68.2007Z" fill="#FFD4C5"/>
</g>
<g clip-path="url(#clip9_99_512)">
<path d="M518.078 52.0086C516.366 51.9548 511.625 52.17 510.503 53.8088C509.382 55.4475 509.227 57.2062 510.503 58.6091C511.779 60.0078 510.927 60.5292 511.392 61.0465C511.857 61.5638 511.922 63.0163 512.733 63.0949C513.545 63.1736 512.827 63.0535 512.791 62.2921C512.754 61.5307 512.864 60.0492 513.365 58.8491C513.867 57.649 514.14 58.7705 515.644 59.2505C517.153 59.7306 520.243 58.7705 520.243 58.7705C520.243 58.7705 520.745 60.0492 520.785 60.4506C520.822 60.852 521.132 61.0093 521.132 61.7293C521.132 62.4494 521.519 62.8508 521.519 62.8508L521.633 62.6108C521.633 62.6108 521.825 62.9294 522.253 63.0122C522.253 63.0122 522.216 61.8907 522.021 61.6134C521.825 61.3362 521.984 60.3347 522.253 59.9333C522.522 59.5319 523.297 58.5719 523.297 58.5719C523.297 58.5719 524.34 58.2905 524.842 58.2905C525.343 58.2905 525.653 58.6091 526.734 58.2491C527.814 57.889 527.622 57.889 527.969 57.8477C528.315 57.8063 528.743 57.529 528.743 57.529C528.743 57.529 529.167 57.649 529.208 57.3676C529.245 57.0862 529.094 56.449 528.821 56.2462C528.821 56.2462 528.552 56.4448 528.242 56.3662C527.932 56.2876 527.663 56.2048 527.508 56.0848C527.353 55.9648 526.774 55.4061 526.774 55.4061L526.273 54.7647C526.273 54.7647 526.118 54.086 526.31 53.606C526.501 53.126 525.808 52.5259 525.808 53.0473C525.808 53.5688 525.498 53.6474 525.307 53.8088C525.115 53.9702 524.609 54.0488 524.609 54.0488C524.609 54.0488 523.142 53.5274 522.563 53.1673C521.984 52.8073 521.866 52.6087 521.209 52.4887C520.549 52.3687 519.354 52.0459 518.078 52.0086Z" fill="#FFD4C5"/>
<path d="M509.125 55.5175C509.178 55.5175 509.227 55.5092 509.276 55.4885C509.419 55.4264 509.496 55.2857 509.484 55.1119C509.468 54.9133 509.345 54.7395 509.186 54.6071C509.248 54.5574 509.317 54.5285 509.394 54.5119C509.737 54.4416 510.108 54.7147 510.112 54.7147C510.149 54.7436 510.202 54.7354 510.23 54.6981C510.259 54.6609 510.25 54.6071 510.214 54.5781C510.197 54.5657 509.778 54.2553 509.362 54.3422C509.243 54.3671 509.137 54.4209 509.044 54.5036C508.958 54.454 508.872 54.4126 508.787 54.3836C508.469 54.276 508.183 54.3215 508.024 54.5036C507.992 54.5409 507.996 54.5947 508.033 54.6236C508.069 54.6567 508.122 54.6526 508.151 54.6154C508.265 54.4871 508.481 54.4581 508.734 54.545C508.799 54.5657 508.864 54.5988 508.93 54.6319C508.905 54.6609 508.885 54.694 508.864 54.7312C508.648 55.1037 508.771 55.3147 508.836 55.3851C508.909 55.4678 509.019 55.5175 509.133 55.5175H509.125ZM509.064 54.7271C509.199 54.8347 509.301 54.9754 509.313 55.1244C509.321 55.2237 509.284 55.294 509.211 55.3271C509.125 55.3644 509.019 55.3395 508.958 55.2692C508.877 55.174 508.893 55.0085 509.007 54.814C509.027 54.7809 509.044 54.7519 509.068 54.7229L509.064 54.7271Z" fill="#FFD4C5"/>
</g>
<path d="M368.266 70.0846C368.391 70.4424 368.628 71.2706 368.809 71.7731C368.994 72.2756 369.73 72.6374 369.95 72.7258C370.17 72.8143 370.178 72.6334 370.178 72.6334C370.178 72.6334 370.708 72.9871 370.906 72.951L371.104 72.9108C371.104 72.9108 371.781 73.156 372.551 72.9108C373.322 72.6655 373.34 72.6575 373.516 72.4042C373.697 72.155 373.719 71.8133 373.719 71.8133C373.719 71.8133 373.925 71.7851 374.003 71.5841C374.08 71.3791 374.072 70.8686 374.072 70.8686C374.072 70.8686 374.36 70.7037 374.403 70.4866C374.451 70.2696 374.533 69.9761 374.533 69.9761C374.533 69.9761 375.058 69.956 375.157 69.6866C375.256 69.4173 374.881 69.2404 374.881 69.2404C374.881 69.2404 375.674 68.8103 375.609 68.5932C375.545 68.3761 374.869 68.3198 374.869 68.3198C374.869 68.3198 375.355 67.8414 375.071 67.7289C374.787 67.6163 374.39 67.6927 374.39 67.6927C374.39 67.6927 374.162 67.2866 374.636 67.158C375.11 67.0334 373.955 66.6555 373.262 67.162C372.569 67.6686 372.663 68.6736 372.181 69.0997C371.699 69.5258 370.592 69.2766 370.2 68.955C369.808 68.6334 368.822 68.4806 368.184 68.5047C368.184 68.5047 368.387 68.3761 368.404 68.2113C368.421 68.0464 368.124 68.1992 368.124 68.1992C368.124 68.1992 368.072 67.9379 367.922 68.0143C367.771 68.0907 367.762 68.2354 367.762 68.2354C367.762 68.2354 367.633 68.0263 367.564 68.0866C367.495 68.1469 367.461 68.4444 367.461 68.4444C367.461 68.4444 367.336 68.2997 367.28 68.4726C367.224 68.6454 367.237 68.7258 367.237 68.7258C367.237 68.7258 367.026 68.6535 367.056 68.8223C367.086 68.9912 367.108 69.0474 367.108 69.0474C367.108 69.0474 366.94 69.2203 367.026 69.3409C367.026 69.3409 367.172 69.2324 367.293 69.2404C367.413 69.2525 367.474 69.4897 367.448 69.6103C367.422 69.7309 367.607 69.9238 367.814 69.7067C368.021 69.4897 368.206 69.9077 368.27 70.0887L368.266 70.0846Z" fill="#CE666D"/>
<path d="M372.457 71.9863C372.457 71.9863 372.371 73.0396 372.267 73.329C372.164 73.6185 371.854 73.8275 371.854 73.8275L372.22 73.6426L372.134 73.8476C372.134 73.8476 372.353 73.6225 372.444 73.6386C372.534 73.6547 372.892 73.7471 372.892 73.7471C372.892 73.7471 372.474 73.5702 372.465 73.3652C372.461 73.1602 372.827 72.0225 372.827 72.0225L372.457 71.9863Z" fill="#CE666D"/>
<path d="M372.048 71.958C372.048 71.958 371.72 72.9711 371.552 73.2324C371.384 73.4937 371.035 73.6384 371.035 73.6384L371.436 73.5299L371.303 73.7108C371.303 73.7108 371.565 73.5339 371.651 73.566C371.738 73.5982 372.065 73.763 372.065 73.763C372.065 73.763 371.694 73.5057 371.738 73.3047C371.781 73.1037 372.401 72.0666 372.401 72.0666L372.048 71.958Z" fill="#CE666D"/>
<path d="M402.109 79.9064C402.109 79.9064 402.234 80.9557 402.186 81.2612C402.139 81.5627 401.876 81.824 401.876 81.824L402.199 81.5788L402.152 81.7959C402.152 81.7959 402.32 81.5386 402.415 81.5386C402.509 81.5386 402.875 81.5667 402.875 81.5667C402.875 81.5667 402.427 81.4662 402.38 81.2652C402.333 81.0642 402.47 79.8823 402.47 79.8823L402.1 79.9105L402.109 79.9064Z" fill="#CE666D"/>
<path d="M401.79 79.689C401.79 79.689 401.669 80.7422 401.553 81.0277C401.437 81.3131 401.122 81.5141 401.122 81.5141L401.497 81.3412L401.402 81.5422C401.402 81.5422 401.626 81.3211 401.717 81.3412C401.807 81.3613 402.16 81.4618 402.16 81.4618C402.16 81.4618 401.747 81.2729 401.747 81.0679C401.747 80.8628 402.156 79.7372 402.156 79.7372L401.79 79.693V79.689Z" fill="#CE666D"/>
<path d="M406.269 77.2811C406.282 77.056 405.666 76.7987 405.666 76.7987C405.666 76.7987 406.295 76.4932 406.062 76.3002C405.834 76.1073 405.429 76.059 405.429 76.059C405.429 76.059 405.356 75.6048 405.847 75.6289C406.338 75.653 405.378 74.9495 404.546 75.2188C403.715 75.4882 403.457 76.4691 402.849 76.7264C402.247 76.9837 401.286 76.4128 401.028 75.9907C400.916 75.8058 400.679 75.6128 400.395 75.444C400.352 75.4319 399.744 74.9093 398.965 75.0138C398.719 75.046 398.383 75.2711 398.25 75.5043C398.263 75.5967 398.237 75.7093 398.194 75.7736C398.19 75.7817 398.185 75.7897 398.185 75.8018L398 76.0751L398.392 76.0148C398.392 76.0148 398.409 76.0148 398.422 76.0108H398.439V76.0068C398.461 75.9987 398.487 75.9907 398.513 75.9786C398.78 75.8379 398.814 76.2882 398.814 76.4771C398.81 76.851 398.745 77.7073 398.745 78.2379C398.745 78.7686 399.314 79.3354 399.494 79.4801C399.671 79.6289 399.74 79.4641 399.74 79.4641C399.74 79.4641 400.115 79.9585 400.317 79.9827L400.519 80.0068C400.519 80.0068 401.071 80.445 401.885 80.445C402.699 80.445 402.716 80.445 402.974 80.26C403.233 80.0751 403.371 79.7616 403.371 79.7616C403.371 79.7616 403.573 79.7977 403.719 79.6289C403.866 79.46 404.034 78.9736 404.034 78.9736C404.034 78.9736 404.361 78.9053 404.482 78.7123C404.602 78.5193 404.779 78.2661 404.779 78.2661C404.779 78.2661 405.283 78.4028 405.472 78.1817C405.658 77.9565 405.365 77.6751 405.365 77.6751C405.365 77.6751 406.265 77.5063 406.278 77.2811H406.269Z" fill="#CE666D"/>
<path d="M378.592 78.0266C378.485 78.3884 378.179 79.1964 378.033 79.711C377.886 80.2256 378.274 80.909 378.407 81.0939C378.536 81.2788 378.648 81.1381 378.648 81.1381C378.648 81.1381 378.872 81.709 379.062 81.7813L379.247 81.8537C379.247 81.8537 379.661 82.4085 380.444 82.6095C381.228 82.8105 381.25 82.8105 381.547 82.6939C381.844 82.5813 382.072 82.308 382.072 82.308C382.072 82.308 382.258 82.3924 382.447 82.2638C382.632 82.1351 382.934 81.709 382.934 81.709C382.934 81.709 383.27 81.7251 383.438 81.5683C383.606 81.4115 383.851 81.2105 383.851 81.2105C383.851 81.2105 384.299 81.4678 384.544 81.2949C384.786 81.122 384.583 80.7803 384.583 80.7803C384.583 80.7803 385.501 80.8366 385.574 80.6236C385.647 80.4105 385.126 80.0085 385.126 80.0085C385.126 80.0085 385.819 79.8678 385.651 79.6225C385.483 79.3813 385.109 79.2366 385.109 79.2366C385.109 79.2366 385.165 78.7783 385.634 78.9231C386.104 79.0638 385.371 78.1512 384.493 78.2115C383.614 78.2678 383.089 79.1522 382.434 79.2527C381.779 79.3532 381.013 78.5693 380.879 78.0989C380.75 77.6286 380.018 76.9854 379.475 76.6718C379.475 76.6718 379.717 76.6718 379.833 76.5432C379.945 76.4145 379.609 76.3864 379.609 76.3864C379.609 76.3864 379.721 76.1452 379.553 76.1291C379.385 76.113 379.29 76.2296 379.29 76.2296C379.29 76.2296 379.307 75.9884 379.217 76.0004C379.122 76.0165 378.92 76.2416 378.92 76.2416C378.92 76.2416 378.903 76.0567 378.752 76.1693C378.601 76.2818 378.567 76.3542 378.567 76.3542C378.567 76.3542 378.437 76.1813 378.36 76.3381C378.287 76.4949 378.265 76.5512 378.265 76.5512C378.265 76.5512 378.024 76.6075 378.024 76.7522C378.024 76.7522 378.209 76.7361 378.304 76.8085C378.399 76.8808 378.304 77.106 378.209 77.1944C378.114 77.2788 378.153 77.5361 378.45 77.4638C378.747 77.3914 378.657 77.8336 378.601 78.0185L378.592 78.0266Z" fill="#CE666D"/>
<path d="M381.151 82.0827C381.151 82.0827 381.276 83.132 381.228 83.4375C381.181 83.743 380.918 84.0003 380.918 84.0003L381.241 83.7551L381.194 83.9722C381.194 83.9722 381.362 83.7149 381.456 83.7149C381.551 83.7149 381.917 83.743 381.917 83.743C381.917 83.743 381.469 83.6425 381.422 83.4415C381.375 83.2405 381.512 82.0586 381.512 82.0586L381.142 82.0867L381.151 82.0827Z" fill="#CE666D"/>
<path d="M380.832 81.8657C380.832 81.8657 380.711 82.919 380.595 83.2044C380.479 83.4898 380.164 83.6908 380.164 83.6908L380.539 83.518L380.444 83.719C380.444 83.719 380.668 83.4979 380.759 83.518C380.849 83.5381 381.202 83.6386 381.202 83.6386C381.202 83.6386 380.789 83.4496 380.789 83.2446C380.789 83.0396 381.198 81.914 381.198 81.914L380.828 81.8697L380.832 81.8657Z" fill="#CE666D"/>
<g clip-path="url(#clip10_99_512)">
<path d="M316.383 50.2763C316.324 49.5491 314.99 49.9735 313.961 49.6086C312.932 49.2436 310.934 48.457 309.601 48.1543C309.538 48.1407 309.479 48.1272 309.422 48.1164C309.522 47.7704 309.638 47.2649 309.522 47.0486C309.387 46.7918 308.979 47.5947 308.78 48.0191C308.167 47.9758 308.007 48.1543 307.783 48.3354C307.481 48.5787 306.876 50.0925 306.088 50.033C305.364 49.9762 302.637 50.2141 300.396 50.3979C298.155 50.579 291.615 51.8523 289.677 51.5495C287.738 51.2467 281.563 50.3979 280.17 50.4574C278.777 50.5196 276.779 51.7928 277.019 54.1581C277.262 56.5234 278.35 59.9781 278.534 61.008C278.714 62.038 278.474 64.2816 277.564 65.0088C276.654 65.736 277.686 66.7064 277.929 68.2229C278.172 69.7394 278.231 73.0725 278.717 73.6185C279.2 74.1646 280.777 74.3457 281.08 74.0429C281.382 73.7402 280.232 73.0725 279.808 72.2237C279.527 71.6614 279.619 69.7205 279.781 68.277C280.1 69.5583 280.351 71.3641 280.351 71.8614C280.351 72.4075 280.048 72.9535 281.018 73.1941C281.987 73.4374 282.592 72.9508 282.592 72.9508C282.592 72.9508 281.865 71.9209 281.563 71.3749C281.261 70.8288 281.563 67.858 281.685 66.7064C281.806 65.5548 282.23 65.7981 282.411 64.4033C282.522 63.5437 282.867 62.8003 283.564 61.9731C284.017 62.2596 284.614 62.6678 285.438 63.0706C287.922 64.2843 290.222 64.5249 292.825 64.1627C294.588 63.9167 296.073 63.7815 297.299 63.8707C297.89 65.3737 298.638 67.4282 298.638 68.4067C298.638 69.7394 299.122 69.315 299.243 70.1044C299.365 70.8937 299 72.0453 299.062 72.4075C299.122 72.7724 299.667 73.0752 299.667 73.0752L299.545 74.0456C300.091 74.4106 301.787 74.2889 301.724 74.0456C301.665 73.8024 300.817 72.8319 300.696 72.6508C300.574 72.4697 300.393 70.5288 300.515 69.8016C300.636 69.0744 301.241 68.1634 301.363 66.9524C301.438 66.1847 302.121 64.5952 302.613 63.5301C303.331 63.1841 303.957 62.7462 304.33 62.284C305.359 61.0107 305.299 59.4348 307.419 57.556C309.538 55.6773 309.903 53.6147 311.293 53.5553C312.684 53.4958 313.354 52.7065 313.896 52.5848C314.442 52.4632 315.29 52.5254 315.533 52.2821C315.776 52.0388 316.199 51.4333 316.199 51.4333C316.199 51.4333 316.442 51.0088 316.38 50.2817L316.383 50.2763Z" fill="#AE7407"/>
<path d="M316.383 50.2762C316.324 49.549 314.99 49.9734 313.961 49.6085C313.173 49.33 311.82 48.8056 310.632 48.438C311.018 48.9462 311.582 49.5869 311.51 50.1518C311.388 51.0736 310.078 50.9628 309.466 51.3088C308.715 51.7332 308.467 52.701 308.102 53.4281C307.26 54.8608 305.102 55.296 303.771 54.2986C303.496 54.0931 303.25 53.8363 302.931 53.712C302.559 53.5687 302.143 53.6309 301.743 53.62C300.993 53.6011 300.253 53.3173 299.683 52.828C299.041 52.2766 298.644 51.3169 298.957 50.5681C297.874 50.7168 296.516 50.9304 295.153 51.1223C294.923 51.7521 294.229 52.2198 293.559 52.4604C292.717 52.7631 291.759 52.928 291.156 53.593C290.762 54.0282 290.549 54.6473 290.033 54.9284C289.866 55.0176 289.674 55.069 289.534 55.196C289.323 55.388 289.288 55.6988 289.21 55.9745C289.045 56.5747 288.597 57.1126 288.003 57.2883C287.406 57.464 286.685 57.2099 286.41 56.6531C286.25 56.3287 286.248 55.9529 286.213 55.5961C286.145 54.9149 285.943 54.2499 285.619 53.6471C285.284 53.0226 284.817 52.4577 284.633 51.7738C284.53 51.3899 284.512 51.0871 284.555 50.8493C282.654 50.6168 280.848 50.4303 280.17 50.46C279.084 50.5059 277.629 51.2926 277.157 52.7577C277.159 52.7577 277.162 52.7523 277.167 52.7523C277.316 52.6685 277.483 52.609 277.653 52.6118C278.015 52.6145 278.318 52.8794 278.666 52.9794C279.649 53.2551 280.645 52.1522 281.617 52.4631C282.427 52.7226 282.64 53.7471 282.719 54.5959C282.794 55.4204 282.87 56.2449 282.946 57.0666C283.005 57.71 283.021 58.4615 282.527 58.8778C281.876 59.4266 280.702 59.0454 280.175 59.7158C280.035 59.8915 279.973 60.1159 279.889 60.324C279.635 60.962 279.171 61.5161 278.59 61.8838C278.569 62.9948 278.266 64.4518 277.567 65.0114C276.66 65.7386 277.689 66.709 277.932 68.2255C278.175 69.742 278.234 73.0751 278.72 73.6211C279.203 74.1672 280.78 74.3483 281.082 74.0455C281.385 73.7428 280.235 73.0751 279.811 72.2263C279.53 71.664 279.622 69.7231 279.784 68.2796C280.102 69.5609 280.353 71.3667 280.353 71.864C280.353 72.4101 280.051 72.9561 281.02 73.1967C281.99 73.44 282.595 72.9534 282.595 72.9534C282.595 72.9534 281.868 71.9235 281.566 71.3775C281.263 70.8314 281.566 67.8606 281.687 66.709C281.809 65.5574 282.233 65.8007 282.414 64.4059C282.524 63.5463 282.87 62.8029 283.567 61.9757C284.02 62.2622 284.617 62.6704 285.44 63.0732C287.924 64.2869 290.225 64.5275 292.828 64.1653C294.591 63.9193 296.076 63.7841 297.302 63.8733C297.893 65.3763 298.641 67.4308 298.641 68.4093C298.641 69.742 299.124 69.3176 299.246 70.107C299.367 70.8963 299.003 72.0479 299.065 72.4101C299.124 72.775 299.67 73.0778 299.67 73.0778L299.548 74.0482C300.094 74.4132 301.789 74.2915 301.727 74.0482C301.668 73.8049 300.82 72.8345 300.698 72.6534C300.577 72.4723 300.396 70.5314 300.518 69.8042C300.639 69.077 301.244 68.166 301.365 66.955C301.441 66.1873 302.124 64.5978 302.616 63.5327C303.102 63.2976 303.544 63.0218 303.895 62.7245C303.166 62.2974 302.575 61.6675 302 61.0431C301.608 60.6187 301.201 60.1699 301.068 59.605C300.825 58.5696 301.643 57.5208 302.634 57.1396C303.625 56.7585 304.732 56.8828 305.783 57.0396C306.463 57.1423 307.138 57.1477 307.813 57.1883C309.592 55.4177 309.997 53.6092 311.299 53.5525C312.692 53.493 313.359 52.7037 313.902 52.582C314.447 52.4604 315.295 52.5225 315.538 52.2793C315.781 52.036 316.205 51.4304 316.205 51.4304C316.205 51.4304 316.448 51.006 316.386 50.2789L316.383 50.2762ZM295.56 54.7608C295.29 55.0798 295.023 55.3961 294.753 55.715C294.518 55.9935 294.278 56.2773 293.975 56.4828C293.376 56.8936 292.612 56.9585 291.885 57.0099C291.804 57.0153 291.718 57.0207 291.651 56.9774C291.551 56.9153 291.529 56.7855 291.516 56.6693C291.405 55.5366 291.221 54.2391 292.323 53.5984C292.714 53.3714 293.149 53.2362 293.581 53.101C293.838 53.0199 294.094 52.9415 294.351 52.8604C294.567 52.7929 294.793 52.7253 295.015 52.7712C295.306 52.8307 295.52 53.074 295.714 53.3038C295.819 53.4281 295.925 53.5579 295.971 53.712C296.084 54.0877 295.811 54.4607 295.558 54.7608H295.56Z" fill="#AE7407"/>
</g>
<g clip-path="url(#clip11_99_512)">
<path d="M340.272 65.003C340.429 63.4567 339.119 62.6238 338.207 62.5827C337.294 62.5416 333.243 63.0982 331.971 63.2961C330.699 63.4941 326.027 62.5267 324.632 62.0561C324.34 61.959 323.858 61.9963 323.48 62.1121C323.48 62.1121 323.48 62.1084 323.48 62.1046C323.472 62.1084 323.465 62.1121 323.457 62.1196C323.244 62.1868 323.065 62.2802 322.982 62.3885C321.928 62.9861 320.914 63.5389 320.386 63.8825C319.152 64.6893 317.645 65.6604 317.289 65.9779C316.904 66.3253 315.984 65.7837 315.729 65.7799C315.542 65.7799 315.385 65.7463 315.086 66.0152C314.813 65.8771 314.278 65.6231 314.312 65.8098C314.338 65.9667 314.6 66.1833 314.794 66.3215C314.768 66.3514 314.742 66.3813 314.716 66.4149C314.147 67.1059 313.429 68.316 313.04 68.9174C312.651 69.5187 311.79 69.8325 312.052 70.2359C312.314 70.6355 312.61 70.7588 312.61 70.7588C312.61 70.7588 313.074 70.9007 313.294 70.9306C313.519 70.9605 313.934 70.587 314.263 70.4301C314.596 70.2732 315.254 70.4152 316.002 69.8885C316.747 69.3619 317.764 70.2807 319.616 70.4039C321.467 70.5235 322.07 71.3639 323.113 71.6104C323.293 71.6515 323.499 71.6664 323.723 71.6627C323.992 72.2864 324.269 72.9886 324.307 73.3771C324.385 74.1689 324.782 74.7665 324.864 75.2409C324.943 75.7152 324.823 76.9851 324.744 77.1046C324.666 77.2242 324.108 77.8591 324.067 78.016C324.026 78.1729 325.141 78.255 325.496 78.016L325.418 77.381C325.418 77.381 325.777 77.1831 325.814 76.944C325.855 76.705 325.616 75.9542 325.694 75.4388C325.773 74.9234 326.091 75.1998 326.091 74.3295C326.091 73.6908 326.581 72.3462 326.97 71.3639C327.774 71.3041 328.747 71.3937 329.903 71.5543C331.612 71.7934 333.12 71.6328 334.747 70.8409C335.285 70.5795 335.678 70.3106 335.974 70.1238C336.434 70.6654 336.658 71.151 336.729 71.715C336.849 72.6263 337.126 72.4694 337.204 73.2202C337.283 73.9747 337.481 75.9169 337.283 76.2755C337.085 76.634 336.61 77.3063 336.61 77.3063C336.61 77.3063 337.006 77.6238 337.642 77.4632C338.278 77.3063 338.08 76.9478 338.08 76.5892C338.08 76.2643 338.244 75.084 338.454 74.2473C338.562 75.1923 338.622 76.4622 338.435 76.8283C338.158 77.3848 337.403 77.818 337.601 78.0197C337.799 78.2177 338.831 78.0982 339.149 77.7433C339.467 77.3848 339.508 75.2035 339.666 74.2137C339.823 73.2239 340.5 72.589 339.905 72.1109C339.31 71.6328 339.149 70.1686 339.269 69.4926C339.389 68.8203 340.103 66.5568 340.26 65.0105L340.272 65.003Z" fill="#AE7407"/>
<path d="M314.791 66.325C314.764 66.3549 314.738 66.3848 314.712 66.4184C314.529 66.6425 314.33 66.9152 314.132 67.2102C314.151 67.2065 314.173 67.199 314.192 67.1953C314.66 67.1019 315.06 67.143 315.516 67.2588C315.999 67.3858 316.481 67.5688 316.983 67.5949C317.506 67.6248 318.03 67.4717 318.494 67.2364C319.78 66.5827 320.304 65.3091 320.184 64.0093C318.991 64.7862 317.618 65.6751 317.282 65.9777C316.896 66.325 315.976 65.7834 315.722 65.7797C315.535 65.7797 315.378 65.7461 315.079 66.015C314.805 65.8768 314.271 65.6228 314.304 65.8096C314.33 65.9665 314.592 66.1831 314.787 66.3213L314.791 66.325Z" fill="#AE7407"/>
<path d="M330.542 64.017C331.324 64.7976 331.971 65.7575 332.839 66.4448C333.206 66.7361 333.744 66.9901 334.219 66.8557C334.597 66.7511 334.851 66.4112 335.05 66.0974C335.502 65.3878 335.787 64.5847 336.486 64.0693C336.935 63.7369 337.474 63.5501 337.575 62.9301C337.593 62.8255 337.597 62.7172 337.593 62.6089C336.127 62.7097 333.048 63.1355 331.967 63.3036C331.541 63.3708 330.733 63.3036 329.794 63.1729C330.048 63.5165 330.337 63.819 330.539 64.0245L330.542 64.017Z" fill="#AE7407"/>
<path d="M321.284 63.3559C321.707 63.651 322.137 64.017 322.257 64.5399C322.35 64.947 322.193 65.7127 322.642 65.9256C322.878 66.0377 323.121 65.9518 323.327 65.8173C323.974 65.399 324.415 64.6407 324.838 64.017C325.122 63.6024 325.489 62.9637 325.934 62.4146C325.391 62.2839 324.939 62.1569 324.636 62.0561C324.344 61.959 323.862 61.9963 323.484 62.1121C323.484 62.1121 323.484 62.1084 323.484 62.1046C323.476 62.1084 323.469 62.1121 323.461 62.1196C323.248 62.1868 323.068 62.2802 322.986 62.3885C322.376 62.7321 321.778 63.0645 321.284 63.3484C321.284 63.3484 321.288 63.3521 321.292 63.3559H321.284Z" fill="#AE7407"/>
<path d="M329.312 65.5331C328.952 65.1933 328.388 64.4873 327.83 64.6218C326.865 64.8534 327.576 66.4819 327.759 67.0571C327.815 67.2401 327.868 67.4343 327.916 67.6397C328.066 67.8153 328.223 67.9721 328.373 68.1029C328.683 68.3718 329.098 68.637 329.529 68.5996C330.157 68.5473 330.628 67.8564 330.546 67.2587C330.441 66.5155 329.82 66.0187 329.312 65.5331Z" fill="#AE7407"/>
<path d="M338.835 66.0187C338.476 66.3063 338.087 66.396 337.661 66.5267C337.081 66.706 336.722 67.2513 336.658 67.8415C336.55 68.8611 337.178 70.0675 338.012 70.639C338.525 70.9901 339.078 71.2366 339.55 71.5989C339.254 70.9528 339.183 69.9891 339.273 69.4811C339.393 68.8088 340.107 66.5454 340.264 64.9991C340.275 64.8833 340.279 64.7675 340.275 64.6592C339.677 64.9505 339.385 65.5705 338.831 66.015L338.835 66.0187Z" fill="#AE7407"/>
<path d="M323.723 71.6589C323.876 72.0137 324.034 72.3984 324.146 72.7308C324.183 72.6673 324.221 72.6076 324.258 72.5441C324.853 71.5281 325.474 69.9333 324.782 68.8053C324.019 67.5615 322.328 69.0443 321.299 69.0555C320.906 69.0593 320.469 68.8725 320.121 69.134C319.878 69.317 319.732 69.6345 319.612 69.9034C319.541 70.0602 319.477 70.2246 319.418 70.3852C319.481 70.3927 319.549 70.3964 319.612 70.4001C321.464 70.5197 322.066 71.3601 323.11 71.6066C323.289 71.6477 323.495 71.6626 323.719 71.6589H323.723Z" fill="#AE7407"/>
</g>
<g clip-path="url(#clip12_99_512)">
<path d="M667.272 54.003C667.429 52.4567 666.119 51.6238 665.207 51.5827C664.294 51.5416 660.243 52.0982 658.971 52.2961C657.699 52.4941 653.027 51.5267 651.632 51.0561C651.34 50.959 650.858 50.9963 650.48 51.1121C650.48 51.1121 650.48 51.1084 650.48 51.1046C650.472 51.1084 650.465 51.1121 650.457 51.1196C650.244 51.1868 650.065 51.2802 649.982 51.3885C648.928 51.9861 647.914 52.5389 647.386 52.8825C646.152 53.6893 644.645 54.6604 644.289 54.9779C643.904 55.3253 642.984 54.7837 642.729 54.7799C642.542 54.7799 642.385 54.7463 642.086 55.0152C641.813 54.8771 641.278 54.6231 641.312 54.8098C641.338 54.9667 641.6 55.1833 641.794 55.3215C641.768 55.3514 641.742 55.3813 641.716 55.4149C641.147 56.1059 640.429 57.316 640.04 57.9174C639.651 58.5187 638.79 58.8325 639.052 59.2359C639.314 59.6355 639.61 59.7588 639.61 59.7588C639.61 59.7588 640.074 59.9007 640.294 59.9306C640.519 59.9605 640.934 59.587 641.263 59.4301C641.596 59.2732 642.254 59.4152 643.002 58.8885C643.747 58.3619 644.764 59.2807 646.616 59.4039C648.467 59.5235 649.07 60.3639 650.113 60.6104C650.293 60.6515 650.499 60.6664 650.723 60.6627C650.992 61.2864 651.269 61.9886 651.307 62.3771C651.385 63.1689 651.782 63.7665 651.864 64.2409C651.943 64.7152 651.823 65.9851 651.744 66.1046C651.666 66.2242 651.108 66.8591 651.067 67.016C651.026 67.1729 652.141 67.255 652.496 67.016L652.418 66.381C652.418 66.381 652.777 66.1831 652.814 65.944C652.855 65.705 652.616 64.9542 652.694 64.4388C652.773 63.9234 653.091 64.1998 653.091 63.3295C653.091 62.6908 653.581 61.3462 653.97 60.3639C654.774 60.3041 655.747 60.3937 656.903 60.5543C658.612 60.7934 660.12 60.6328 661.747 59.8409C662.285 59.5795 662.678 59.3106 662.974 59.1238C663.434 59.6654 663.658 60.151 663.729 60.715C663.849 61.6263 664.126 61.4694 664.204 62.2202C664.283 62.9747 664.481 64.9169 664.283 65.2755C664.085 65.634 663.61 66.3063 663.61 66.3063C663.61 66.3063 664.006 66.6238 664.642 66.4632C665.278 66.3063 665.08 65.9478 665.08 65.5892C665.08 65.2643 665.244 64.084 665.454 63.2473C665.562 64.1923 665.622 65.4622 665.435 65.8283C665.158 66.3848 664.403 66.818 664.601 67.0197C664.799 67.2177 665.831 67.0982 666.149 66.7433C666.467 66.3848 666.508 64.2035 666.666 63.2137C666.823 62.2239 667.5 61.589 666.905 61.1109C666.31 60.6328 666.149 59.1686 666.269 58.4926C666.389 57.8203 667.103 55.5568 667.26 54.0105L667.272 54.003Z" fill="#AE7407"/>
<path d="M641.79 55.325C641.764 55.3549 641.738 55.3848 641.712 55.4184C641.529 55.6425 641.33 55.9152 641.132 56.2102C641.151 56.2065 641.173 56.199 641.192 56.1953C641.66 56.1019 642.06 56.143 642.516 56.2588C642.999 56.3858 643.481 56.5688 643.982 56.5949C644.506 56.6248 645.03 56.4717 645.494 56.2364C646.78 55.5827 647.304 54.3091 647.184 53.0093C645.991 53.7862 644.618 54.6751 644.282 54.9777C643.896 55.325 642.976 54.7834 642.722 54.7797C642.535 54.7797 642.378 54.7461 642.079 55.015C641.805 54.8768 641.271 54.6228 641.304 54.8096C641.33 54.9665 641.592 55.1831 641.787 55.3213L641.79 55.325Z" fill="#AE7407"/>
<path d="M657.542 53.017C658.324 53.7976 658.971 54.7575 659.839 55.4448C660.206 55.7361 660.744 55.9901 661.219 55.8557C661.597 55.7511 661.851 55.4112 662.05 55.0974C662.502 54.3878 662.787 53.5847 663.486 53.0693C663.935 52.7369 664.474 52.5501 664.575 51.9301C664.593 51.8255 664.597 51.7172 664.593 51.6089C663.127 51.7097 660.048 52.1355 658.967 52.3036C658.541 52.3708 657.733 52.3036 656.794 52.1729C657.048 52.5165 657.337 52.819 657.539 53.0245L657.542 53.017Z" fill="#AE7407"/>
<path d="M648.284 52.3559C648.707 52.651 649.137 53.017 649.257 53.5399C649.35 53.947 649.193 54.7127 649.642 54.9256C649.878 55.0377 650.121 54.9518 650.327 54.8173C650.974 54.399 651.415 53.6407 651.838 53.017C652.122 52.6024 652.489 51.9637 652.934 51.4146C652.391 51.2839 651.939 51.1569 651.636 51.0561C651.344 50.959 650.861 50.9963 650.484 51.1121C650.484 51.1121 650.484 51.1084 650.484 51.1046C650.476 51.1084 650.469 51.1121 650.461 51.1196C650.248 51.1868 650.068 51.2802 649.986 51.3885C649.376 51.7321 648.778 52.0645 648.284 52.3484C648.284 52.3484 648.288 52.3521 648.292 52.3559H648.284Z" fill="#AE7407"/>
<path d="M656.312 54.5331C655.952 54.1933 655.388 53.4873 654.83 53.6218C653.865 53.8534 654.576 55.4819 654.759 56.0571C654.815 56.2401 654.868 56.4343 654.916 56.6397C655.066 56.8153 655.223 56.9721 655.373 57.1029C655.683 57.3718 656.098 57.637 656.529 57.5996C657.157 57.5473 657.628 56.8564 657.546 56.2587C657.441 55.5155 656.82 55.0187 656.312 54.5331Z" fill="#AE7407"/>
<path d="M665.835 55.0187C665.476 55.3063 665.087 55.396 664.661 55.5267C664.081 55.706 663.722 56.2513 663.658 56.8415C663.55 57.8611 664.178 59.0675 665.012 59.639C665.525 59.9901 666.078 60.2366 666.55 60.5989C666.254 59.9528 666.183 58.9891 666.273 58.4811C666.393 57.8088 667.107 55.5454 667.264 53.9991C667.275 53.8833 667.279 53.7675 667.275 53.6592C666.677 53.9505 666.385 54.5705 665.831 55.015L665.835 55.0187Z" fill="#AE7407"/>
<path d="M650.723 60.6589C650.876 61.0137 651.034 61.3984 651.146 61.7308C651.183 61.6673 651.221 61.6076 651.258 61.5441C651.853 60.5281 652.474 58.9333 651.782 57.8053C651.019 56.5615 649.328 58.0443 648.299 58.0555C647.906 58.0593 647.469 57.8725 647.121 58.134C646.878 58.317 646.732 58.6345 646.612 58.9034C646.541 59.0602 646.478 59.2246 646.418 59.3852C646.481 59.3927 646.549 59.3964 646.612 59.4001C648.464 59.5197 649.066 60.3601 650.11 60.6066C650.289 60.6477 650.495 60.6626 650.719 60.6589H650.723Z" fill="#AE7407"/>
</g>
<g clip-path="url(#clip13_99_512)">
<path d="M605.011 47.003C604.854 45.4567 606.163 44.6238 607.076 44.5827C607.989 44.5416 612.04 45.0982 613.312 45.2961C614.584 45.4941 619.256 44.5267 620.651 44.0561C620.943 43.959 621.425 43.9963 621.803 44.1121C621.803 44.1121 621.803 44.1084 621.803 44.1046C621.81 44.1084 621.818 44.1121 621.825 44.1196C622.039 44.1868 622.218 44.2802 622.3 44.3885C623.355 44.9861 624.369 45.5389 624.896 45.8825C626.131 46.6893 627.638 47.6604 627.994 47.9779C628.379 48.3253 629.299 47.7837 629.553 47.7799C629.741 47.7799 629.898 47.7463 630.197 48.0152C630.47 47.8771 631.005 47.6231 630.971 47.8098C630.945 47.9667 630.683 48.1833 630.489 48.3215C630.515 48.3514 630.541 48.3813 630.567 48.4149C631.136 49.1059 631.854 50.316 632.243 50.9174C632.632 51.5187 633.492 51.8325 633.231 52.2359C632.969 52.6355 632.673 52.7588 632.673 52.7588C632.673 52.7588 632.209 52.9007 631.989 52.9306C631.764 52.9605 631.349 52.587 631.02 52.4301C630.687 52.2732 630.029 52.4152 629.28 51.8885C628.536 51.3619 627.519 52.2807 625.667 52.4039C623.815 52.5235 623.213 53.3639 622.169 53.6104C621.99 53.6515 621.784 53.6664 621.56 53.6627C621.29 54.2864 621.014 54.9886 620.976 55.3771C620.898 56.1689 620.501 56.7665 620.419 57.2409C620.34 57.7152 620.46 58.9851 620.539 59.1046C620.617 59.2242 621.174 59.8591 621.216 60.016C621.257 60.1729 620.142 60.255 619.787 60.016L619.865 59.381C619.865 59.381 619.506 59.1831 619.469 58.944C619.428 58.705 619.667 57.9542 619.588 57.4388C619.51 56.9234 619.192 57.1998 619.192 56.3295C619.192 55.6908 618.702 54.3462 618.313 53.3639C617.509 53.3041 616.536 53.3937 615.38 53.5543C613.671 53.7934 612.163 53.6328 610.536 52.8409C609.998 52.5795 609.605 52.3106 609.309 52.1238C608.849 52.6654 608.625 53.151 608.554 53.715C608.434 54.6263 608.157 54.4694 608.079 55.2202C608 55.9747 607.802 57.9169 608 58.2755C608.198 58.634 608.673 59.3063 608.673 59.3063C608.673 59.3063 608.277 59.6238 607.641 59.4632C607.005 59.3063 607.203 58.9478 607.203 58.5892C607.203 58.2643 607.039 57.084 606.829 56.2473C606.721 57.1923 606.661 58.4622 606.848 58.8283C607.125 59.3848 607.88 59.818 607.682 60.0197C607.484 60.2177 606.451 60.0982 606.133 59.7433C605.815 59.3848 605.774 57.2035 605.617 56.2137C605.46 55.2239 604.783 54.589 605.378 54.1109C605.973 53.6328 606.133 52.1686 606.014 51.4926C605.894 50.8203 605.18 48.5568 605.022 47.0105L605.011 47.003Z" fill="#AE7407"/>
<path d="M630.492 48.325C630.519 48.3549 630.545 48.3848 630.571 48.4184C630.754 48.6425 630.952 48.9152 631.151 49.2102C631.132 49.2065 631.11 49.199 631.091 49.1953C630.623 49.1019 630.223 49.143 629.767 49.2588C629.284 49.3858 628.802 49.5688 628.3 49.5949C627.777 49.6248 627.253 49.4717 626.789 49.2364C625.502 48.5827 624.979 47.3091 625.098 46.0093C626.292 46.7862 627.664 47.6751 628.001 47.9777C628.386 48.325 629.307 47.7834 629.561 47.7797C629.748 47.7797 629.905 47.7461 630.204 48.015C630.477 47.8768 631.012 47.6228 630.979 47.8096C630.952 47.9665 630.691 48.1831 630.496 48.3213L630.492 48.325Z" fill="#AE7407"/>
<path d="M614.741 46.017C613.959 46.7976 613.312 47.7575 612.444 48.4448C612.077 48.7361 611.539 48.9901 611.064 48.8557C610.686 48.7511 610.431 48.4112 610.233 48.0974C609.781 47.3878 609.496 46.5847 608.797 46.0693C608.348 45.7369 607.809 45.5501 607.708 44.9301C607.69 44.8255 607.686 44.7172 607.69 44.6089C609.156 44.7097 612.234 45.1355 613.315 45.3036C613.742 45.3708 614.55 45.3036 615.489 45.1729C615.234 45.5165 614.946 45.819 614.744 46.0245L614.741 46.017Z" fill="#AE7407"/>
<path d="M623.999 45.3559C623.576 45.651 623.146 46.017 623.026 46.5399C622.933 46.947 623.09 47.7127 622.641 47.9256C622.405 48.0377 622.162 47.9518 621.956 47.8173C621.309 47.399 620.868 46.6407 620.445 46.017C620.161 45.6024 619.794 44.9637 619.349 44.4146C619.891 44.2839 620.344 44.1569 620.647 44.0561C620.939 43.959 621.421 43.9963 621.799 44.1121C621.799 44.1121 621.799 44.1084 621.799 44.1046C621.807 44.1084 621.814 44.1121 621.822 44.1196C622.035 44.1868 622.214 44.2802 622.297 44.3885C622.906 44.7321 623.505 45.0645 623.999 45.3484C623.999 45.3484 623.995 45.3521 623.991 45.3559H623.999Z" fill="#AE7407"/>
<path d="M615.971 47.5331C616.33 47.1933 616.895 46.4873 617.453 46.6218C618.418 46.8534 617.707 48.4819 617.524 49.0571C617.468 49.2401 617.415 49.4343 617.367 49.6397C617.217 49.8153 617.06 49.9721 616.91 50.1029C616.6 50.3718 616.184 50.637 615.754 50.5996C615.126 50.5473 614.655 49.8564 614.737 49.2587C614.842 48.5155 615.463 48.0187 615.971 47.5331Z" fill="#AE7407"/>
<path d="M606.448 48.0187C606.807 48.3063 607.196 48.396 607.622 48.5267C608.202 48.706 608.561 49.2513 608.625 49.8415C608.733 50.8611 608.105 52.0675 607.271 52.639C606.758 52.9901 606.204 53.2366 605.733 53.5989C606.029 52.9528 606.1 51.9891 606.01 51.4811C605.89 50.8088 605.176 48.5454 605.019 46.9991C605.007 46.8833 605.004 46.7675 605.007 46.6592C605.606 46.9505 605.898 47.5705 606.451 48.015L606.448 48.0187Z" fill="#AE7407"/>
<path d="M621.56 53.6589C621.406 54.0137 621.249 54.3984 621.137 54.7308C621.1 54.6673 621.062 54.6076 621.025 54.5441C620.43 53.5281 619.809 51.9333 620.501 50.8053C621.264 49.5615 622.955 51.0443 623.984 51.0555C624.376 51.0593 624.814 50.8725 625.162 51.134C625.405 51.317 625.551 51.6345 625.671 51.9034C625.742 52.0602 625.805 52.2246 625.865 52.3852C625.802 52.3927 625.734 52.3964 625.671 52.4001C623.819 52.5197 623.217 53.3601 622.173 53.6066C621.994 53.6477 621.788 53.6626 621.563 53.6589H621.56Z" fill="#AE7407"/>
</g>
<g clip-path="url(#clip14_99_512)">
<path d="M623.011 73.003C622.854 71.4567 624.163 70.6238 625.076 70.5827C625.989 70.5416 630.04 71.0982 631.312 71.2961C632.584 71.4941 637.256 70.5267 638.651 70.0561C638.943 69.959 639.425 69.9963 639.803 70.1121C639.803 70.1121 639.803 70.1084 639.803 70.1046C639.81 70.1084 639.818 70.1121 639.825 70.1196C640.039 70.1868 640.218 70.2802 640.3 70.3885C641.355 70.9861 642.369 71.5389 642.896 71.8825C644.131 72.6893 645.638 73.6604 645.994 73.9779C646.379 74.3253 647.299 73.7837 647.553 73.7799C647.741 73.7799 647.898 73.7463 648.197 74.0152C648.47 73.8771 649.005 73.6231 648.971 73.8098C648.945 73.9667 648.683 74.1833 648.489 74.3215C648.515 74.3514 648.541 74.3813 648.567 74.4149C649.136 75.1059 649.854 76.316 650.243 76.9174C650.632 77.5187 651.492 77.8325 651.231 78.2359C650.969 78.6355 650.673 78.7588 650.673 78.7588C650.673 78.7588 650.209 78.9007 649.989 78.9306C649.764 78.9605 649.349 78.587 649.02 78.4301C648.687 78.2732 648.029 78.4152 647.28 77.8885C646.536 77.3619 645.519 78.2807 643.667 78.4039C641.815 78.5235 641.213 79.3639 640.169 79.6104C639.99 79.6515 639.784 79.6664 639.56 79.6627C639.29 80.2864 639.014 80.9886 638.976 81.3771C638.898 82.1689 638.501 82.7665 638.419 83.2409C638.34 83.7152 638.46 84.9851 638.539 85.1046C638.617 85.2242 639.174 85.8591 639.216 86.016C639.257 86.1729 638.142 86.255 637.787 86.016L637.865 85.381C637.865 85.381 637.506 85.1831 637.469 84.944C637.428 84.705 637.667 83.9542 637.588 83.4388C637.51 82.9234 637.192 83.1998 637.192 82.3295C637.192 81.6908 636.702 80.3462 636.313 79.3639C635.509 79.3041 634.536 79.3937 633.38 79.5543C631.671 79.7934 630.163 79.6328 628.536 78.8409C627.998 78.5795 627.605 78.3106 627.309 78.1238C626.849 78.6654 626.625 79.151 626.554 79.715C626.434 80.6263 626.157 80.4694 626.079 81.2202C626 81.9747 625.802 83.9169 626 84.2755C626.198 84.634 626.673 85.3063 626.673 85.3063C626.673 85.3063 626.277 85.6238 625.641 85.4632C625.005 85.3063 625.203 84.9478 625.203 84.5892C625.203 84.2643 625.039 83.084 624.829 82.2473C624.721 83.1923 624.661 84.4622 624.848 84.8283C625.125 85.3848 625.88 85.818 625.682 86.0197C625.484 86.2177 624.451 86.0982 624.133 85.7433C623.815 85.3848 623.774 83.2035 623.617 82.2137C623.46 81.2239 622.783 80.589 623.378 80.1109C623.973 79.6328 624.133 78.1686 624.014 77.4926C623.894 76.8203 623.18 74.5568 623.022 73.0105L623.011 73.003Z" fill="#AE7407"/>
<path d="M648.492 74.325C648.519 74.3549 648.545 74.3848 648.571 74.4184C648.754 74.6425 648.952 74.9152 649.151 75.2102C649.132 75.2065 649.11 75.199 649.091 75.1953C648.623 75.1019 648.223 75.143 647.767 75.2588C647.284 75.3858 646.802 75.5688 646.3 75.5949C645.777 75.6248 645.253 75.4717 644.789 75.2364C643.502 74.5827 642.979 73.3091 643.098 72.0093C644.292 72.7862 645.664 73.6751 646.001 73.9777C646.386 74.325 647.307 73.7834 647.561 73.7797C647.748 73.7797 647.905 73.7461 648.204 74.015C648.477 73.8768 649.012 73.6228 648.979 73.8096C648.952 73.9665 648.691 74.1831 648.496 74.3213L648.492 74.325Z" fill="#AE7407"/>
<path d="M632.741 72.017C631.959 72.7976 631.312 73.7575 630.444 74.4448C630.077 74.7361 629.539 74.9901 629.064 74.8557C628.686 74.7511 628.431 74.4112 628.233 74.0974C627.781 73.3878 627.496 72.5847 626.797 72.0693C626.348 71.7369 625.809 71.5501 625.708 70.9301C625.69 70.8255 625.686 70.7172 625.69 70.6089C627.156 70.7097 630.234 71.1355 631.315 71.3036C631.742 71.3708 632.55 71.3036 633.489 71.1729C633.234 71.5165 632.946 71.819 632.744 72.0245L632.741 72.017Z" fill="#AE7407"/>
<path d="M641.999 71.3559C641.576 71.651 641.146 72.017 641.026 72.5399C640.933 72.947 641.09 73.7127 640.641 73.9256C640.405 74.0377 640.162 73.9518 639.956 73.8173C639.309 73.399 638.868 72.6407 638.445 72.017C638.161 71.6024 637.794 70.9637 637.349 70.4146C637.891 70.2839 638.344 70.1569 638.647 70.0561C638.939 69.959 639.421 69.9963 639.799 70.1121C639.799 70.1121 639.799 70.1084 639.799 70.1046C639.807 70.1084 639.814 70.1121 639.822 70.1196C640.035 70.1868 640.214 70.2802 640.297 70.3885C640.906 70.7321 641.505 71.0645 641.999 71.3484C641.999 71.3484 641.995 71.3521 641.991 71.3559H641.999Z" fill="#AE7407"/>
<path d="M633.971 73.5331C634.33 73.1933 634.895 72.4873 635.453 72.6218C636.418 72.8534 635.707 74.4819 635.524 75.0571C635.468 75.2401 635.415 75.4343 635.367 75.6397C635.217 75.8153 635.06 75.9721 634.91 76.1029C634.6 76.3718 634.184 76.637 633.754 76.5996C633.126 76.5473 632.655 75.8564 632.737 75.2587C632.842 74.5155 633.463 74.0187 633.971 73.5331Z" fill="#AE7407"/>
<path d="M624.448 74.0187C624.807 74.3063 625.196 74.396 625.622 74.5267C626.202 74.706 626.561 75.2513 626.625 75.8415C626.733 76.8611 626.105 78.0675 625.271 78.639C624.758 78.9901 624.204 79.2366 623.733 79.5989C624.029 78.9528 624.1 77.9891 624.01 77.4811C623.89 76.8088 623.176 74.5454 623.019 72.9991C623.007 72.8833 623.004 72.7675 623.007 72.6592C623.606 72.9505 623.898 73.5705 624.451 74.015L624.448 74.0187Z" fill="#AE7407"/>
<path d="M639.56 79.6589C639.406 80.0137 639.249 80.3984 639.137 80.7308C639.1 80.6673 639.062 80.6076 639.025 80.5441C638.43 79.5281 637.809 77.9333 638.501 76.8053C639.264 75.5615 640.955 77.0443 641.984 77.0555C642.376 77.0593 642.814 76.8725 643.162 77.134C643.405 77.317 643.551 77.6345 643.671 77.9034C643.742 78.0602 643.805 78.2246 643.865 78.3852C643.802 78.3927 643.734 78.3964 643.671 78.4001C641.819 78.5197 641.217 79.3601 640.173 79.6066C639.994 79.6477 639.788 79.6626 639.563 79.6589H639.56Z" fill="#AE7407"/>
</g>
<defs>
<clipPath id="clip0_99_512">
<rect width="75" height="17" fill="white" transform="translate(715.616 20.1416)"/>
</clipPath>
<clipPath id="clip1_99_512">
<rect width="60" height="40" fill="white" transform="translate(812)"/>
</clipPath>
<clipPath id="clip2_99_512">
<rect width="60" height="40" fill="white" transform="matrix(-1 0 0 1 365 0)"/>
</clipPath>
<clipPath id="clip3_99_512">
<rect width="146.465" height="29.2929" fill="white" transform="translate(138 8)"/>
</clipPath>
<clipPath id="clip4_99_512">
<rect width="146.465" height="29.2929" fill="white" transform="translate(561 8)"/>
</clipPath>
<clipPath id="clip5_99_512">
<rect width="18.3896" height="9.65626" fill="white" transform="translate(71 54)"/>
</clipPath>
<clipPath id="clip6_99_512">
<rect width="18.3896" height="9.65626" fill="white" transform="translate(558 73)"/>
</clipPath>
<clipPath id="clip7_99_512">
<rect width="21.2121" height="11.1111" fill="white" transform="matrix(-1 0 0 1 158.078 74.4736)"/>
</clipPath>
<clipPath id="clip8_99_512">
<rect width="21.2121" height="11.1111" fill="white" transform="matrix(-1 0 0 1 553.078 65.4736)"/>
</clipPath>
<clipPath id="clip9_99_512">
<rect width="21.2121" height="11.1111" fill="white" transform="matrix(-1 0 0 1 529.212 52)"/>
</clipPath>
<clipPath id="clip10_99_512">
<rect width="39.3939" height="27.2727" fill="white" transform="translate(277 47)"/>
</clipPath>
<clipPath id="clip11_99_512">
<rect width="28.2828" height="16.1616" fill="white" transform="translate(312 62)"/>
</clipPath>
<clipPath id="clip12_99_512">
<rect width="28.2828" height="16.1616" fill="white" transform="translate(639 51)"/>
</clipPath>
<clipPath id="clip13_99_512">
<rect width="28.2828" height="16.1616" fill="white" transform="matrix(-1 0 0 1 633.283 44)"/>
</clipPath>
<clipPath id="clip14_99_512">
<rect width="28.2828" height="16.1616" fill="white" transform="matrix(-1 0 0 1 651.283 70)"/>
</clipPath>
</defs>
</svg>
