<svg width="1920" height="175" viewBox="0 0 1920 175" fill="none" xmlns="http://www.w3.org/2000/svg">
<rect y="95" width="1920" height="80" fill="#2FAE29"/>
<g clip-path="url(#clip0_105_1119)">
<path d="M1570.83 2.479H1564.44V97.27H1570.83V2.479Z" fill="#93B1BF"/>
<path d="M1570.83 20.2134H1564.44V97.2598H1570.83V20.2134Z" fill="#E5DDDB"/>
<path d="M1657.8 2.479H1651.4V97.27H1657.8V2.479Z" fill="#B3C9D1"/>
<path d="M1620.64 47.5557H1614.24V98.0002H1620.64V47.5557Z" fill="#B3C9D1"/>
<path d="M1620.64 65.2998H1614.24V97.9998H1620.64V65.2998Z" fill="#E5DDDB"/>
<path d="M1695.5 47.5557H1689.1V98.0002H1695.5V47.5557Z" fill="#B3C9D1"/>
<path d="M1695.5 65.2998H1689.1V97.9998H1695.5V65.2998Z" fill="#E5DDDB"/>
<path d="M1690.83 75.147H1617.97V82.0449H1690.83V75.147Z" fill="#E5DDDB"/>
<path d="M1682.87 78.7158H1676.47V97.9299H1682.87V78.7158Z" fill="#E5DDDB"/>
<path d="M1670.42 78.7158H1664.02V97.9299H1670.42V78.7158Z" fill="#E5DDDB"/>
<path d="M1657.98 78.7158H1651.58V97.9299H1657.98V78.7158Z" fill="#E5DDDB"/>
<path d="M1645.53 78.7158H1639.13V97.9299H1645.53V78.7158Z" fill="#E5DDDB"/>
<path d="M1633.08 78.7158H1626.68V97.9299H1633.08V78.7158Z" fill="#E5DDDB"/>
<path d="M1660.35 0H1559L1571.78 14.4756H1673.12L1660.35 0Z" fill="#2FAE29"/>
<path d="M1604.65 51.7242H1706L1693.46 37.5186H1592.12L1604.65 51.7242Z" fill="#2FAE29"/>
<path d="M1575.32 18.4941L1588.57 33.4995H1689.92L1676.67 18.4941H1575.32Z" fill="#2FAE29"/>
<path d="M1673.12 14.4756H1571.78L1575.32 18.4944H1676.67L1673.12 14.4756Z" fill="#388159"/>
<path d="M1592.12 37.5183H1693.46L1689.92 33.4995H1588.57L1592.12 37.5183Z" fill="#388159"/>
</g>
<g clip-path="url(#clip1_105_1119)">
<path d="M260.398 72.9727H250.379V95.293H260.398V72.9727Z" fill="#C67C57"/>
<path d="M295.502 72.9727H285.483V95.293H295.502V72.9727Z" fill="#C67C57"/>
<path d="M400.619 72.9727H390.6V95.293H400.619V72.9727Z" fill="#C67C57"/>
<path d="M540.011 72.9727H529.992V95.293H540.011V72.9727Z" fill="#C67C57"/>
<path d="M583.891 72.9727H573.872V95.293H583.891V72.9727Z" fill="#C67C57"/>
<path d="M270.003 53.4L269.564 52.5081L255.718 24.4028L244.674 46.7955L241.847 52.5081L228 80.6375H255.718H283.435L270.003 53.4Z" fill="#52D1C1"/>
<path d="M244.674 46.7955L241.847 52.5081L228 80.6375H255.718V45.518V24.4028L244.674 46.7955Z" fill="#66E8A1"/>
<path d="M549.786 53.4L549.348 52.5081L535.477 24.4028L524.434 46.7955L521.63 52.5081L507.784 80.6375H535.477H563.194L549.786 53.4Z" fill="#52D1C1"/>
<path d="M524.434 46.7955L521.63 52.5081L507.784 80.6375H535.477V45.518V24.4028L524.434 46.7955Z" fill="#66E8A1"/>
<path d="M594.373 50.9416L593.886 49.9533L578.772 19.293L566.729 43.7345L563.657 49.9533L548.543 80.6377H578.772H609L594.373 50.9416Z" fill="#52D1C1"/>
<path d="M566.729 43.7345L563.657 49.9533L548.543 80.6377H578.772V42.3123V19.293L566.729 43.7345Z" fill="#66E8A1"/>
<path d="M302.182 61.1374L301.865 60.5107L291.967 40.3838L284.045 56.413L282.046 60.5107L272.124 80.6375H291.967H311.786L302.182 61.1374Z" fill="#52D1C1"/>
<path d="M284.045 56.413L282.046 60.5107L272.124 80.6375H291.967V55.4729V40.3838L284.045 56.413Z" fill="#66E8A1"/>
<path d="M407.25 57.4738L406.884 56.7266L395.11 32.8154L385.7 51.8576L383.311 56.7266L371.536 80.6378H395.11H418.658L407.25 57.4738Z" fill="#52D1C1"/>
<path d="M385.7 51.8576L383.311 56.7266L371.536 80.6378H395.11V50.7729V32.8154L385.7 51.8576Z" fill="#66E8A1"/>
</g>
<rect x="40" y="95" width="40" height="80" fill="#2F9A29"/>
<rect x="240" y="95" width="40" height="80" fill="#2F9A29"/>
<rect x="440" y="95" width="40" height="80" fill="#2F9A29"/>
<rect x="640" y="95" width="40" height="80" fill="#2F9A29"/>
<rect x="840" y="95" width="40" height="80" fill="#2F9A29"/>
<rect x="1040" y="95" width="40" height="80" fill="#2F9A29"/>
<rect x="1240" y="95" width="40" height="80" fill="#2F9A29"/>
<rect x="1440" y="95" width="40" height="80" fill="#2F9A29"/>
<rect x="1640" y="95" width="40" height="80" fill="#2F9A29"/>
<rect x="1840" y="95" width="40" height="80" fill="#2F9A29"/>
<path d="M556.236 135.372C557.212 135.372 558.003 134.532 558.003 133.496C558.003 132.461 557.212 131.621 556.236 131.621C555.26 131.621 554.469 132.461 554.469 133.496C554.469 134.532 555.26 135.372 556.236 135.372Z" fill="white"/>
<path d="M560.814 140.764C561.79 140.764 562.581 139.924 562.581 138.889C562.581 137.853 561.79 137.013 560.814 137.013C559.838 137.013 559.047 137.853 559.047 138.889C559.047 139.924 559.838 140.764 560.814 140.764Z" fill="white"/>
<path d="M566.557 135.479C567.532 135.479 568.324 134.639 568.324 133.603C568.324 132.568 567.532 131.728 566.557 131.728C565.581 131.728 564.79 132.568 564.79 133.603C564.79 134.639 565.581 135.479 566.557 135.479Z" fill="white"/>
<path d="M579.206 130.875C579.206 131.92 578.403 132.751 577.439 132.751C576.475 132.751 575.672 131.898 575.672 130.875C575.672 129.852 576.475 129 577.439 129C578.403 129 579.206 129.852 579.206 130.875Z" fill="white"/>
<path d="M548.767 140.508C549.743 140.508 550.534 139.668 550.534 138.633C550.534 137.597 549.743 136.757 548.767 136.757C547.791 136.757 547 137.597 547 138.633C547 139.668 547.791 140.508 548.767 140.508Z" fill="white"/>
<path d="M571.938 142.66C572.914 142.66 573.705 141.821 573.705 140.785C573.705 139.749 572.914 138.91 571.938 138.91C570.962 138.91 570.171 139.749 570.171 140.785C570.171 141.821 570.962 142.66 571.938 142.66Z" fill="white"/>
<path d="M586.655 141.851C587.631 141.851 588.422 141.011 588.422 139.975C588.422 138.94 587.631 138.1 586.655 138.1C585.679 138.1 584.888 138.94 584.888 139.975C584.888 141.011 585.679 141.851 586.655 141.851Z" fill="white"/>
<path d="M588.643 135.138C587.78 134.648 587.438 133.518 587.9 132.602C588.362 131.685 589.426 131.323 590.289 131.813C591.153 132.303 591.494 133.433 591.032 134.349C590.571 135.266 589.506 135.628 588.643 135.138Z" fill="white"/>
<path d="M597.518 141.723C598.494 141.723 599.285 140.883 599.285 139.848C599.285 138.812 598.494 137.972 597.518 137.972C596.542 137.972 595.751 138.812 595.751 139.848C595.751 140.883 596.542 141.723 597.518 141.723Z" fill="white"/>
<path d="M1140.18 134.201C1141.7 134.201 1142.92 132.898 1142.92 131.29C1142.92 129.683 1141.7 128.379 1140.18 128.379C1138.67 128.379 1137.44 129.683 1137.44 131.29C1137.44 132.898 1138.67 134.201 1140.18 134.201Z" fill="white"/>
<path d="M1147.29 142.571C1148.8 142.571 1150.03 141.268 1150.03 139.66C1150.03 138.052 1148.8 136.749 1147.29 136.749C1145.77 136.749 1144.54 138.052 1144.54 139.66C1144.54 141.268 1145.77 142.571 1147.29 142.571Z" fill="white"/>
<path d="M1156.2 134.367C1157.72 134.367 1158.94 133.063 1158.94 131.456C1158.94 129.848 1157.72 128.545 1156.2 128.545C1154.69 128.545 1153.46 129.848 1153.46 131.456C1153.46 133.063 1154.69 134.367 1156.2 134.367Z" fill="white"/>
<path d="M1175.83 127.222C1175.83 128.843 1174.59 130.133 1173.09 130.133C1171.6 130.133 1170.35 128.81 1170.35 127.222C1170.35 125.634 1171.6 124.311 1173.09 124.311C1174.59 124.311 1175.83 125.634 1175.83 127.222Z" fill="white"/>
<path d="M1128.59 142.173C1130.1 142.173 1131.33 140.87 1131.33 139.262C1131.33 137.655 1130.1 136.352 1128.59 136.352C1127.07 136.352 1125.85 137.655 1125.85 139.262C1125.85 140.87 1127.07 142.173 1128.59 142.173Z" fill="white"/>
<path d="M1164.55 145.514C1166.07 145.514 1167.3 144.21 1167.3 142.603C1167.3 140.995 1166.07 139.692 1164.55 139.692C1163.04 139.692 1161.81 140.995 1161.81 142.603C1161.81 144.21 1163.04 145.514 1164.55 145.514Z" fill="white"/>
<path d="M1187.4 144.257C1188.91 144.257 1190.14 142.954 1190.14 141.346C1190.14 139.739 1188.91 138.436 1187.4 138.436C1185.88 138.436 1184.65 139.739 1184.65 141.346C1184.65 142.954 1185.88 144.257 1187.4 144.257Z" fill="white"/>
<path d="M1190.48 133.838C1189.14 133.077 1188.61 131.324 1189.33 129.901C1190.05 128.479 1191.7 127.917 1193.04 128.677C1194.38 129.438 1194.91 131.191 1194.19 132.614C1193.47 134.036 1191.82 134.598 1190.48 133.838Z" fill="white"/>
<path d="M1204.26 144.059C1205.77 144.059 1207 142.756 1207 141.148C1207 139.541 1205.77 138.237 1204.26 138.237C1202.74 138.237 1201.51 139.541 1201.51 141.148C1201.51 142.756 1202.74 144.059 1204.26 144.059Z" fill="white"/>
<path d="M1686.34 149.89C1687.85 149.89 1689.08 148.587 1689.08 146.979C1689.08 145.372 1687.85 144.068 1686.34 144.068C1684.82 144.068 1683.59 145.372 1683.59 146.979C1683.59 148.587 1684.82 149.89 1686.34 149.89Z" fill="white"/>
<path d="M1693.44 158.26C1694.96 158.26 1696.18 156.957 1696.18 155.349C1696.18 153.741 1694.96 152.438 1693.44 152.438C1691.93 152.438 1690.7 153.741 1690.7 155.349C1690.7 156.957 1691.93 158.26 1693.44 158.26Z" fill="white"/>
<path d="M1702.35 150.056C1703.87 150.056 1705.1 148.753 1705.1 147.145C1705.1 145.538 1703.87 144.234 1702.35 144.234C1700.84 144.234 1699.61 145.538 1699.61 147.145C1699.61 148.753 1700.84 150.056 1702.35 150.056Z" fill="white"/>
<path d="M1721.99 142.911C1721.99 144.532 1720.74 145.822 1719.25 145.822C1717.75 145.822 1716.5 144.499 1716.5 142.911C1716.5 141.323 1717.75 140 1719.25 140C1720.74 140 1721.99 141.323 1721.99 142.911Z" fill="white"/>
<path d="M1674.74 157.862C1676.26 157.862 1677.49 156.559 1677.49 154.951C1677.49 153.344 1676.26 152.041 1674.74 152.041C1673.23 152.041 1672 153.344 1672 154.951C1672 156.559 1673.23 157.862 1674.74 157.862Z" fill="white"/>
<path d="M1710.71 161.203C1712.22 161.203 1713.45 159.899 1713.45 158.292C1713.45 156.684 1712.22 155.381 1710.71 155.381C1709.19 155.381 1707.96 156.684 1707.96 158.292C1707.96 159.899 1709.19 161.203 1710.71 161.203Z" fill="white"/>
<path d="M1733.55 159.946C1735.07 159.946 1736.29 158.643 1736.29 157.035C1736.29 155.428 1735.07 154.125 1733.55 154.125C1732.04 154.125 1730.81 155.428 1730.81 157.035C1730.81 158.643 1732.04 159.946 1733.55 159.946Z" fill="white"/>
<path d="M1736.64 149.527C1735.3 148.766 1734.77 147.013 1735.48 145.59C1736.2 144.168 1737.85 143.606 1739.19 144.366C1740.53 145.127 1741.06 146.88 1740.34 148.303C1739.63 149.725 1737.98 150.287 1736.64 149.527Z" fill="white"/>
<path d="M1750.41 159.748C1751.93 159.748 1753.15 158.445 1753.15 156.837C1753.15 155.23 1751.93 153.926 1750.41 153.926C1748.9 153.926 1747.67 155.23 1747.67 156.837C1747.67 158.445 1748.9 159.748 1750.41 159.748Z" fill="white"/>
<path d="M332.461 138.046C334.306 138.046 335.802 136.459 335.802 134.501C335.802 132.542 334.306 130.955 332.461 130.955C330.616 130.955 329.121 132.542 329.121 134.501C329.121 136.459 330.616 138.046 332.461 138.046Z" fill="white"/>
<path d="M341.116 148.24C342.961 148.24 344.456 146.653 344.456 144.695C344.456 142.737 342.961 141.149 341.116 141.149C339.271 141.149 337.776 142.737 337.776 144.695C337.776 146.653 339.271 148.24 341.116 148.24Z" fill="white"/>
<path d="M351.972 138.248C353.817 138.248 355.313 136.661 355.313 134.703C355.313 132.745 353.817 131.157 351.972 131.157C350.127 131.157 348.632 132.745 348.632 134.703C348.632 136.661 350.127 138.248 351.972 138.248Z" fill="white"/>
<path d="M375.887 129.545C375.887 131.52 374.369 133.091 372.546 133.091C370.724 133.091 369.206 131.479 369.206 129.545C369.206 127.612 370.724 126 372.546 126C374.369 126 375.887 127.612 375.887 129.545Z" fill="white"/>
<path d="M318.34 147.757C320.185 147.757 321.681 146.169 321.681 144.211C321.681 142.253 320.185 140.666 318.34 140.666C316.496 140.666 315 142.253 315 144.211C315 146.169 316.496 147.757 318.34 147.757Z" fill="white"/>
<path d="M362.145 151.825C363.99 151.825 365.486 150.238 365.486 148.28C365.486 146.322 363.99 144.734 362.145 144.734C360.301 144.734 358.805 146.322 358.805 148.28C358.805 150.238 360.301 151.825 362.145 151.825Z" fill="white"/>
<path d="M389.97 150.295C391.815 150.295 393.31 148.708 393.31 146.75C393.31 144.791 391.815 143.204 389.97 143.204C388.125 143.204 386.629 144.791 386.629 146.75C386.629 148.708 388.125 150.295 389.97 150.295Z" fill="white"/>
<path d="M393.728 137.604C392.096 136.677 391.45 134.542 392.323 132.809C393.196 131.077 395.208 130.392 396.84 131.318C398.473 132.245 399.118 134.38 398.245 136.113C397.372 137.845 395.36 138.53 393.728 137.604Z" fill="white"/>
<path d="M410.506 150.053C412.351 150.053 413.846 148.466 413.846 146.508C413.846 144.55 412.351 142.962 410.506 142.962C408.661 142.962 407.165 144.55 407.165 146.508C407.165 148.466 408.661 150.053 410.506 150.053Z" fill="white"/>
<g clip-path="url(#clip2_105_1119)">
<path d="M121.553 117.676C123.532 117.614 129.015 117.863 130.311 119.762C131.607 121.661 131.786 123.699 130.311 125.325C128.836 126.945 129.821 127.55 129.283 128.149C128.746 128.748 128.671 130.431 127.732 130.523C126.794 130.614 127.624 130.475 127.666 129.592C127.709 128.71 127.582 126.993 127.002 125.603C126.422 124.212 126.106 125.512 124.367 126.068C122.623 126.624 119.05 125.512 119.05 125.512C119.05 125.512 118.47 126.993 118.423 127.458C118.38 127.924 118.022 128.106 118.022 128.94C118.022 129.774 117.574 130.24 117.574 130.24L117.442 129.962C117.442 129.962 117.221 130.331 116.726 130.427C116.726 130.427 116.768 129.127 116.994 128.806C117.221 128.485 117.037 127.324 116.726 126.859C116.415 126.394 115.519 125.281 115.519 125.281C115.519 125.281 114.312 124.955 113.732 124.955C113.153 124.955 112.794 125.325 111.545 124.907C110.296 124.49 110.517 124.49 110.117 124.442C109.716 124.394 109.221 124.073 109.221 124.073C109.221 124.073 108.731 124.212 108.684 123.886C108.641 123.56 108.816 122.821 109.132 122.587C109.132 122.587 109.443 122.817 109.801 122.726C110.159 122.634 110.47 122.539 110.649 122.4C110.829 122.26 111.498 121.613 111.498 121.613L112.078 120.87C112.078 120.87 112.257 120.083 112.035 119.527C111.814 118.971 112.615 118.276 112.615 118.88C112.615 119.484 112.973 119.575 113.195 119.762C113.416 119.949 114.001 120.04 114.001 120.04C114.001 120.04 115.698 119.436 116.367 119.019C117.037 118.602 117.173 118.372 117.932 118.233C118.696 118.093 120.077 117.719 121.553 117.676Z" fill="#FFD4C5"/>
<path d="M131.904 121.742C131.843 121.742 131.787 121.733 131.73 121.709C131.565 121.637 131.476 121.474 131.49 121.272C131.509 121.042 131.65 120.841 131.834 120.687C131.763 120.63 131.683 120.596 131.593 120.577C131.197 120.496 130.768 120.812 130.764 120.812C130.721 120.846 130.66 120.836 130.627 120.793C130.594 120.75 130.603 120.687 130.646 120.654C130.665 120.639 131.15 120.28 131.631 120.38C131.768 120.409 131.89 120.472 131.999 120.567C132.098 120.51 132.197 120.462 132.296 120.428C132.663 120.304 132.993 120.356 133.177 120.567C133.215 120.611 133.21 120.673 133.168 120.706C133.125 120.745 133.064 120.74 133.031 120.697C132.899 120.548 132.649 120.515 132.357 120.615C132.282 120.639 132.206 120.678 132.131 120.716C132.159 120.75 132.183 120.788 132.206 120.831C132.456 121.263 132.315 121.507 132.239 121.589C132.154 121.685 132.027 121.742 131.895 121.742H131.904ZM131.975 120.826C131.82 120.951 131.702 121.114 131.688 121.287C131.678 121.402 131.721 121.483 131.805 121.522C131.904 121.565 132.027 121.536 132.098 121.455C132.192 121.344 132.173 121.152 132.041 120.927C132.018 120.889 131.999 120.855 131.97 120.822L131.975 120.826Z" fill="#FFD4C5"/>
</g>
<g clip-path="url(#clip3_105_1119)">
<path d="M901.558 144.01C903.538 143.947 909.02 144.197 910.316 146.096C911.613 147.995 911.792 150.033 910.316 151.658C908.841 153.279 909.826 153.883 909.289 154.482C908.751 155.082 908.676 156.765 907.738 156.856C906.8 156.947 907.629 156.808 907.672 155.926C907.714 155.043 907.587 153.327 907.007 151.936C906.427 150.546 906.112 151.845 904.372 152.401C902.628 152.958 899.055 151.845 899.055 151.845C899.055 151.845 898.475 153.327 898.428 153.792C898.386 154.257 898.027 154.439 898.027 155.274C898.027 156.108 897.579 156.573 897.579 156.573L897.447 156.295C897.447 156.295 897.226 156.664 896.731 156.76C896.731 156.76 896.773 155.461 897 155.139C897.226 154.818 897.042 153.658 896.731 153.193C896.42 152.727 895.524 151.615 895.524 151.615C895.524 151.615 894.318 151.289 893.738 151.289C893.158 151.289 892.8 151.658 891.55 151.241C890.301 150.824 890.523 150.824 890.122 150.776C889.721 150.728 889.227 150.407 889.227 150.407C889.227 150.407 888.736 150.546 888.689 150.22C888.647 149.893 888.821 149.155 889.137 148.92C889.137 148.92 889.448 149.15 889.806 149.059C890.165 148.968 890.476 148.872 890.655 148.733C890.834 148.594 891.503 147.947 891.503 147.947L892.083 147.203C892.083 147.203 892.262 146.417 892.041 145.861C891.819 145.304 892.621 144.609 892.621 145.213C892.621 145.818 892.979 145.909 893.2 146.096C893.422 146.283 894.006 146.374 894.006 146.374C894.006 146.374 895.703 145.77 896.373 145.352C897.042 144.935 897.179 144.705 897.938 144.566C898.701 144.427 900.083 144.053 901.558 144.01Z" fill="#FFD4C5"/>
<path d="M911.91 148.076C911.849 148.076 911.792 148.066 911.736 148.042C911.571 147.97 911.481 147.807 911.495 147.606C911.514 147.376 911.656 147.174 911.839 147.021C911.769 146.963 911.689 146.93 911.599 146.911C911.203 146.829 910.774 147.145 910.769 147.145C910.727 147.179 910.666 147.169 910.633 147.126C910.6 147.083 910.609 147.021 910.651 146.987C910.67 146.973 911.156 146.613 911.637 146.714C911.773 146.743 911.896 146.805 912.004 146.901C912.103 146.843 912.202 146.795 912.301 146.762C912.669 146.637 912.999 146.69 913.183 146.901C913.221 146.944 913.216 147.006 913.173 147.04C913.131 147.078 913.07 147.074 913.037 147.03C912.905 146.882 912.655 146.848 912.363 146.949C912.287 146.973 912.212 147.011 912.136 147.05C912.165 147.083 912.188 147.122 912.212 147.165C912.462 147.596 912.32 147.841 912.245 147.922C912.16 148.018 912.033 148.076 911.901 148.076H911.91ZM911.981 147.16C911.825 147.285 911.707 147.448 911.693 147.62C911.684 147.735 911.726 147.817 911.811 147.855C911.91 147.898 912.033 147.87 912.103 147.788C912.198 147.678 912.179 147.486 912.047 147.261C912.023 147.222 912.004 147.189 911.976 147.155L911.981 147.16Z" fill="#FFD4C5"/>
</g>
<path d="M244.156 134.2C246.509 134.128 253.023 134.415 254.564 136.599C256.104 138.783 256.317 141.128 254.564 142.998C252.81 144.862 253.981 145.557 253.343 146.247C252.704 146.936 252.614 148.872 251.5 148.977C250.385 149.082 251.371 148.922 251.421 147.907C251.472 146.892 251.321 144.917 250.632 143.318C249.943 141.718 249.567 143.213 247.5 143.853C245.428 144.493 241.182 143.213 241.182 143.213C241.182 143.213 240.493 144.917 240.437 145.452C240.386 145.987 239.961 146.197 239.961 147.157C239.961 148.117 239.429 148.652 239.429 148.652L239.272 148.332C239.272 148.332 239.009 148.757 238.42 148.867C238.42 148.867 238.471 147.372 238.74 147.002C239.009 146.633 238.79 145.298 238.42 144.763C238.051 144.228 236.986 142.948 236.986 142.948C236.986 142.948 235.552 142.573 234.863 142.573C234.174 142.573 233.749 142.998 232.264 142.518C230.78 142.038 231.043 142.038 230.567 141.983C230.091 141.928 229.503 141.558 229.503 141.558C229.503 141.558 228.92 141.718 228.864 141.343C228.814 140.968 229.021 140.118 229.396 139.848C229.396 139.848 229.766 140.113 230.192 140.008C230.618 139.903 230.987 139.793 231.2 139.633C231.413 139.473 232.208 138.728 232.208 138.728L232.897 137.873C232.897 137.873 233.11 136.969 232.847 136.329C232.584 135.689 233.536 134.889 233.536 135.584C233.536 136.279 233.962 136.384 234.225 136.599C234.488 136.814 235.183 136.919 235.183 136.919C235.183 136.919 237.199 136.224 237.995 135.744C238.79 135.264 238.953 134.999 239.854 134.839C240.762 134.679 242.403 134.249 244.156 134.2Z" fill="#FFD4C5"/>
<g clip-path="url(#clip4_105_1119)">
<path d="M209.966 144.976C207.682 144.904 201.359 145.191 199.864 147.376C198.368 149.561 198.162 151.906 199.864 153.776C201.565 155.641 200.429 156.337 201.049 157.026C201.669 157.716 201.756 159.653 202.838 159.758C203.92 159.862 202.963 159.702 202.914 158.687C202.865 157.672 203.012 155.697 203.681 154.097C204.349 152.496 204.714 153.992 206.72 154.632C208.732 155.272 212.853 153.992 212.853 153.992C212.853 153.992 213.522 155.697 213.577 156.232C213.625 156.767 214.039 156.977 214.039 157.937C214.039 158.897 214.555 159.432 214.555 159.432L214.708 159.112C214.708 159.112 214.963 159.537 215.534 159.647C215.534 159.647 215.485 158.152 215.224 157.782C214.963 157.413 215.175 156.077 215.534 155.542C215.893 155.007 216.926 153.727 216.926 153.727C216.926 153.727 218.318 153.352 218.987 153.352C219.656 153.352 220.069 153.776 221.51 153.296C222.951 152.816 222.695 152.816 223.157 152.761C223.619 152.706 224.19 152.336 224.19 152.336C224.19 152.336 224.756 152.496 224.81 152.121C224.859 151.746 224.658 150.896 224.294 150.626C224.294 150.626 223.935 150.891 223.521 150.786C223.108 150.681 222.749 150.571 222.543 150.411C222.336 150.251 221.564 149.506 221.564 149.506L220.895 148.651C220.895 148.651 220.689 147.746 220.944 147.106C221.2 146.466 220.275 145.666 220.275 146.361C220.275 147.056 219.862 147.161 219.607 147.376C219.351 147.591 218.677 147.696 218.677 147.696C218.677 147.696 216.719 147.001 215.947 146.521C215.175 146.041 215.017 145.776 214.142 145.616C213.261 145.456 211.668 145.026 209.966 144.976Z" fill="#FFD4C5"/>
<path d="M198.025 149.655C198.096 149.655 198.161 149.644 198.227 149.616C198.417 149.533 198.52 149.346 198.504 149.114C198.482 148.849 198.319 148.618 198.107 148.441C198.189 148.375 198.281 148.336 198.384 148.314C198.841 148.22 199.336 148.584 199.341 148.584C199.39 148.623 199.461 148.612 199.499 148.562C199.537 148.513 199.526 148.441 199.477 148.402C199.455 148.386 198.895 147.972 198.341 148.088C198.183 148.121 198.042 148.193 197.917 148.303C197.803 148.237 197.688 148.182 197.574 148.143C197.15 148 196.769 148.06 196.557 148.303C196.514 148.353 196.519 148.424 196.568 148.463C196.617 148.507 196.688 148.502 196.726 148.452C196.878 148.281 197.166 148.242 197.503 148.358C197.59 148.386 197.677 148.43 197.764 148.474C197.732 148.513 197.705 148.557 197.677 148.606C197.389 149.103 197.552 149.384 197.639 149.478C197.737 149.589 197.884 149.655 198.036 149.655H198.025ZM197.944 148.601C198.123 148.744 198.259 148.932 198.276 149.131C198.286 149.263 198.237 149.357 198.14 149.401C198.025 149.451 197.884 149.418 197.803 149.324C197.694 149.197 197.716 148.976 197.868 148.717C197.895 148.673 197.917 148.634 197.949 148.595L197.944 148.601Z" fill="#FFD4C5"/>
</g>
<g clip-path="url(#clip5_105_1119)">
<path d="M867.271 133.976C864.988 133.904 858.664 134.191 857.169 136.376C855.673 138.561 855.467 140.906 857.169 142.776C858.871 144.641 857.734 145.337 858.354 146.026C858.974 146.716 859.061 148.653 860.143 148.758C861.225 148.862 860.268 148.702 860.219 147.687C860.17 146.672 860.317 144.697 860.986 143.097C861.655 141.496 862.019 142.992 864.025 143.632C866.037 144.272 870.159 142.992 870.159 142.992C870.159 142.992 870.827 144.697 870.882 145.232C870.931 145.767 871.344 145.977 871.344 146.937C871.344 147.897 871.86 148.432 871.86 148.432L872.013 148.112C872.013 148.112 872.268 148.537 872.839 148.647C872.839 148.647 872.79 147.152 872.529 146.782C872.268 146.413 872.48 145.077 872.839 144.542C873.198 144.007 874.231 142.727 874.231 142.727C874.231 142.727 875.623 142.352 876.292 142.352C876.961 142.352 877.374 142.776 878.815 142.296C880.256 141.816 880 141.816 880.462 141.761C880.925 141.706 881.495 141.336 881.495 141.336C881.495 141.336 882.061 141.496 882.115 141.121C882.164 140.746 881.963 139.896 881.599 139.626C881.599 139.626 881.24 139.891 880.827 139.786C880.413 139.681 880.055 139.571 879.848 139.411C879.641 139.251 878.869 138.506 878.869 138.506L878.2 137.651C878.2 137.651 877.994 136.746 878.249 136.106C878.505 135.466 877.581 134.666 877.581 135.361C877.581 136.056 877.167 136.161 876.912 136.376C876.656 136.591 875.982 136.696 875.982 136.696C875.982 136.696 874.025 136.001 873.252 135.521C872.48 135.041 872.323 134.776 871.447 134.616C870.566 134.456 868.973 134.026 867.271 133.976Z" fill="#FFD4C5"/>
<path d="M855.331 138.655C855.401 138.655 855.467 138.644 855.532 138.616C855.722 138.533 855.826 138.346 855.809 138.114C855.787 137.849 855.624 137.618 855.412 137.441C855.494 137.375 855.586 137.336 855.69 137.314C856.146 137.22 856.641 137.584 856.647 137.584C856.696 137.623 856.766 137.612 856.804 137.562C856.842 137.513 856.831 137.441 856.783 137.402C856.761 137.386 856.201 136.972 855.646 137.088C855.488 137.121 855.347 137.193 855.222 137.303C855.108 137.237 854.994 137.182 854.879 137.143C854.455 137 854.075 137.06 853.863 137.303C853.819 137.353 853.825 137.424 853.874 137.463C853.922 137.507 853.993 137.502 854.031 137.452C854.183 137.281 854.472 137.242 854.809 137.358C854.896 137.386 854.983 137.43 855.07 137.474C855.037 137.513 855.01 137.557 854.983 137.606C854.695 138.103 854.858 138.384 854.945 138.478C855.043 138.589 855.189 138.655 855.342 138.655H855.331ZM855.249 137.601C855.429 137.744 855.565 137.932 855.581 138.131C855.592 138.263 855.543 138.357 855.445 138.401C855.331 138.451 855.189 138.418 855.108 138.324C854.999 138.197 855.021 137.976 855.173 137.717C855.2 137.673 855.222 137.634 855.255 137.595L855.249 137.601Z" fill="#FFD4C5"/>
</g>
<g clip-path="url(#clip6_105_1119)">
<path d="M902.849 120.011C905.133 119.939 911.457 120.226 912.952 122.411C914.447 124.596 914.654 126.941 912.952 128.812C911.25 130.677 912.386 131.372 911.767 132.062C911.147 132.751 911.06 134.688 909.978 134.793C908.896 134.898 909.853 134.738 909.902 133.722C909.95 132.707 909.804 130.732 909.135 129.132C908.466 127.532 908.102 129.027 906.095 129.667C904.084 130.307 899.962 129.027 899.962 129.027C899.962 129.027 899.293 130.732 899.239 131.267C899.19 131.802 898.777 132.012 898.777 132.972C898.777 133.932 898.26 134.467 898.26 134.467L898.108 134.147C898.108 134.147 897.852 134.572 897.281 134.682C897.281 134.682 897.33 133.187 897.591 132.817C897.852 132.448 897.64 131.112 897.281 130.577C896.923 130.042 895.889 128.762 895.889 128.762C895.889 128.762 894.498 128.387 893.829 128.387C893.16 128.387 892.747 128.812 891.306 128.332C889.865 127.852 890.12 127.852 889.658 127.796C889.196 127.741 888.625 127.372 888.625 127.372C888.625 127.372 888.06 127.532 888.005 127.156C887.956 126.781 888.158 125.931 888.522 125.661C888.522 125.661 888.881 125.926 889.294 125.821C889.707 125.716 890.066 125.606 890.273 125.446C890.479 125.286 891.251 124.541 891.251 124.541L891.92 123.686C891.92 123.686 892.127 122.781 891.871 122.141C891.616 121.501 892.54 120.701 892.54 121.396C892.54 122.091 892.953 122.196 893.209 122.411C893.464 122.626 894.139 122.731 894.139 122.731C894.139 122.731 896.096 122.036 896.868 121.556C897.64 121.076 897.798 120.811 898.673 120.651C899.554 120.491 901.147 120.061 902.849 120.011Z" fill="#FFD4C5"/>
<path d="M914.79 124.69C914.719 124.69 914.654 124.679 914.589 124.651C914.398 124.569 914.295 124.381 914.311 124.149C914.333 123.884 914.496 123.653 914.708 123.476C914.627 123.41 914.534 123.371 914.431 123.349C913.974 123.255 913.479 123.62 913.474 123.62C913.425 123.658 913.354 123.647 913.316 123.597C913.278 123.548 913.289 123.476 913.338 123.437C913.36 123.421 913.92 123.007 914.474 123.123C914.632 123.156 914.774 123.228 914.899 123.338C915.013 123.272 915.127 123.217 915.241 123.178C915.665 123.035 916.046 123.095 916.258 123.338C916.301 123.388 916.296 123.46 916.247 123.498C916.198 123.542 916.127 123.537 916.089 123.487C915.937 123.316 915.649 123.277 915.312 123.393C915.225 123.421 915.138 123.465 915.051 123.509C915.083 123.548 915.111 123.592 915.138 123.642C915.426 124.138 915.263 124.42 915.176 124.513C915.078 124.624 914.931 124.69 914.779 124.69H914.79ZM914.871 123.636C914.692 123.78 914.556 123.967 914.54 124.166C914.529 124.298 914.578 124.392 914.676 124.436C914.79 124.486 914.931 124.453 915.013 124.359C915.122 124.232 915.1 124.011 914.948 123.752C914.92 123.708 914.899 123.669 914.866 123.631L914.871 123.636Z" fill="#FFD4C5"/>
</g>
<g clip-path="url(#clip7_105_1119)">
<path d="M826.441 143.011C824.158 142.939 817.834 143.226 816.339 145.411C814.843 147.596 814.637 149.941 816.339 151.812C818.041 153.677 816.904 154.372 817.524 155.062C818.144 155.751 818.231 157.688 819.313 157.793C820.395 157.898 819.438 157.738 819.389 156.722C819.34 155.707 819.487 153.732 820.156 152.132C820.824 150.532 821.189 152.027 823.195 152.667C825.207 153.307 829.328 152.027 829.328 152.027C829.328 152.027 829.997 153.732 830.052 154.267C830.101 154.802 830.514 155.012 830.514 155.972C830.514 156.932 831.03 157.467 831.03 157.467L831.183 157.147C831.183 157.147 831.438 157.572 832.009 157.682C832.009 157.682 831.96 156.187 831.699 155.817C831.438 155.448 831.65 154.112 832.009 153.577C832.368 153.042 833.401 151.762 833.401 151.762C833.401 151.762 834.793 151.387 835.462 151.387C836.131 151.387 836.544 151.812 837.985 151.332C839.426 150.852 839.17 150.852 839.632 150.796C840.094 150.741 840.665 150.372 840.665 150.372C840.665 150.372 841.231 150.532 841.285 150.156C841.334 149.781 841.133 148.931 840.769 148.661C840.769 148.661 840.41 148.926 839.997 148.821C839.583 148.716 839.224 148.606 839.018 148.446C838.811 148.286 838.039 147.541 838.039 147.541L837.37 146.686C837.37 146.686 837.164 145.781 837.419 145.141C837.675 144.501 836.75 143.701 836.75 144.396C836.75 145.091 836.337 145.196 836.082 145.411C835.826 145.626 835.152 145.731 835.152 145.731C835.152 145.731 833.194 145.036 832.422 144.556C831.65 144.076 831.493 143.811 830.617 143.651C829.736 143.491 828.143 143.061 826.441 143.011Z" fill="#FFD4C5"/>
<path d="M814.501 147.69C814.571 147.69 814.637 147.679 814.702 147.651C814.892 147.569 814.995 147.381 814.979 147.149C814.957 146.884 814.794 146.653 814.582 146.476C814.664 146.41 814.756 146.371 814.86 146.349C815.316 146.255 815.811 146.62 815.817 146.62C815.865 146.658 815.936 146.647 815.974 146.597C816.012 146.548 816.001 146.476 815.952 146.437C815.931 146.421 815.371 146.007 814.816 146.123C814.658 146.156 814.517 146.228 814.392 146.338C814.278 146.272 814.164 146.217 814.049 146.178C813.625 146.035 813.245 146.095 813.033 146.338C812.989 146.388 812.995 146.46 813.043 146.498C813.092 146.542 813.163 146.537 813.201 146.487C813.353 146.316 813.642 146.277 813.979 146.393C814.066 146.421 814.153 146.465 814.24 146.509C814.207 146.548 814.18 146.592 814.153 146.642C813.864 147.138 814.028 147.42 814.115 147.513C814.212 147.624 814.359 147.69 814.512 147.69H814.501ZM814.419 146.636C814.599 146.78 814.734 146.967 814.751 147.166C814.762 147.298 814.713 147.392 814.615 147.436C814.501 147.486 814.359 147.453 814.278 147.359C814.169 147.232 814.191 147.011 814.343 146.752C814.37 146.708 814.392 146.669 814.425 146.631L814.419 146.636Z" fill="#FFD4C5"/>
</g>
<path d="M611.808 146.627C611.808 146.627 612.206 149.969 612.055 150.942C611.904 151.902 611.067 152.735 611.067 152.735L612.096 151.954L611.946 152.645C611.946 152.645 612.481 151.826 612.783 151.826C613.084 151.826 614.251 151.915 614.251 151.915C614.251 151.915 612.824 151.595 612.673 150.955C612.522 150.315 612.961 146.55 612.961 146.55L611.781 146.64L611.808 146.627Z" fill="#CE666D"/>
<path d="M610.793 145.936C610.793 145.936 610.409 149.29 610.038 150.199C609.668 151.108 608.666 151.749 608.666 151.749L609.86 151.198L609.558 151.838C609.558 151.838 610.272 151.134 610.56 151.198C610.848 151.262 611.973 151.582 611.973 151.582C611.973 151.582 610.656 150.98 610.656 150.327C610.656 149.674 611.959 146.089 611.959 146.089L610.793 145.948V145.936Z" fill="#CE666D"/>
<path d="M625.063 138.266C625.104 137.549 623.142 136.729 623.142 136.729C623.142 136.729 625.145 135.756 624.404 135.141C623.677 134.527 622.387 134.373 622.387 134.373C622.387 134.373 622.154 132.926 623.718 133.003C625.283 133.08 622.223 130.839 619.575 131.697C616.926 132.555 616.103 135.679 614.168 136.499C612.248 137.318 609.188 135.5 608.364 134.155C608.008 133.566 607.253 132.952 606.347 132.414C606.21 132.376 604.275 130.711 601.792 131.044C601.01 131.146 599.94 131.863 599.514 132.606C599.555 132.901 599.473 133.259 599.336 133.464C599.322 133.49 599.308 133.515 599.308 133.554L598.718 134.424L599.967 134.232C599.967 134.232 600.022 134.232 600.063 134.219H600.118V134.207C600.187 134.181 600.269 134.155 600.351 134.117C601.202 133.669 601.312 135.103 601.312 135.705C601.298 136.896 601.092 139.623 601.092 141.313C601.092 143.003 602.903 144.809 603.48 145.269C604.042 145.743 604.262 145.218 604.262 145.218C604.262 145.218 605.455 146.793 606.1 146.87L606.745 146.947C606.745 146.947 608.502 148.343 611.095 148.343C613.688 148.343 613.743 148.343 614.566 147.754C615.39 147.165 615.829 146.166 615.829 146.166C615.829 146.166 616.474 146.281 616.94 145.743C617.407 145.205 617.942 143.656 617.942 143.656C617.942 143.656 618.985 143.438 619.369 142.824C619.753 142.209 620.316 141.403 620.316 141.403C620.316 141.403 621.921 141.838 622.525 141.134C623.115 140.417 622.182 139.52 622.182 139.52C622.182 139.52 625.049 138.983 625.091 138.266H625.063Z" fill="#CE666D"/>
<path d="M536.887 140.64C536.544 141.793 535.57 144.366 535.104 146.005C534.637 147.644 535.872 149.821 536.297 150.41C536.709 150.999 537.066 150.551 537.066 150.551C537.066 150.551 537.779 152.369 538.383 152.599L538.973 152.83C538.973 152.83 540.29 154.597 542.788 155.237C545.285 155.877 545.353 155.877 546.3 155.506C547.247 155.147 547.974 154.277 547.974 154.277C547.974 154.277 548.564 154.546 549.168 154.136C549.758 153.726 550.718 152.369 550.718 152.369C550.718 152.369 551.789 152.42 552.324 151.921C552.859 151.421 553.641 150.781 553.641 150.781C553.641 150.781 555.068 151.601 555.85 151.05C556.619 150.5 555.974 149.411 555.974 149.411C555.974 149.411 558.896 149.59 559.129 148.912C559.363 148.233 557.702 146.953 557.702 146.953C557.702 146.953 559.912 146.505 559.376 145.724C558.841 144.955 557.648 144.494 557.648 144.494C557.648 144.494 557.826 143.035 559.322 143.496C560.817 143.944 558.485 141.037 555.685 141.229C552.886 141.409 551.212 144.225 549.127 144.546C547.041 144.866 544.599 142.369 544.173 140.871C543.762 139.373 541.429 137.324 539.7 136.325C539.7 136.325 540.469 136.325 540.839 135.916C541.196 135.506 540.126 135.416 540.126 135.416C540.126 135.416 540.482 134.648 539.947 134.597C539.412 134.545 539.11 134.917 539.11 134.917C539.11 134.917 539.165 134.149 538.877 134.187C538.575 134.238 537.93 134.955 537.93 134.955C537.93 134.955 537.875 134.366 537.395 134.725C536.915 135.083 536.805 135.314 536.805 135.314C536.805 135.314 536.393 134.763 536.146 135.262C535.913 135.762 535.845 135.941 535.845 135.941C535.845 135.941 535.076 136.12 535.076 136.581C535.076 136.581 535.666 136.53 535.968 136.761C536.27 136.991 535.968 137.708 535.666 137.99C535.364 138.259 535.488 139.078 536.435 138.848C537.381 138.617 537.093 140.026 536.915 140.615L536.887 140.64Z" fill="#CE666D"/>
<path d="M545.038 153.559C545.038 153.559 545.436 156.901 545.285 157.874C545.134 158.847 544.297 159.667 544.297 159.667L545.326 158.886L545.175 159.577C545.175 159.577 545.71 158.758 546.012 158.758C546.314 158.758 547.48 158.847 547.48 158.847C547.48 158.847 546.053 158.527 545.902 157.887C545.751 157.247 546.19 153.482 546.19 153.482L545.01 153.572L545.038 153.559Z" fill="#CE666D"/>
<path d="M544.023 152.868C544.023 152.868 543.638 156.222 543.268 157.131C542.897 158.041 541.896 158.681 541.896 158.681L543.089 158.13L542.788 158.77C542.788 158.77 543.501 158.066 543.789 158.13C544.077 158.194 545.203 158.514 545.203 158.514C545.203 158.514 543.885 157.913 543.885 157.26C543.885 156.607 545.189 153.021 545.189 153.021L544.009 152.88L544.023 152.868Z" fill="#CE666D"/>
<g clip-path="url(#clip8_105_1119)">
<path d="M363.525 123.368C363.446 122.399 361.667 122.965 360.295 122.478C358.923 121.991 356.258 120.943 354.479 120.539C354.396 120.521 354.317 120.503 354.241 120.488C354.375 120.027 354.53 119.353 354.375 119.065C354.195 118.722 353.651 119.793 353.384 120.359C352.567 120.301 352.354 120.539 352.056 120.78C351.652 121.105 350.846 123.123 349.794 123.044C348.829 122.968 345.192 123.285 342.203 123.53C339.214 123.772 330.492 125.47 327.907 125.066C325.321 124.662 317.086 123.53 315.228 123.61C313.369 123.693 310.705 125.39 311.025 128.544C311.349 131.698 312.8 136.304 313.045 137.677C313.287 139.05 312.966 142.042 311.752 143.012C310.539 143.981 311.915 145.275 312.239 147.297C312.563 149.319 312.642 153.763 313.29 154.491C313.935 155.219 316.038 155.461 316.441 155.057C316.844 154.653 315.31 153.763 314.745 152.631C314.37 151.882 314.493 149.294 314.709 147.369C315.134 149.078 315.469 151.485 315.469 152.148C315.469 152.876 315.065 153.605 316.358 153.925C317.651 154.25 318.458 153.601 318.458 153.601C318.458 153.601 317.489 152.228 317.086 151.5C316.682 150.772 317.086 146.81 317.248 145.275C317.41 143.74 317.975 144.064 318.216 142.204C318.364 141.058 318.825 140.067 319.754 138.964C320.359 139.346 321.155 139.89 322.253 140.427C325.566 142.046 328.634 142.366 332.106 141.883C334.457 141.555 336.438 141.375 338.073 141.494C338.861 143.498 339.859 146.237 339.859 147.542C339.859 149.319 340.503 148.753 340.665 149.806C340.827 150.858 340.341 152.394 340.424 152.876C340.503 153.363 341.231 153.767 341.231 153.767L341.069 155.061C341.796 155.547 344.058 155.385 343.975 155.061C343.896 154.736 342.765 153.442 342.603 153.201C342.441 152.959 342.199 150.372 342.362 149.402C342.524 148.432 343.33 147.218 343.492 145.603C343.593 144.579 344.504 142.46 345.16 141.04C346.117 140.579 346.953 139.995 347.45 139.378C348.822 137.681 348.743 135.58 351.569 133.075C354.396 130.57 354.882 127.819 356.737 127.74C358.592 127.661 359.485 126.608 360.208 126.446C360.936 126.284 362.067 126.367 362.391 126.043C362.715 125.718 363.28 124.911 363.28 124.911C363.28 124.911 363.604 124.345 363.521 123.375L363.525 123.368Z" fill="#AE7407"/>
<path d="M363.525 123.368C363.446 122.399 361.667 122.965 360.295 122.478C359.243 122.107 357.439 121.408 355.855 120.917C356.37 121.595 357.122 122.449 357.025 123.203C356.863 124.432 355.117 124.284 354.299 124.745C353.298 125.311 352.967 126.601 352.481 127.571C351.357 129.481 348.48 130.062 346.705 128.732C346.337 128.458 346.01 128.115 345.585 127.949C345.088 127.758 344.533 127.841 344 127.827C342.999 127.802 342.012 127.423 341.253 126.771C340.395 126.036 339.866 124.756 340.284 123.758C338.84 123.956 337.028 124.241 335.21 124.497C334.904 125.336 333.978 125.96 333.085 126.281C331.962 126.684 330.683 126.904 329.88 127.791C329.355 128.371 329.07 129.197 328.382 129.571C328.159 129.69 327.903 129.759 327.716 129.928C327.435 130.184 327.388 130.599 327.284 130.966C327.064 131.766 326.467 132.484 325.674 132.718C324.879 132.952 323.917 132.613 323.55 131.871C323.337 131.438 323.334 130.937 323.287 130.462C323.197 129.553 322.927 128.667 322.495 127.863C322.048 127.03 321.425 126.277 321.18 125.365C321.043 124.853 321.018 124.45 321.076 124.133C318.541 123.823 316.132 123.574 315.228 123.613C313.78 123.675 311.839 124.724 311.209 126.677C311.212 126.677 311.216 126.67 311.223 126.67C311.421 126.558 311.645 126.479 311.871 126.482C312.354 126.486 312.757 126.839 313.222 126.973C314.533 127.34 315.861 125.87 317.158 126.284C318.238 126.63 318.523 127.996 318.627 129.128C318.728 130.227 318.829 131.327 318.93 132.422C319.009 133.28 319.03 134.282 318.371 134.837C317.504 135.569 315.937 135.061 315.235 135.955C315.048 136.189 314.965 136.488 314.853 136.766C314.515 137.616 313.895 138.355 313.121 138.845C313.092 140.327 312.689 142.269 311.756 143.015C310.546 143.985 311.918 145.279 312.242 147.301C312.566 149.323 312.646 153.767 313.294 154.495C313.938 155.223 316.041 155.465 316.445 155.061C316.848 154.657 315.314 153.767 314.749 152.635C314.374 151.886 314.497 149.298 314.713 147.373C315.138 149.081 315.473 151.489 315.473 152.152C315.473 152.88 315.069 153.608 316.362 153.929C317.655 154.254 318.461 153.605 318.461 153.605C318.461 153.605 317.493 152.232 317.089 151.503C316.686 150.775 317.089 146.814 317.251 145.279C317.413 143.743 317.979 144.068 318.22 142.208C318.368 141.062 318.829 140.071 319.758 138.968C320.363 139.35 321.159 139.894 322.257 140.431C325.57 142.049 328.638 142.37 332.109 141.887C334.461 141.559 336.442 141.379 338.076 141.498C338.865 143.502 339.863 146.241 339.863 147.546C339.863 149.323 340.507 148.757 340.669 149.809C340.831 150.862 340.345 152.397 340.428 152.88C340.507 153.367 341.235 153.771 341.235 153.771L341.072 155.064C341.8 155.551 344.061 155.389 343.979 155.064C343.899 154.74 342.769 153.446 342.607 153.205C342.444 152.963 342.203 150.375 342.365 149.406C342.527 148.436 343.334 147.222 343.496 145.607C343.597 144.583 344.508 142.464 345.163 141.044C345.811 140.73 346.402 140.363 346.87 139.966C345.898 139.397 345.109 138.557 344.342 137.724C343.82 137.158 343.276 136.56 343.1 135.807C342.776 134.426 343.867 133.028 345.189 132.52C346.51 132.011 347.987 132.177 349.387 132.386C350.295 132.523 351.195 132.53 352.095 132.585C354.468 130.224 355.009 127.812 356.744 127.737C358.602 127.657 359.492 126.605 360.216 126.443C360.943 126.281 362.074 126.364 362.398 126.039C362.722 125.715 363.287 124.907 363.287 124.907C363.287 124.907 363.612 124.342 363.529 123.372L363.525 123.368ZM335.754 129.348C335.394 129.773 335.037 130.195 334.677 130.62C334.364 130.991 334.043 131.37 333.64 131.644C332.84 132.192 331.821 132.278 330.853 132.347C330.745 132.354 330.629 132.361 330.539 132.303C330.406 132.221 330.377 132.048 330.359 131.893C330.212 130.382 329.967 128.652 331.436 127.798C331.958 127.495 332.538 127.315 333.114 127.135C333.456 127.027 333.798 126.922 334.14 126.814C334.429 126.724 334.731 126.634 335.026 126.695C335.415 126.774 335.7 127.099 335.959 127.405C336.099 127.571 336.24 127.744 336.301 127.949C336.452 128.45 336.089 128.948 335.75 129.348H335.754Z" fill="#AE7407"/>
</g>
<g clip-path="url(#clip9_105_1119)">
<path d="M395.385 143.004C395.594 140.942 393.848 139.832 392.631 139.777C391.414 139.722 386.011 140.464 384.315 140.728C382.618 140.992 376.387 139.702 374.527 139.075C374.137 138.945 373.494 138.995 372.99 139.149C372.99 139.149 372.99 139.144 372.99 139.139C372.98 139.144 372.97 139.149 372.96 139.159C372.676 139.249 372.436 139.373 372.326 139.518C370.92 140.315 369.568 141.052 368.864 141.51C367.218 142.586 365.207 143.88 364.733 144.304C364.22 144.767 362.992 144.045 362.653 144.04C362.404 144.04 362.194 143.995 361.795 144.354C361.431 144.169 360.717 143.831 360.762 144.08C360.797 144.289 361.146 144.578 361.406 144.762C361.371 144.802 361.336 144.842 361.301 144.886C360.543 145.808 359.585 147.421 359.066 148.223C358.547 149.025 357.4 149.443 357.749 149.981C358.098 150.514 358.492 150.678 358.492 150.678C358.492 150.678 359.111 150.867 359.405 150.907C359.705 150.947 360.258 150.449 360.697 150.24C361.141 150.031 362.02 150.22 363.017 149.518C364.01 148.816 365.367 150.041 367.837 150.205C370.306 150.364 371.109 151.485 372.501 151.814C372.741 151.868 373.015 151.888 373.314 151.883C373.673 152.715 374.043 153.651 374.093 154.169C374.197 155.225 374.726 156.022 374.836 156.654C374.941 157.287 374.781 158.98 374.676 159.139C374.571 159.299 373.828 160.145 373.773 160.355C373.718 160.564 375.205 160.673 375.679 160.355L375.574 159.508C375.574 159.508 376.053 159.244 376.103 158.925C376.158 158.607 375.839 157.606 375.943 156.918C376.048 156.231 376.472 156.6 376.472 155.439C376.472 154.588 377.126 152.795 377.645 151.485C378.717 151.405 380.014 151.525 381.556 151.739C383.836 152.058 385.846 151.844 388.016 150.788C388.735 150.439 389.259 150.081 389.653 149.832C390.266 150.554 390.566 151.201 390.661 151.953C390.82 153.168 391.189 152.959 391.294 153.96C391.399 154.966 391.663 157.556 391.399 158.034C391.134 158.512 390.501 159.408 390.501 159.408C390.501 159.408 391.03 159.832 391.878 159.617C392.726 159.408 392.461 158.93 392.461 158.452C392.461 158.019 392.681 156.445 392.96 155.33C393.105 156.59 393.185 158.283 392.935 158.771C392.566 159.513 391.559 160.091 391.823 160.359C392.087 160.623 393.464 160.464 393.888 159.991C394.312 159.513 394.367 156.605 394.577 155.285C394.786 153.965 395.689 153.118 394.896 152.481C394.103 151.844 393.888 149.891 394.048 148.99C394.208 148.094 395.16 145.076 395.37 143.014L395.385 143.004Z" fill="#AE7407"/>
<path d="M361.401 144.767C361.366 144.807 361.331 144.847 361.296 144.891C361.052 145.19 360.787 145.554 360.523 145.947C360.548 145.942 360.578 145.932 360.603 145.927C361.226 145.803 361.76 145.857 362.369 146.012C363.012 146.181 363.656 146.425 364.324 146.46C365.023 146.5 365.721 146.296 366.34 145.982C368.056 145.11 368.755 143.412 368.595 141.679C367.003 142.715 365.173 143.9 364.724 144.304C364.21 144.767 362.982 144.045 362.643 144.04C362.394 144.04 362.184 143.995 361.785 144.354C361.421 144.169 360.708 143.831 360.752 144.08C360.787 144.289 361.137 144.578 361.396 144.762L361.401 144.767Z" fill="#AE7407"/>
<path d="M382.409 141.689C383.452 142.73 384.315 144.01 385.472 144.926C385.961 145.315 386.679 145.653 387.313 145.474C387.817 145.334 388.156 144.881 388.421 144.463C389.024 143.517 389.403 142.446 390.336 141.759C390.935 141.316 391.653 141.067 391.788 140.24C391.813 140.1 391.818 139.956 391.813 139.812C389.857 139.946 385.752 140.514 384.31 140.738C383.741 140.827 382.663 140.738 381.411 140.564C381.75 141.022 382.135 141.425 382.404 141.699L382.409 141.689Z" fill="#AE7407"/>
<path d="M370.062 140.808C370.625 141.201 371.199 141.689 371.359 142.386C371.483 142.929 371.274 143.95 371.873 144.234C372.187 144.383 372.511 144.269 372.786 144.09C373.649 143.532 374.237 142.521 374.801 141.689C375.18 141.136 375.669 140.285 376.263 139.553C375.539 139.378 374.936 139.209 374.532 139.075C374.143 138.945 373.499 138.995 372.995 139.149C372.995 139.149 372.995 139.144 372.995 139.139C372.985 139.144 372.975 139.149 372.965 139.159C372.681 139.249 372.441 139.373 372.332 139.518C371.518 139.976 370.72 140.419 370.062 140.798C370.062 140.798 370.067 140.803 370.072 140.808H370.062Z" fill="#AE7407"/>
<path d="M380.768 143.711C380.289 143.258 379.536 142.317 378.792 142.496C377.505 142.805 378.453 144.976 378.697 145.743C378.772 145.987 378.842 146.246 378.907 146.52C379.106 146.754 379.316 146.963 379.516 147.137C379.93 147.496 380.483 147.85 381.057 147.8C381.895 147.73 382.524 146.809 382.414 146.012C382.274 145.021 381.446 144.359 380.768 143.711Z" fill="#AE7407"/>
<path d="M393.469 144.359C392.99 144.742 392.472 144.862 391.903 145.036C391.13 145.275 390.651 146.002 390.566 146.789C390.421 148.148 391.259 149.757 392.372 150.519C393.055 150.987 393.794 151.316 394.422 151.799C394.028 150.937 393.933 149.652 394.053 148.975C394.213 148.079 395.166 145.061 395.375 142.999C395.39 142.845 395.395 142.69 395.39 142.546C394.592 142.934 394.203 143.761 393.464 144.354L393.469 144.359Z" fill="#AE7407"/>
<path d="M373.314 151.879C373.519 152.352 373.729 152.865 373.878 153.308C373.928 153.223 373.978 153.144 374.028 153.059C374.821 151.704 375.649 149.578 374.726 148.074C373.709 146.415 371.454 148.393 370.082 148.408C369.558 148.412 368.974 148.163 368.51 148.512C368.186 148.756 367.991 149.179 367.832 149.538C367.737 149.747 367.652 149.966 367.572 150.18C367.657 150.19 367.747 150.195 367.832 150.2C370.301 150.36 371.104 151.48 372.496 151.809C372.736 151.864 373.01 151.884 373.309 151.879H373.314Z" fill="#AE7407"/>
</g>
<g clip-path="url(#clip10_105_1119)">
<path d="M948.706 85.0039C948.915 82.9421 947.169 81.8316 945.952 81.7768C944.735 81.722 939.332 82.4641 937.635 82.728C935.939 82.9919 929.708 81.7021 927.847 81.0746C927.458 80.9451 926.815 80.9949 926.311 81.1493C926.311 81.1493 926.311 81.1443 926.311 81.1394C926.301 81.1443 926.291 81.1493 926.281 81.1593C925.997 81.2489 925.757 81.3734 925.647 81.5178C924.24 82.3147 922.888 83.0517 922.185 83.5099C920.539 84.5856 918.528 85.8804 918.054 86.3037C917.54 86.7668 916.313 86.0447 915.974 86.0398C915.724 86.0398 915.515 85.9949 915.116 86.3535C914.752 86.1692 914.038 85.8306 914.083 86.0796C914.118 86.2888 914.467 86.5776 914.727 86.7619C914.692 86.8017 914.657 86.8415 914.622 86.8864C913.864 87.8077 912.906 89.4212 912.387 90.223C911.868 91.0248 910.721 91.4431 911.07 91.981C911.419 92.5139 911.813 92.6782 911.813 92.6782C911.813 92.6782 912.432 92.8675 912.726 92.9073C913.026 92.9471 913.579 92.4491 914.018 92.24C914.462 92.0308 915.34 92.22 916.338 91.5178C917.331 90.8157 918.688 92.0408 921.157 92.2051C923.627 92.3645 924.43 93.485 925.822 93.8137C926.061 93.8684 926.336 93.8884 926.635 93.8834C926.994 94.7151 927.363 95.6513 927.413 96.1692C927.518 97.225 928.047 98.0218 928.157 98.6543C928.261 99.2868 928.102 100.98 927.997 101.139C927.892 101.299 927.149 102.145 927.094 102.355C927.039 102.564 928.526 102.673 929 102.355L928.895 101.508C928.895 101.508 929.374 101.244 929.424 100.925C929.479 100.607 929.159 99.6055 929.264 98.9183C929.369 98.231 929.793 98.5995 929.793 97.4392C929.793 96.5876 930.447 94.7947 930.965 93.485C932.038 93.4053 933.335 93.5248 934.877 93.739C937.157 94.0577 939.167 93.8435 941.337 92.7878C942.056 92.4392 942.579 92.0806 942.974 91.8316C943.587 92.5537 943.887 93.2011 943.981 93.9531C944.141 95.1682 944.51 94.9591 944.615 95.9601C944.72 96.9661 944.984 99.5557 944.72 100.034C944.455 100.512 943.822 101.408 943.822 101.408C943.822 101.408 944.35 101.832 945.199 101.617C946.047 101.408 945.782 100.93 945.782 100.452C945.782 100.019 946.002 98.4451 946.281 97.3296C946.426 98.5896 946.506 100.283 946.256 100.771C945.887 101.513 944.879 102.091 945.144 102.359C945.408 102.623 946.785 102.464 947.209 101.991C947.633 101.513 947.688 98.6045 947.898 97.2848C948.107 95.9651 949.01 95.1184 948.217 94.481C947.424 93.8435 947.209 91.8914 947.369 90.99C947.528 90.0935 948.481 87.0756 948.691 85.0139L948.706 85.0039Z" fill="#AE7407"/>
<path d="M914.722 86.7669C914.687 86.8067 914.652 86.8465 914.617 86.8914C914.373 87.1902 914.108 87.5537 913.844 87.9471C913.869 87.9422 913.899 87.9322 913.924 87.9272C914.547 87.8027 915.081 87.8575 915.69 88.0119C916.333 88.1812 916.977 88.4252 917.645 88.4601C918.344 88.4999 919.042 88.2957 919.661 87.982C921.377 87.1105 922.075 85.4123 921.916 83.6792C920.324 84.7151 918.493 85.9003 918.044 86.3037C917.531 86.7669 916.303 86.0447 915.964 86.0398C915.715 86.0398 915.505 85.9949 915.106 86.3535C914.742 86.1692 914.028 85.8306 914.073 86.0796C914.108 86.2888 914.457 86.5776 914.717 86.7619L914.722 86.7669Z" fill="#AE7407"/>
<path d="M935.73 83.689C936.772 84.7299 937.635 86.0097 938.793 86.9261C939.282 87.3145 940 87.6532 940.634 87.4739C941.138 87.3344 941.477 86.8812 941.741 86.4629C942.345 85.5167 942.724 84.446 943.657 83.7587C944.256 83.3155 944.974 83.0665 945.109 82.2398C945.134 82.1004 945.139 81.9559 945.134 81.8115C943.178 81.946 939.072 82.5137 937.63 82.7378C937.062 82.8275 935.984 82.7378 934.732 82.5635C935.071 83.0217 935.455 83.4251 935.725 83.699L935.73 83.689Z" fill="#AE7407"/>
<path d="M923.382 82.8077C923.946 83.2011 924.52 83.6892 924.679 84.3864C924.804 84.9292 924.595 85.9501 925.193 86.234C925.508 86.3834 925.832 86.2688 926.106 86.0896C926.969 85.5318 927.558 84.5208 928.122 83.6892C928.501 83.1364 928.99 82.2848 929.583 81.5527C928.86 81.3784 928.256 81.2091 927.852 81.0746C927.463 80.9451 926.82 80.9949 926.316 81.1493C926.316 81.1493 926.316 81.1443 926.316 81.1394C926.306 81.1443 926.296 81.1493 926.286 81.1593C926.001 81.2489 925.762 81.3734 925.652 81.5178C924.839 81.976 924.041 82.4192 923.382 82.7977C923.382 82.7977 923.387 82.8027 923.392 82.8077H923.382Z" fill="#AE7407"/>
<path d="M934.088 85.7112C933.61 85.258 932.856 84.3168 932.113 84.4961C930.826 84.8048 931.774 86.9761 932.018 87.7431C932.093 87.9871 932.163 88.2461 932.228 88.52C932.427 88.754 932.637 88.9632 932.836 89.1375C933.25 89.4961 933.804 89.8496 934.378 89.7998C935.216 89.7301 935.845 88.8088 935.735 88.012C935.595 87.021 934.767 86.3586 934.088 85.7112Z" fill="#AE7407"/>
<path d="M946.79 86.3586C946.311 86.7421 945.792 86.8616 945.223 87.0359C944.45 87.275 943.971 88.0021 943.886 88.7889C943.742 90.1485 944.58 91.7571 945.692 92.519C946.376 92.9871 947.114 93.3158 947.743 93.7989C947.349 92.9373 947.254 91.6525 947.374 90.9752C947.533 90.0788 948.486 87.0608 948.696 84.9991C948.711 84.8447 948.716 84.6903 948.711 84.5459C947.912 84.9343 947.523 85.761 946.785 86.3537L946.79 86.3586Z" fill="#AE7407"/>
<path d="M926.635 93.8786C926.84 94.3517 927.049 94.8647 927.199 95.3079C927.249 95.2233 927.299 95.1436 927.348 95.0589C928.142 93.7043 928.97 91.5778 928.047 90.0739C927.029 88.4155 924.774 90.3926 923.402 90.4075C922.878 90.4125 922.295 90.1635 921.831 90.5121C921.506 90.7561 921.312 91.1794 921.152 91.538C921.057 91.7472 920.973 91.9663 920.893 92.1804C920.978 92.1904 921.067 92.1954 921.152 92.2003C923.622 92.3597 924.425 93.4802 925.817 93.8089C926.056 93.8637 926.331 93.8836 926.63 93.8786H926.635Z" fill="#AE7407"/>
</g>
<g clip-path="url(#clip11_105_1119)">
<path d="M1794.71 148.004C1794.92 145.942 1793.17 144.832 1791.95 144.777C1790.73 144.722 1785.33 145.464 1783.64 145.728C1781.94 145.992 1775.71 144.702 1773.85 144.075C1773.46 143.945 1772.81 143.995 1772.31 144.149C1772.31 144.149 1772.31 144.144 1772.31 144.139C1772.3 144.144 1772.29 144.149 1772.28 144.159C1772 144.249 1771.76 144.373 1771.65 144.518C1770.24 145.315 1768.89 146.052 1768.19 146.51C1766.54 147.586 1764.53 148.88 1764.05 149.304C1763.54 149.767 1762.31 149.045 1761.97 149.04C1761.72 149.04 1761.51 148.995 1761.12 149.354C1760.75 149.169 1760.04 148.831 1760.08 149.08C1760.12 149.289 1760.47 149.578 1760.73 149.762C1760.69 149.802 1760.66 149.842 1760.62 149.886C1759.86 150.808 1758.91 152.421 1758.39 153.223C1757.87 154.025 1756.72 154.443 1757.07 154.981C1757.42 155.514 1757.81 155.678 1757.81 155.678C1757.81 155.678 1758.43 155.867 1758.73 155.907C1759.03 155.947 1759.58 155.449 1760.02 155.24C1760.46 155.031 1761.34 155.22 1762.34 154.518C1763.33 153.816 1764.69 155.041 1767.16 155.205C1769.63 155.364 1770.43 156.485 1771.82 156.814C1772.06 156.868 1772.34 156.888 1772.64 156.883C1772.99 157.715 1773.36 158.651 1773.41 159.169C1773.52 160.225 1774.05 161.022 1774.16 161.654C1774.26 162.287 1774.1 163.98 1774 164.139C1773.89 164.299 1773.15 165.145 1773.09 165.355C1773.04 165.564 1774.53 165.673 1775 165.355L1774.9 164.508C1774.9 164.508 1775.37 164.244 1775.42 163.925C1775.48 163.607 1775.16 162.606 1775.26 161.918C1775.37 161.231 1775.79 161.6 1775.79 160.439C1775.79 159.588 1776.45 157.795 1776.97 156.485C1778.04 156.405 1779.34 156.525 1780.88 156.739C1783.16 157.058 1785.17 156.844 1787.34 155.788C1788.06 155.439 1788.58 155.081 1788.97 154.832C1789.59 155.554 1789.89 156.201 1789.98 156.953C1790.14 158.168 1790.51 157.959 1790.61 158.96C1790.72 159.966 1790.98 162.556 1790.72 163.034C1790.46 163.512 1789.82 164.408 1789.82 164.408C1789.82 164.408 1790.35 164.832 1791.2 164.617C1792.05 164.408 1791.78 163.93 1791.78 163.452C1791.78 163.019 1792 161.445 1792.28 160.33C1792.43 161.59 1792.51 163.283 1792.26 163.771C1791.89 164.513 1790.88 165.091 1791.14 165.359C1791.41 165.623 1792.79 165.464 1793.21 164.991C1793.63 164.513 1793.69 161.605 1793.9 160.285C1794.11 158.965 1795.01 158.118 1794.22 157.481C1793.42 156.844 1793.21 154.891 1793.37 153.99C1793.53 153.094 1794.48 150.076 1794.69 148.014L1794.71 148.004Z" fill="#AE7407"/>
<path d="M1760.72 149.767C1760.69 149.807 1760.65 149.847 1760.62 149.891C1760.37 150.19 1760.11 150.554 1759.84 150.947C1759.87 150.942 1759.9 150.932 1759.92 150.927C1760.55 150.803 1761.08 150.857 1761.69 151.012C1762.33 151.181 1762.98 151.425 1763.65 151.46C1764.34 151.5 1765.04 151.296 1765.66 150.982C1767.38 150.11 1768.08 148.412 1767.92 146.679C1766.32 147.715 1764.49 148.9 1764.04 149.304C1763.53 149.767 1762.3 149.045 1761.96 149.04C1761.71 149.04 1761.51 148.995 1761.11 149.354C1760.74 149.169 1760.03 148.831 1760.07 149.08C1760.11 149.289 1760.46 149.578 1760.72 149.762L1760.72 149.767Z" fill="#AE7407"/>
<path d="M1781.73 146.689C1782.77 147.73 1783.64 149.01 1784.79 149.926C1785.28 150.315 1786 150.653 1786.63 150.474C1787.14 150.334 1787.48 149.881 1787.74 149.463C1788.34 148.517 1788.72 147.446 1789.66 146.759C1790.26 146.316 1790.97 146.067 1791.11 145.24C1791.13 145.1 1791.14 144.956 1791.13 144.812C1789.18 144.946 1785.07 145.514 1783.63 145.738C1783.06 145.827 1781.98 145.738 1780.73 145.564C1781.07 146.022 1781.46 146.425 1781.72 146.699L1781.73 146.689Z" fill="#AE7407"/>
<path d="M1769.38 145.808C1769.95 146.201 1770.52 146.689 1770.68 147.386C1770.8 147.929 1770.59 148.95 1771.19 149.234C1771.51 149.383 1771.83 149.269 1772.11 149.09C1772.97 148.532 1773.56 147.521 1774.12 146.689C1774.5 146.136 1774.99 145.285 1775.58 144.553C1774.86 144.378 1774.26 144.209 1773.85 144.075C1773.46 143.945 1772.82 143.995 1772.32 144.149C1772.32 144.149 1772.32 144.144 1772.32 144.139C1772.31 144.144 1772.3 144.149 1772.29 144.159C1772 144.249 1771.76 144.373 1771.65 144.518C1770.84 144.976 1770.04 145.419 1769.38 145.798C1769.38 145.798 1769.39 145.803 1769.39 145.808H1769.38Z" fill="#AE7407"/>
<path d="M1780.09 148.711C1779.61 148.258 1778.86 147.317 1778.11 147.496C1776.83 147.805 1777.77 149.976 1778.02 150.743C1778.09 150.987 1778.16 151.246 1778.23 151.52C1778.43 151.754 1778.64 151.963 1778.84 152.137C1779.25 152.496 1779.8 152.85 1780.38 152.8C1781.22 152.73 1781.84 151.809 1781.73 151.012C1781.6 150.021 1780.77 149.359 1780.09 148.711Z" fill="#AE7407"/>
<path d="M1792.79 149.359C1792.31 149.742 1791.79 149.862 1791.22 150.036C1790.45 150.275 1789.97 151.002 1789.89 151.789C1789.74 153.148 1790.58 154.757 1791.69 155.519C1792.38 155.987 1793.11 156.316 1793.74 156.799C1793.35 155.937 1793.25 154.652 1793.37 153.975C1793.53 153.079 1794.49 150.061 1794.7 147.999C1794.71 147.845 1794.72 147.69 1794.71 147.546C1793.91 147.934 1793.52 148.761 1792.78 149.354L1792.79 149.359Z" fill="#AE7407"/>
<path d="M1772.63 156.879C1772.84 157.352 1773.05 157.865 1773.2 158.308C1773.25 158.223 1773.3 158.144 1773.35 158.059C1774.14 156.704 1774.97 154.578 1774.05 153.074C1773.03 151.415 1770.77 153.393 1769.4 153.408C1768.88 153.412 1768.29 153.163 1767.83 153.512C1767.51 153.756 1767.31 154.179 1767.15 154.538C1767.06 154.747 1766.97 154.966 1766.89 155.18C1766.98 155.19 1767.07 155.195 1767.15 155.2C1769.62 155.36 1770.42 156.48 1771.82 156.809C1772.06 156.864 1772.33 156.884 1772.63 156.879H1772.63Z" fill="#AE7407"/>
</g>
<path d="M996.701 85.0039C996.91 82.9421 995.164 81.8316 993.947 81.7768C992.73 81.722 987.327 82.4641 985.631 82.728C983.934 82.9919 977.703 81.7021 975.842 81.0746C975.453 80.9451 974.81 80.9949 974.306 81.1493C974.306 81.1493 974.306 81.1443 974.306 81.1394C974.296 81.1443 974.286 81.1493 974.276 81.1593C973.992 81.2489 973.752 81.3734 973.642 81.5178C972.236 82.3147 970.884 83.0517 970.18 83.5099C968.534 84.5856 966.523 85.8804 966.049 86.3037C965.536 86.7668 964.308 86.0447 963.969 86.0398C963.72 86.0398 963.51 85.9949 963.111 86.3535C962.747 86.1692 962.033 85.8306 962.078 86.0796C962.113 86.2888 962.462 86.5776 962.722 86.7619C962.687 86.8017 962.652 86.8415 962.617 86.8864C961.859 87.8077 960.901 89.4212 960.382 90.223C959.863 91.0248 958.716 91.4431 959.065 91.981C959.414 92.5139 959.808 92.6782 959.808 92.6782C959.808 92.6782 960.427 92.8675 960.721 92.9073C961.021 92.9471 961.574 92.4491 962.013 92.24C962.457 92.0308 963.335 92.22 964.333 91.5178C965.326 90.8157 966.683 92.0408 969.152 92.2051C971.622 92.3645 972.425 93.485 973.817 93.8137C974.056 93.8684 974.331 93.8884 974.63 93.8834C974.989 94.7151 975.359 95.6513 975.408 96.1692C975.513 97.225 976.042 98.0218 976.152 98.6543C976.257 99.2868 976.097 100.98 975.992 101.139C975.887 101.299 975.144 102.145 975.089 102.355C975.034 102.564 976.521 102.673 976.995 102.355L976.89 101.508C976.89 101.508 977.369 101.244 977.419 100.925C977.474 100.607 977.155 99.6055 977.259 98.9183C977.364 98.231 977.788 98.5995 977.788 97.4392C977.788 96.5876 978.442 94.7947 978.961 93.485C980.033 93.4053 981.33 93.5248 982.872 93.739C985.152 94.0577 987.162 93.8435 989.332 92.7878C990.051 92.4392 990.575 92.0806 990.969 91.8316C991.582 92.5537 991.882 93.2011 991.976 93.9531C992.136 95.1682 992.505 94.9591 992.61 95.9601C992.715 96.9661 992.979 99.5557 992.715 100.034C992.45 100.512 991.817 101.408 991.817 101.408C991.817 101.408 992.346 101.832 993.194 101.617C994.042 101.408 993.777 100.93 993.777 100.452C993.777 100.019 993.997 98.4451 994.276 97.3296C994.421 98.5896 994.501 100.283 994.251 100.771C993.882 101.513 992.874 102.091 993.139 102.359C993.403 102.623 994.78 102.464 995.204 101.991C995.628 101.513 995.683 98.6045 995.893 97.2848C996.102 95.9651 997.005 95.1184 996.212 94.481C995.419 93.8435 995.204 91.8914 995.364 90.99C995.524 90.0935 996.476 87.0756 996.686 85.0139L996.701 85.0039Z" fill="#AE7407"/>
<path d="M1756.7 132.003C1756.91 129.942 1755.16 128.831 1753.95 128.776C1752.73 128.722 1747.33 129.464 1745.63 129.728C1743.93 129.991 1737.7 128.702 1735.84 128.074C1735.45 127.945 1734.81 127.994 1734.31 128.149C1734.31 128.149 1734.31 128.144 1734.31 128.139C1734.3 128.144 1734.29 128.149 1734.28 128.159C1733.99 128.248 1733.75 128.373 1733.64 128.517C1732.24 129.314 1730.88 130.051 1730.18 130.509C1728.53 131.585 1726.52 132.88 1726.05 133.303C1725.54 133.766 1724.31 133.044 1723.97 133.039C1723.72 133.039 1723.51 132.994 1723.11 133.353C1722.75 133.169 1722.03 132.83 1722.08 133.079C1722.11 133.288 1722.46 133.577 1722.72 133.761C1722.69 133.801 1722.65 133.841 1722.62 133.886C1721.86 134.807 1720.9 136.421 1720.38 137.223C1719.86 138.024 1718.72 138.443 1719.06 138.981C1719.41 139.513 1719.81 139.678 1719.81 139.678C1719.81 139.678 1720.43 139.867 1720.72 139.907C1721.02 139.947 1721.57 139.449 1722.01 139.239C1722.46 139.03 1723.34 139.22 1724.33 138.517C1725.33 137.815 1726.68 139.04 1729.15 139.205C1731.62 139.364 1732.43 140.484 1733.82 140.813C1734.06 140.868 1734.33 140.888 1734.63 140.883C1734.99 141.715 1735.36 142.651 1735.41 143.169C1735.51 144.225 1736.04 145.021 1736.15 145.654C1736.26 146.286 1736.1 147.98 1735.99 148.139C1735.89 148.298 1735.14 149.145 1735.09 149.354C1735.03 149.563 1736.52 149.673 1736.99 149.354L1736.89 148.507C1736.89 148.507 1737.37 148.243 1737.42 147.925C1737.47 147.606 1737.15 146.605 1737.26 145.918C1737.36 145.231 1737.79 145.599 1737.79 144.439C1737.79 143.587 1738.44 141.794 1738.96 140.484C1740.03 140.405 1741.33 140.524 1742.87 140.738C1745.15 141.057 1747.16 140.843 1749.33 139.787C1750.05 139.439 1750.57 139.08 1750.97 138.831C1751.58 139.553 1751.88 140.201 1751.98 140.953C1752.14 142.168 1752.51 141.959 1752.61 142.96C1752.71 143.966 1752.98 146.555 1752.71 147.033C1752.45 147.511 1751.82 148.408 1751.82 148.408C1751.82 148.408 1752.35 148.831 1753.19 148.617C1754.04 148.408 1753.78 147.93 1753.78 147.452C1753.78 147.018 1754 145.445 1754.28 144.329C1754.42 145.589 1754.5 147.282 1754.25 147.77C1753.88 148.512 1752.87 149.09 1753.14 149.359C1753.4 149.623 1754.78 149.464 1755.2 148.99C1755.63 148.512 1755.68 145.604 1755.89 144.284C1756.1 142.965 1757.01 142.118 1756.21 141.481C1755.42 140.843 1755.2 138.891 1755.36 137.989C1755.52 137.093 1756.48 134.075 1756.69 132.013L1756.7 132.003Z" fill="#AE7407"/>
<path d="M1044.7 85.0039C1044.91 82.9421 1043.16 81.8316 1041.95 81.7768C1040.73 81.722 1035.33 82.4641 1033.63 82.728C1031.93 82.9919 1025.7 81.7021 1023.84 81.0746C1023.45 80.9451 1022.81 80.9949 1022.31 81.1493C1022.31 81.1493 1022.31 81.1443 1022.31 81.1394C1022.3 81.1443 1022.29 81.1493 1022.28 81.1593C1021.99 81.2489 1021.75 81.3734 1021.64 81.5178C1020.24 82.3147 1018.88 83.0517 1018.18 83.5099C1016.53 84.5856 1014.52 85.8804 1014.05 86.3037C1013.54 86.7668 1012.31 86.0447 1011.97 86.0398C1011.72 86.0398 1011.51 85.9949 1011.11 86.3535C1010.75 86.1692 1010.03 85.8306 1010.08 86.0796C1010.11 86.2888 1010.46 86.5776 1010.72 86.7619C1010.69 86.8017 1010.65 86.8415 1010.62 86.8864C1009.86 87.8077 1008.9 89.4212 1008.38 90.223C1007.86 91.0248 1006.72 91.4431 1007.06 91.981C1007.41 92.5139 1007.81 92.6782 1007.81 92.6782C1007.81 92.6782 1008.43 92.8675 1008.72 92.9073C1009.02 92.9471 1009.57 92.4491 1010.01 92.24C1010.46 92.0308 1011.34 92.22 1012.33 91.5178C1013.33 90.8157 1014.68 92.0408 1017.15 92.2051C1019.62 92.3645 1020.43 93.485 1021.82 93.8137C1022.06 93.8684 1022.33 93.8884 1022.63 93.8834C1022.99 94.7151 1023.36 95.6513 1023.41 96.1692C1023.51 97.225 1024.04 98.0218 1024.15 98.6543C1024.26 99.2868 1024.1 100.98 1023.99 101.139C1023.89 101.299 1023.14 102.145 1023.09 102.355C1023.03 102.564 1024.52 102.673 1024.99 102.355L1024.89 101.508C1024.89 101.508 1025.37 101.244 1025.42 100.925C1025.47 100.607 1025.15 99.6055 1025.26 98.9183C1025.36 98.231 1025.79 98.5995 1025.79 97.4392C1025.79 96.5876 1026.44 94.7947 1026.96 93.485C1028.03 93.4053 1029.33 93.5248 1030.87 93.739C1033.15 94.0577 1035.16 93.8435 1037.33 92.7878C1038.05 92.4392 1038.57 92.0806 1038.97 91.8316C1039.58 92.5537 1039.88 93.2011 1039.98 93.9531C1040.14 95.1682 1040.51 94.9591 1040.61 95.9601C1040.71 96.9661 1040.98 99.5557 1040.71 100.034C1040.45 100.512 1039.82 101.408 1039.82 101.408C1039.82 101.408 1040.35 101.832 1041.19 101.617C1042.04 101.408 1041.78 100.93 1041.78 100.452C1041.78 100.019 1042 98.4451 1042.28 97.3296C1042.42 98.5896 1042.5 100.283 1042.25 100.771C1041.88 101.513 1040.87 102.091 1041.14 102.359C1041.4 102.623 1042.78 102.464 1043.2 101.991C1043.63 101.513 1043.68 98.6045 1043.89 97.2848C1044.1 95.9651 1045.01 95.1184 1044.21 94.481C1043.42 93.8435 1043.2 91.8914 1043.36 90.99C1043.52 90.0935 1044.48 87.0756 1044.69 85.0139L1044.7 85.0039Z" fill="#AE7407"/>
<path d="M1670.02 151.003C1669.81 148.942 1671.55 147.831 1672.77 147.776C1673.99 147.722 1679.39 148.464 1681.09 148.728C1682.78 148.991 1689.01 147.702 1690.88 147.074C1691.26 146.945 1691.91 146.994 1692.41 147.149C1692.41 147.149 1692.41 147.144 1692.41 147.139C1692.42 147.144 1692.43 147.149 1692.44 147.159C1692.73 147.248 1692.97 147.373 1693.08 147.517C1694.48 148.314 1695.83 149.051 1696.54 149.509C1698.18 150.585 1700.19 151.88 1700.67 152.303C1701.18 152.766 1702.41 152.044 1702.75 152.039C1703 152.039 1703.21 151.994 1703.61 152.353C1703.97 152.169 1704.68 151.83 1704.64 152.079C1704.6 152.288 1704.26 152.577 1704 152.761C1704.03 152.801 1704.07 152.841 1704.1 152.886C1704.86 153.807 1705.82 155.421 1706.34 156.223C1706.85 157.024 1708 157.443 1707.65 157.981C1707.3 158.513 1706.91 158.678 1706.91 158.678C1706.91 158.678 1706.29 158.867 1706 158.907C1705.7 158.947 1705.14 158.449 1704.7 158.239C1704.26 158.03 1703.38 158.22 1702.38 157.517C1701.39 156.815 1700.04 158.04 1697.57 158.205C1695.1 158.364 1694.29 159.484 1692.9 159.813C1692.66 159.868 1692.39 159.888 1692.09 159.883C1691.73 160.715 1691.36 161.651 1691.31 162.169C1691.2 163.225 1690.68 164.021 1690.57 164.654C1690.46 165.286 1690.62 166.98 1690.73 167.139C1690.83 167.298 1691.57 168.145 1691.63 168.354C1691.68 168.563 1690.2 168.673 1689.72 168.354L1689.83 167.507C1689.83 167.507 1689.35 167.243 1689.3 166.925C1689.24 166.606 1689.56 165.605 1689.46 164.918C1689.35 164.231 1688.93 164.599 1688.93 163.439C1688.93 162.587 1688.28 160.794 1687.76 159.484C1686.68 159.405 1685.39 159.524 1683.85 159.738C1681.57 160.057 1679.56 159.843 1677.39 158.787C1676.67 158.439 1676.14 158.08 1675.75 157.831C1675.14 158.553 1674.84 159.201 1674.74 159.953C1674.58 161.168 1674.21 160.959 1674.11 161.96C1674 162.966 1673.74 165.555 1674 166.033C1674.27 166.511 1674.9 167.408 1674.9 167.408C1674.9 167.408 1674.37 167.831 1673.52 167.617C1672.68 167.408 1672.94 166.93 1672.94 166.452C1672.94 166.018 1672.72 164.445 1672.44 163.329C1672.3 164.589 1672.22 166.282 1672.47 166.77C1672.84 167.512 1673.84 168.09 1673.58 168.359C1673.31 168.623 1671.94 168.464 1671.51 167.99C1671.09 167.512 1671.03 164.604 1670.83 163.284C1670.62 161.965 1669.71 161.118 1670.51 160.481C1671.3 159.843 1671.51 157.891 1671.35 156.989C1671.19 156.093 1670.24 153.075 1670.03 151.013L1670.02 151.003Z" fill="#AE7407"/>
<g clip-path="url(#clip12_105_1119)">
<path d="M1493.87 87.8382C1493.53 89.0593 1492.53 91.7864 1492.06 93.5231C1491.58 95.2598 1492.84 97.5663 1493.27 98.1905C1493.69 98.8146 1494.06 98.3397 1494.06 98.3397C1494.06 98.3397 1494.78 100.266 1495.4 100.511L1496 100.755C1496 100.755 1497.34 102.627 1499.88 103.306C1502.42 103.984 1502.49 103.984 1503.46 103.59C1504.42 103.211 1505.16 102.288 1505.16 102.288C1505.16 102.288 1505.76 102.573 1506.38 102.139C1506.98 101.705 1507.95 100.266 1507.95 100.266C1507.95 100.266 1509.04 100.321 1509.59 99.7915C1510.13 99.2623 1510.93 98.5839 1510.93 98.5839C1510.93 98.5839 1512.38 99.4523 1513.18 98.8689C1513.96 98.2854 1513.3 97.1322 1513.3 97.1322C1513.3 97.1322 1516.28 97.3221 1516.52 96.603C1516.75 95.8839 1515.06 94.5271 1515.06 94.5271C1515.06 94.5271 1517.31 94.0523 1516.77 93.2246C1516.22 92.4106 1515.01 91.9221 1515.01 91.9221C1515.01 91.9221 1515.19 90.3754 1516.71 90.8638C1518.24 91.3387 1515.86 88.2588 1513.01 88.4623C1510.16 88.6523 1508.46 91.6372 1506.33 91.9764C1504.21 92.3156 1501.73 89.6699 1501.29 88.0824C1500.87 86.495 1498.5 84.3241 1496.74 83.2658C1496.74 83.2658 1497.52 83.2658 1497.9 82.8317C1498.26 82.3975 1497.17 82.3025 1497.17 82.3025C1497.17 82.3025 1497.53 81.4885 1496.99 81.4342C1496.45 81.3799 1496.14 81.7734 1496.14 81.7734C1496.14 81.7734 1496.19 80.9593 1495.9 81C1495.59 81.0543 1494.94 81.8141 1494.94 81.8141C1494.94 81.8141 1494.88 81.19 1494.39 81.5699C1493.9 81.9498 1493.79 82.194 1493.79 82.194C1493.79 82.194 1493.37 81.6106 1493.12 82.1397C1492.88 82.6689 1492.81 82.8588 1492.81 82.8588C1492.81 82.8588 1492.03 83.0488 1492.03 83.5372C1492.03 83.5372 1492.63 83.4829 1492.94 83.7271C1493.25 83.9714 1492.94 84.7312 1492.63 85.0297C1492.32 85.3146 1492.45 86.1829 1493.41 85.9387C1494.38 85.6945 1494.08 87.1869 1493.9 87.8111L1493.87 87.8382Z" fill="#CE666D"/>
<path d="M1502.17 101.528C1502.17 101.528 1502.58 105.069 1502.42 106.101C1502.27 107.132 1501.42 108 1501.42 108L1502.47 107.172L1502.31 107.905C1502.31 107.905 1502.86 107.037 1503.16 107.037C1503.47 107.037 1504.66 107.132 1504.66 107.132C1504.66 107.132 1503.21 106.793 1503.05 106.114C1502.9 105.436 1503.35 101.447 1503.35 101.447L1502.14 101.542L1502.17 101.528Z" fill="#CE666D"/>
<path d="M1501.14 100.795C1501.14 100.795 1500.75 104.35 1500.37 105.314C1499.99 106.277 1498.97 106.955 1498.97 106.955L1500.19 106.372L1499.88 107.05C1499.88 107.05 1500.61 106.304 1500.9 106.372C1501.19 106.44 1502.34 106.779 1502.34 106.779C1502.34 106.779 1501 106.141 1501 105.449C1501 104.757 1502.33 100.958 1502.33 100.958L1501.12 100.809L1501.14 100.795Z" fill="#CE666D"/>
<path d="M1546.51 101.528C1546.51 101.528 1546.91 105.069 1546.76 106.1C1546.6 107.118 1545.75 108 1545.75 108L1546.8 107.172L1546.65 107.905C1546.65 107.905 1547.19 107.036 1547.5 107.036C1547.81 107.036 1548.99 107.131 1548.99 107.131C1548.99 107.131 1547.54 106.792 1547.39 106.114C1547.23 105.435 1547.68 101.446 1547.68 101.446L1546.48 101.541L1546.51 101.528Z" fill="#CE666D"/>
<path d="M1545.47 100.795C1545.47 100.795 1545.08 104.35 1544.7 105.314C1544.33 106.277 1543.31 106.955 1543.31 106.955L1544.52 106.372L1544.22 107.05C1544.22 107.05 1544.94 106.304 1545.24 106.372C1545.53 106.44 1546.67 106.779 1546.67 106.779C1546.67 106.779 1545.33 106.141 1545.33 105.449C1545.33 104.757 1546.66 100.958 1546.66 100.958L1545.47 100.809V100.795Z" fill="#CE666D"/>
<path d="M1560 92.6681C1560.04 91.9083 1558.04 91.04 1558.04 91.04C1558.04 91.04 1560.08 90.0088 1559.33 89.3576C1558.59 88.7063 1557.28 88.5435 1557.28 88.5435C1557.28 88.5435 1557.04 87.0103 1558.63 87.0917C1560.22 87.1731 1557.11 84.7988 1554.41 85.7078C1551.72 86.6169 1550.88 89.9274 1548.91 90.7958C1546.95 91.6641 1543.84 89.7375 1543 88.3128C1542.64 87.6887 1541.87 87.0375 1540.95 86.4676C1540.81 86.4269 1538.84 84.6631 1536.31 85.0159C1535.51 85.1244 1534.42 85.8842 1533.99 86.6711C1534.03 86.9832 1533.95 87.3631 1533.81 87.5802C1533.8 87.6073 1533.78 87.6344 1533.78 87.6752L1533.18 88.5978L1534.45 88.3942C1534.45 88.3942 1534.51 88.3942 1534.55 88.3807H1534.61V88.3671C1534.68 88.34 1534.76 88.3128 1534.84 88.2721C1535.71 87.7973 1535.82 89.3169 1535.82 89.9545C1535.81 91.2164 1535.6 94.1063 1535.6 95.8973C1535.6 97.6882 1537.44 99.6013 1538.03 100.09C1538.6 100.592 1538.82 100.035 1538.82 100.035C1538.82 100.035 1540.04 101.704 1540.7 101.786L1541.35 101.867C1541.35 101.867 1543.14 103.346 1545.78 103.346C1548.42 103.346 1548.48 103.346 1549.31 102.722C1550.15 102.098 1550.6 101.039 1550.6 101.039C1550.6 101.039 1551.26 101.162 1551.73 100.592C1552.21 100.022 1552.75 98.3802 1552.75 98.3802C1552.75 98.3802 1553.81 98.1495 1554.2 97.4983C1554.59 96.847 1555.17 95.9922 1555.17 95.9922C1555.17 95.9922 1556.8 96.4535 1557.42 95.7073C1558.02 94.9475 1557.07 93.9978 1557.07 93.9978C1557.07 93.9978 1559.99 93.4279 1560.03 92.6681H1560Z" fill="#CE666D"/>
<path d="M1444.11 94.785C1444.51 95.9926 1445.28 98.7875 1445.87 100.484C1446.47 102.179 1448.86 103.401 1449.57 103.699C1450.28 103.998 1450.31 103.387 1450.31 103.387C1450.31 103.387 1452.03 104.581 1452.67 104.459L1453.31 104.323C1453.31 104.323 1455.5 105.151 1458 104.323C1460.5 103.496 1460.56 103.468 1461.13 102.614C1461.72 101.772 1461.79 100.619 1461.79 100.619C1461.79 100.619 1462.46 100.524 1462.71 99.8458C1462.96 99.1539 1462.94 97.4308 1462.94 97.4308C1462.94 97.4308 1463.87 96.8745 1464.01 96.1418C1464.16 95.4091 1464.43 94.4187 1464.43 94.4187C1464.43 94.4187 1466.13 94.3509 1466.46 93.4418C1466.78 92.5328 1465.56 91.9358 1465.56 91.9358C1465.56 91.9358 1468.13 90.484 1467.92 89.7514C1467.71 89.0187 1465.52 88.8287 1465.52 88.8287C1465.52 88.8287 1467.1 87.2142 1466.18 86.8343C1465.25 86.4544 1463.97 86.7122 1463.97 86.7122C1463.97 86.7122 1463.23 85.3418 1464.77 84.9076C1466.3 84.487 1462.56 83.2117 1460.31 84.9212C1458.06 86.6308 1458.37 90.0227 1456.8 91.4609C1455.24 92.8991 1451.65 92.0579 1450.38 90.9725C1449.11 89.887 1445.91 89.3715 1443.84 89.4529C1443.84 89.4529 1444.5 89.0187 1444.55 88.4624C1444.61 87.9061 1443.65 88.4217 1443.65 88.4217C1443.65 88.4217 1443.48 87.5398 1442.99 87.7976C1442.5 88.0554 1442.47 88.5438 1442.47 88.5438C1442.47 88.5438 1442.05 87.8383 1441.83 88.0418C1441.61 88.2453 1441.49 89.2493 1441.49 89.2493C1441.49 89.2493 1441.09 88.7609 1440.91 89.3443C1440.73 89.9277 1440.77 90.1991 1440.77 90.1991C1440.77 90.1991 1440.08 89.9549 1440.18 90.5247C1440.28 91.0946 1440.35 91.2845 1440.35 91.2845C1440.35 91.2845 1439.8 91.8679 1440.08 92.275C1440.08 92.275 1440.56 91.9086 1440.95 91.9358C1441.34 91.9765 1441.54 92.777 1441.45 93.184C1441.37 93.5911 1441.97 94.2423 1442.64 93.5096C1443.31 92.777 1443.91 94.188 1444.12 94.7986L1444.11 94.785Z" fill="#CE666D"/>
<path d="M1457.7 101.203C1457.7 101.203 1457.42 104.757 1457.08 105.734C1456.75 106.711 1455.74 107.417 1455.74 107.417L1456.93 106.793L1456.65 107.485C1456.65 107.485 1457.36 106.725 1457.66 106.779C1457.95 106.833 1459.11 107.145 1459.11 107.145C1459.11 107.145 1457.75 106.548 1457.73 105.856C1457.71 105.164 1458.9 101.325 1458.9 101.325L1457.7 101.203Z" fill="#CE666D"/>
<path d="M1456.37 101.107C1456.37 101.107 1455.31 104.527 1454.76 105.408C1454.22 106.29 1453.09 106.779 1453.09 106.779L1454.39 106.412L1453.95 107.023C1453.95 107.023 1454.81 106.426 1455.09 106.535C1455.36 106.643 1456.43 107.199 1456.43 107.199C1456.43 107.199 1455.23 106.331 1455.36 105.653C1455.5 104.974 1457.52 101.474 1457.52 101.474L1456.37 101.107Z" fill="#CE666D"/>
</g>
<defs>
<clipPath id="clip0_105_1119">
<rect width="147" height="98" fill="white" transform="translate(1559)"/>
</clipPath>
<clipPath id="clip1_105_1119">
<rect width="381" height="76" fill="white" transform="translate(228 19.293)"/>
</clipPath>
<clipPath id="clip2_105_1119">
<rect width="24.5262" height="12.875" fill="white" transform="translate(108.679 117.667)"/>
</clipPath>
<clipPath id="clip3_105_1119">
<rect width="24.5262" height="12.875" fill="white" transform="translate(888.685 144)"/>
</clipPath>
<clipPath id="clip4_105_1119">
<rect width="28.2905" height="14.8148" fill="white" transform="matrix(-1 0 0 1 224.815 144.965)"/>
</clipPath>
<clipPath id="clip5_105_1119">
<rect width="28.2905" height="14.8148" fill="white" transform="matrix(-1 0 0 1 882.121 133.965)"/>
</clipPath>
<clipPath id="clip6_105_1119">
<rect width="28.2905" height="14.8148" fill="white" transform="translate(888 120)"/>
</clipPath>
<clipPath id="clip7_105_1119">
<rect width="28.2905" height="14.8148" fill="white" transform="matrix(-1 0 0 1 841.291 143)"/>
</clipPath>
<clipPath id="clip8_105_1119">
<rect width="52.5395" height="36.3636" fill="white" transform="translate(311 119)"/>
</clipPath>
<clipPath id="clip9_105_1119">
<rect width="37.7207" height="21.5488" fill="white" transform="translate(357.679 139)"/>
</clipPath>
<clipPath id="clip10_105_1119">
<rect width="37.7207" height="21.5488" fill="white" transform="translate(911 81)"/>
</clipPath>
<clipPath id="clip11_105_1119">
<rect width="37.7207" height="21.5488" fill="white" transform="translate(1757 144)"/>
</clipPath>
<clipPath id="clip12_105_1119">
<rect width="120" height="27" fill="white" transform="translate(1440 81)"/>
</clipPath>
</defs>
</svg>
