<svg width="1698" height="126" viewBox="0 0 1698 126" fill="none" xmlns="http://www.w3.org/2000/svg">
<path d="M1.04501 124.849C1.04501 124.849 99.545 110.204 93.5 122.5C94.0898 126.151 139.369 118.042 143.686 116.312C143.686 116.312 174.406 112.573 171.286 115.908C168.166 119.241 162.778 119.796 170.436 120.63C178.093 121.463 194.827 120.63 194.827 120.63C194.827 120.63 200.776 114.776 199.207 112.086C197.636 109.395 191.358 111.893 189.201 109.203C187.043 106.514 187.436 103.247 184.689 103.055C181.943 102.863 179.588 107.283 179.588 106.707C179.588 106.13 178.411 103.824 179.981 100.174C181.55 96.5237 187.436 95.7544 190.377 97.483C193.321 99.2116 195.674 101.326 198.226 100.557C200.776 99.7878 209.015 94.9851 210.78 89.0286C212.547 83.072 210.192 72.6959 212.938 76.9224C215.685 81.1503 214.703 84.609 216.076 83.0705C217.45 81.5335 219.412 77.4986 219.412 80.5726C219.412 83.6467 218.627 87.1069 218.627 87.1069C218.627 87.1069 223.336 82.6874 222.354 85.7614C221.373 88.8355 219.803 88.0677 220.392 91.9096C220.982 95.7529 226.473 95.9445 221.57 104.399C216.665 112.853 211.761 112.469 211.761 113.238C211.761 114.007 212.742 120.155 211.761 119.003C210.78 117.851 209.602 111.894 208.425 112.662C207.249 113.431 201.56 113.431 201.56 113.431C201.56 113.431 199.01 119.003 200.579 119.386C202.15 119.771 218.431 117.657 216.666 119.001C214.901 120.347 206.661 120.73 213.92 120.923C221.179 121.115 247.27 119.962 248.251 119.578C249.231 119.193 246.878 113.236 246.878 112.66C246.878 112.084 239.619 115.927 233.929 110.547C228.24 105.167 230.202 99.9794 228.043 99.2101C225.885 98.4423 220.784 103.821 220.982 101.132C221.177 98.4423 222.551 92.6788 226.475 91.9096C230.399 91.1403 232.361 96.7122 237.462 97.4815C242.562 98.2508 251.978 93.4466 253.352 90.1795C254.726 86.9123 257.276 77.3055 258.256 79.6118C259.237 81.9166 257.864 85.7599 259.629 84.2214C261.394 82.6844 264.533 77.6887 264.533 81.1474C264.533 84.6061 261.785 89.2171 262.768 88.6409C263.749 88.0647 267.28 84.4145 266.299 87.6801C265.318 90.9472 261.591 93.6352 261.591 94.2129C261.591 94.7906 262.965 97.6731 262.18 102.284C261.394 106.895 257.276 109.778 257.47 111.315C257.667 112.853 260.413 119.578 259.432 118.425C258.451 117.271 255.117 110.355 255.117 110.355C255.117 110.355 258.453 103.053 257.864 99.2101C257.276 95.3683 259.434 95.9445 250.802 98.0562C242.17 100.171 233.929 103.628 239.227 107.858C244.524 112.084 247.466 110.547 249.428 111.891C251.39 113.236 250.213 118.615 250.213 118.615C250.213 118.615 251.783 116.694 255.117 117.463C258.453 118.231 273.166 119 273.362 117.463C273.559 115.926 266.496 112.274 269.242 110.162C271.99 108.049 281.406 107.858 280.425 107.28C279.444 106.704 274.933 104.014 276.501 103.63C278.071 103.245 283.956 105.744 284.349 104.399C284.741 103.053 284.349 103.438 284.349 102.094C284.349 100.75 283.172 98.4438 283.172 97.8661C283.172 97.2884 275.13 89.6048 273.168 84.9922C271.206 80.3811 273.364 77.3055 272.775 73.079C272.187 68.8526 267.086 68.2764 267.086 68.2764C267.086 68.2764 268.657 66.9309 271.991 66.3547C275.326 65.7785 279.447 66.7393 280.035 69.0456C280.623 71.3519 279.25 75.0022 281.997 76.5392C284.745 78.0748 295.925 80.3811 299.849 77.4986C303.774 74.6161 311.425 64.8162 311.227 66.5463C311.03 68.2749 308.48 71.1574 310.639 70.5812C312.797 70.005 316.133 67.7002 315.543 69.4288C314.954 71.1574 313.973 73.2721 313.973 73.2721C313.973 73.2721 316.915 70.9673 316.327 73.4652C315.738 75.963 312.403 77.8847 312.011 79.4202C311.619 80.9588 312.402 83.8398 307.892 90.181C303.379 96.5222 295.533 97.6746 295.337 96.1375C295.14 94.6005 297.299 105.168 296.906 104.016C296.514 102.863 295.534 98.0577 293.965 96.9053C292.394 95.7529 288.079 94.9836 287.883 95.5598C287.686 96.136 287.098 104.399 287.098 104.399C287.098 104.399 296.514 104.399 293.768 105.744C291.022 107.09 282.194 106.128 285.921 107.28C289.648 108.434 298.673 108.434 296.318 110.355C293.965 112.276 285.136 113.43 292.394 113.621C295.394 113.7 298.762 112.665 301.405 111.475C305.158 109.787 307.449 107.79 305.146 108.241C301.223 109.01 298.28 113.045 305.343 113.814C312.406 114.582 358 114.39 358 114.39" stroke="#AAA9BC" stroke-width="1.2" stroke-linecap="round" stroke-linejoin="round"/>
<path d="M1508.5 113.63C1508.5 113.63 1492.37 113.919 1489.67 113.442C1486.97 112.965 1483.98 111.543 1477.88 112.781C1471.76 114.022 1481.09 112.162 1481.2 108.234C1481.31 104.302 1480.27 92.6353 1476.79 80.7398C1473.29 68.7896 1465.91 69.149 1464.6 66.5766C1463.28 64.001 1468.69 57.2374 1470.87 50.4159C1473.05 43.5933 1453.82 46.6753 1448.01 42.3576C1442.18 38.0205 1458.35 33.1182 1458.99 26.2098C1459.64 19.295 1443.06 14.0794 1444.18 12.9798M1444.18 12.9798C1445.31 11.8803 1454.25 10.8783 1462.5 16.4801C1470.71 22.0476 1469.19 26.9854 1471.88 35.8826C1474.56 44.7476 1473.77 45.3687 1478.59 54.2477C1483.38 63.0838 1487.16 63.943 1488.41 68.0827C1489.65 72.2159 1493.02 76.2129 1491.08 80.6047C1489.13 84.9964 1489.49 88.3101 1490.05 89.8902C1490.61 91.4693 1483.99 84.4643 1484.1 80.6744C1484.21 76.8812 1488.62 71.2515 1486.21 65.3537C1483.79 59.4408 1478.22 62.0379 1474.46 54.0042C1470.69 45.9383 1474.09 45.0576 1470.26 38.8862C1466.41 32.6923 1464.92 30.7238 1465.62 27.5271C1466.32 24.3303 1467.69 30.9598 1468.42 38.5193C1469.14 46.0628 1469.82 49.5953 1470.64 53.2876C1471.46 56.9746 1474.84 62.6128 1478.68 67.4487C1482.51 72.2663 1480.1 71.4371 1480.59 81.1056C1481.08 90.7505 1482.87 102.583 1483.24 105.73C1483.61 108.875 1484.79 109.822 1485.06 111.078C1485.32 112.334 1483.51 112.328 1482.74 112.797C1481.97 113.266 1481.94 114.051 1481.44 115.934C1480.93 117.815 1472.09 118.59 1471.23 116.543C1470.38 114.494 1475.64 111.519 1477.21 109.794C1478.77 108.069 1475.59 102.224 1474.23 96.0595C1472.87 89.8816 1470.8 87.4851 1464.22 80.9029C1457.61 74.2852 1454.61 64.6521 1452.87 65.9018C1451.13 67.1537 1464.7 86.1507 1463.71 88.6802C1462.72 91.2097 1458.54 104.18 1457.06 107.816C1455.59 111.452 1458.08 110.194 1458.84 110.671C1459.59 111.148 1457.44 111.141 1456.2 111.453C1454.96 111.765 1456.55 115.725 1456.39 116.199C1456.22 116.673 1450.51 117.138 1448.19 117.134C1445.87 117.131 1447.13 116.34 1445.32 114.592C1443.5 112.841 1444.16 111.255 1447.11 110.789C1450.06 110.324 1457.71 82.4144 1453.08 76.1357C1448.43 69.8312 1449.77 65.6905 1449.79 65.049C1449.8 64.4086 1429.93 74.5933 1401.56 69.1801M1444.18 12.9798C1438.15 12.9476 1425.83 8.16871 1414.04 9.3765C1407.65 10.0304 1402.34 13.1064 1398 12.9798C1393.65 12.8532 1383.35 13.6406 1378.18 11.3246C1373 9.00212 1355.25 8.25014 1352.07 11.3139C1348.88 14.3808 1361.25 15.431 1364.29 20.5039C1367.32 25.5608 1367.42 29.6994 1367.61 38.2941C1367.8 46.8716 1364.93 42.1902 1355.96 38.5065C1346.93 34.7991 1349.32 41.6614 1347.62 45.1038C1345.92 48.5461 1338.95 36.096 1339.66 32.7845C1340.37 29.4719 1343.2 29.3808 1344.07 25.9073C1344.95 22.4327 1343.96 22.0701 1343.16 20.2132C1342.35 18.3531 1342.98 21.0414 1343.64 21.5616C1344.29 22.0819 1348.76 22.3769 1352.1 20.8097C1355.42 19.2445 1356.4 19.9397 1356.4 19.9397C1356.4 19.9397 1355.11 18.4046 1351.69 14.8045C1348.26 11.1937 1344.89 14.5932 1343.91 14.0611C1342.92 13.529 1347.59 12.0068 1347.3 8.49043C1347.02 4.97188 1341.72 3.45289 1338.72 3.01415C1335.72 2.5754 1344.48 8.3971 1341.96 10.3216C1339.44 12.2482 1321.36 10.8333 1318.19 8.20616C1315.01 5.57261 1319.96 0.683105 1319.96 0.683105C1319.96 0.683105 1315.06 0.849379 1314.49 6.56703C1313.92 12.2804 1319.98 13.9849 1320.65 14.0053C1321.33 14.0268 1319.82 12.9701 1317.63 12.7341C1315.44 12.4971 1307.63 14.7831 1306.78 15.0931C1305.93 15.4042 1306.92 17.9648 1310.45 20.5962C1313.98 23.2211 1318.07 19.473 1319.1 17.4885C1320.13 15.5029 1317.57 18.2823 1318.55 21.3353C1319.53 24.3851 1320.88 24.0879 1321 27.7792C1321.13 31.4683 1320.77 33.1342 1322.75 36.6968C1324.72 40.2529 1325.26 36.9253 1329.78 37.0368C1334.28 37.1473 1335.96 36.022 1336.6 37.8703C1337.24 39.7165 1334.09 39.1415 1331.91 39.7562C1329.73 40.3719 1329.91 39.5416 1326.75 38.2984C1323.58 37.0529 1322.72 39.3711 1322.35 41.7021C1321.99 44.0321 1323.11 49.2284 1331.96 49.0814C1340.78 48.9355 1339.43 37.9401 1338.62 36.0885C1337.81 34.237 1338.51 44.901 1340.93 49.9342C1343.35 54.9546 1344.81 56.6377 1346.56 61.4639C1348.31 66.2805 1348.31 66.4457 1352.69 70.7967C1357.05 75.1337 1364.42 74.415 1366.07 73.4549C1367.71 72.4948 1364.18 58.3198 1364.39 55.3633C1364.6 52.4047 1368.57 69.724 1367.64 77.0786C1366.7 84.4268 1361.17 104.783 1359.32 108.36C1357.47 111.938 1353.7 113.557 1350.88 115.67C1348.07 117.785 1356.24 117.959 1361.14 117.316C1366.02 116.674 1362.57 112.936 1362.57 112.936C1362.57 112.936 1364.25 112.269 1364.82 111.601C1365.39 110.932 1364.64 109.03 1365.66 108.139C1366.68 107.249 1375.07 85.1541 1378.04 80.2582C1381.02 75.3665 1384.76 71.0477 1387.16 67.0507C1389.55 63.0548 1390.58 49.6028 1387.27 54.5931C1383.96 59.5867 1380.32 77.1505 1379.85 78.6008C1379.38 80.0511 1380.68 88.235 1381.85 91.1507C1383.01 94.0631 1389.09 105.904 1388.71 108.569C1388.33 111.231 1381.66 114.544 1385.16 115.884C1388.66 117.22 1393.85 115.901 1393.99 114.24C1394.14 112.579 1392.95 111.579 1393.94 111.249C1394.94 110.92 1395.82 110.813 1395.94 110.259C1396.06 109.706 1393.48 106.59 1392.99 103.259C1392.51 99.9234 1389.28 89.6574 1390.21 81.1893C1391.14 72.7094 1393.75 69.0578 1393.75 69.0578C1393.75 69.0578 1386.34 69.0546 1390.43 69.3421C1394.51 69.6285 1402.11 69.4118 1401.56 69.1801M1401.56 69.1801C1401.02 68.9484 1388.9 68.7585 1386.42 70.7355C1383.95 72.7158 1376.86 78.1127 1376.4 78.7799C1375.94 79.4472 1368.77 74.7465 1368.94 78.0108C1369.11 81.273 1373.86 84.0213 1372.15 86.3566C1370.44 88.693 1365.72 90.4427 1365.78 93.6963C1365.84 96.9477 1366.95 97.5162 1365.78 100.419C1364.62 103.323 1362.78 106.896 1362.28 109.802C1361.79 112.708 1351.18 109.874 1350.26 111.217C1349.34 112.561 1351.57 113.689 1346.84 114.014C1342.99 114.278 1119.74 115.996 1076.5 116" stroke="#AAA9BC" stroke-width="1.2" stroke-linecap="round" stroke-linejoin="round"/>
<path d="M1787 113.392C1787 113.392 1631.11 113.575 1629.41 113.273C1627.71 112.971 1625.83 112.073 1621.98 112.855C1618.12 113.64 1624 112.464 1624.07 109.981C1624.14 107.496 1623.48 100.121 1621.29 92.6025C1619.09 85.049 1614.44 85.2761 1613.61 83.6502C1612.78 82.0221 1616.19 77.747 1617.56 73.4353C1618.94 69.1228 1606.82 71.0709 1603.16 68.3417C1599.48 65.6004 1609.67 62.5017 1610.08 58.135C1610.48 53.7642 1600.04 50.4675 1600.75 49.7725M1600.75 49.7725C1601.45 49.0775 1607.09 48.4442 1612.29 51.985C1617.46 55.5041 1616.5 58.6252 1618.2 64.249C1619.89 69.8524 1619.39 70.245 1622.43 75.8573C1625.44 81.4424 1627.83 81.9855 1628.61 84.6021C1629.4 87.2147 1631.52 89.7411 1630.3 92.5171C1629.07 95.293 1629.3 97.3875 1629.65 98.3863C1630 99.3844 1625.83 94.9567 1625.9 92.5611C1625.97 90.1635 1628.75 86.6051 1627.23 82.8772C1625.7 79.1397 1622.19 80.7813 1619.82 75.7034C1617.45 70.6051 1619.59 70.0484 1617.18 66.1475C1614.75 62.2325 1613.81 60.9882 1614.25 58.9676C1614.7 56.947 1615.56 61.1374 1616.02 65.9156C1616.47 70.6837 1616.9 72.9166 1617.42 75.2504C1617.94 77.5809 1620.06 81.1447 1622.48 84.2014C1624.9 87.2466 1623.38 86.7224 1623.69 92.8337C1624 98.9301 1625.13 106.409 1625.36 108.398C1625.59 110.387 1626.33 110.985 1626.5 111.779C1626.67 112.573 1625.53 112.569 1625.04 112.865C1624.55 113.162 1624.54 113.658 1624.22 114.848C1623.9 116.037 1618.33 116.527 1617.79 115.233C1617.25 113.938 1620.57 112.057 1621.55 110.967C1622.54 109.877 1620.53 106.183 1619.68 102.286C1618.82 98.3809 1617.52 96.8661 1613.37 92.7056C1609.21 88.5227 1607.31 82.4337 1606.22 83.2237C1605.12 84.015 1613.67 96.0226 1613.05 97.6215C1612.43 99.2203 1609.79 107.419 1608.86 109.717C1607.93 112.015 1609.5 111.22 1609.98 111.522C1610.46 111.823 1609.1 111.819 1608.32 112.016C1607.54 112.213 1608.54 114.716 1608.44 115.016C1608.33 115.315 1604.73 115.609 1603.27 115.607C1601.81 115.605 1602.6 115.105 1601.46 114C1600.31 112.893 1600.73 111.89 1602.59 111.596C1604.45 111.302 1609.27 93.661 1606.35 89.6923C1603.42 85.7074 1604.27 83.0901 1604.28 82.6846C1604.29 82.2798 1591.76 88.7174 1573.89 85.2958M1600.75 49.7725C1596.95 49.7522 1589.18 46.7315 1581.75 47.495C1577.73 47.9083 1574.38 49.8525 1571.64 49.7725C1568.9 49.6925 1562.41 50.1902 1559.16 48.7263C1555.89 47.2583 1544.71 46.783 1542.7 48.7195C1540.69 50.6581 1548.48 51.3219 1550.4 54.5284C1552.31 57.7248 1552.37 60.3407 1552.49 65.7733C1552.61 71.195 1550.81 68.236 1545.15 65.9075C1539.47 63.5642 1540.97 67.9017 1539.9 70.0775C1538.82 72.2534 1534.44 64.3839 1534.88 62.2908C1535.33 60.1969 1537.11 60.1393 1537.66 57.9438C1538.22 55.7476 1537.59 55.5184 1537.08 54.3447C1536.58 53.1689 1536.97 54.8681 1537.39 55.197C1537.8 55.5258 1540.62 55.7123 1542.72 54.7217C1544.81 53.7324 1545.43 54.1718 1545.43 54.1718C1545.43 54.1718 1544.61 53.2015 1542.46 50.9259C1540.3 48.6436 1538.18 50.7923 1537.56 50.456C1536.93 50.1197 1539.88 49.1575 1539.7 46.9349C1539.52 44.7109 1536.18 43.7507 1534.29 43.4734C1532.4 43.1961 1537.92 46.8759 1536.33 48.0923C1534.74 49.3101 1523.35 48.4157 1521.35 46.7552C1519.35 45.0906 1522.47 42 1522.47 42C1522.47 42 1519.38 42.1051 1519.02 45.7191C1518.66 49.3304 1522.48 50.4079 1522.9 50.4208C1523.33 50.4343 1522.38 49.7664 1521 49.6173C1519.62 49.4674 1514.7 50.9123 1514.16 51.1083C1513.63 51.3049 1514.25 52.9235 1516.48 54.5867C1518.7 56.2459 1521.27 53.8768 1521.92 52.6224C1522.58 51.3673 1520.96 53.1242 1521.58 55.0539C1522.19 56.9816 1523.05 56.7938 1523.12 59.127C1523.2 61.4588 1522.98 62.5118 1524.22 64.7636C1525.47 67.0114 1525.81 64.9081 1528.65 64.9786C1531.49 65.0484 1532.55 64.3371 1532.96 65.5054C1533.36 66.6724 1531.37 66.3089 1530 66.6974C1528.63 67.0866 1528.74 66.5618 1526.75 65.776C1524.75 64.9887 1524.21 66.454 1523.98 67.9274C1523.75 69.4002 1524.45 72.6847 1530.03 72.5918C1535.59 72.4996 1534.74 65.5495 1534.23 64.3792C1533.72 63.2089 1534.15 69.9494 1535.68 73.1308C1537.2 76.3041 1538.13 77.368 1539.23 80.4185C1540.33 83.463 1540.33 83.5674 1543.09 86.3176C1545.84 89.059 1550.48 88.6047 1551.52 87.9978C1552.56 87.391 1550.34 78.4312 1550.47 76.5625C1550.6 74.6924 1553.1 85.6396 1552.51 90.2883C1551.92 94.933 1548.44 107.8 1547.27 110.061C1546.11 112.322 1543.73 113.346 1541.95 114.681C1540.18 116.018 1545.33 116.128 1548.42 115.721C1551.49 115.316 1549.32 112.953 1549.32 112.953C1549.32 112.953 1550.38 112.532 1550.74 112.109C1551.1 111.686 1550.62 110.484 1551.26 109.921C1551.91 109.359 1557.19 95.3927 1559.07 92.2981C1560.94 89.2061 1563.3 86.4763 1564.81 83.9499C1566.32 81.4241 1566.97 72.9213 1564.88 76.0756C1562.8 79.232 1560.5 90.3337 1560.21 91.2505C1559.91 92.1672 1560.73 97.3401 1561.47 99.183C1562.2 101.024 1566.03 108.508 1565.79 110.193C1565.55 111.876 1561.34 113.969 1563.56 114.816C1565.76 115.661 1569.03 114.827 1569.12 113.777C1569.21 112.728 1568.46 112.095 1569.09 111.887C1569.71 111.679 1570.27 111.611 1570.34 111.261C1570.42 110.911 1568.8 108.942 1568.49 106.836C1568.18 104.728 1566.15 98.2392 1566.74 92.8866C1567.32 87.5266 1568.97 85.2185 1568.97 85.2185C1568.97 85.2185 1564.3 85.2165 1566.88 85.3982C1569.45 85.5792 1574.23 85.4423 1573.89 85.2958M1573.89 85.2958C1573.55 85.1493 1565.91 85.0293 1564.35 86.279C1562.79 87.5307 1558.32 90.9419 1558.03 91.3637C1557.75 91.7854 1553.23 88.8142 1553.33 90.8775C1553.44 92.9395 1556.43 94.6767 1555.36 96.1528C1554.28 97.6296 1551.3 98.7355 1551.34 100.792C1551.38 102.847 1552.08 103.207 1551.34 105.041C1550.61 106.877 1549.45 109.135 1549.14 110.972C1548.83 112.809 1542.14 111.018 1541.56 111.867C1540.98 112.716 1542.39 113.429 1539.4 113.634C1536.98 113.801 1535.75 113.775 1508.5 113.777" stroke="#AAA9BC" stroke-width="1.2" stroke-linecap="round" stroke-linejoin="round"/>
<path d="M1078 115.899C1077.16 115.891 1052.52 116.328 1051.7 116.32C1045.91 116.262 1041.13 114.999 1034.56 114.964C1031.73 114.95 1028.46 115.383 1025.09 115.381C950.469 115.336 1028.75 117.091 1024.4 117.031C1024.4 117.031 1022.76 117.946 1019.84 116.3C1016.92 114.654 1017.1 112.641 1017.1 112.641C1017.1 112.641 1022.03 113.007 1023.85 108.8C1025.68 104.591 1025.49 103.677 1027.32 103.128C1029.14 102.578 1030.97 103.859 1030.97 103.859C1030.97 103.859 1032.43 100.2 1028.78 99.6517C1025.13 99.1024 1022.94 101.482 1020.93 101.482C1018.92 101.482 1011.99 94.529 1011.44 91.9687C1010.9 89.4074 1010.53 78.9799 1008.89 82.4568C1007.25 85.9326 1007.98 88.4929 1007.8 87.2122C1007.61 85.9315 1005.97 81.3592 1005.79 83.9195C1005.61 86.4798 1006.15 90.6869 1005.79 89.4074C1005.42 88.1267 1003.78 80.2606 1003.6 84.4677C1003.42 88.676 1003.6 91.0532 1003.6 91.0532C1003.6 91.0532 1000.86 89.4074 1000.31 91.4194C999.768 93.4303 999.402 101.847 1002.14 104.773C1004.88 107.701 1008.71 109.53 1008.71 110.627C1008.71 111.725 1007.61 117.396 1008.52 116.482C1009.44 115.567 1012.72 111.543 1011.44 110.078C1010.17 108.615 1003.78 111.542 1004.33 101.846C1004.88 92.1507 1008.52 89.2231 1009.44 93.2483C1010.35 97.2724 1011.26 101.481 1015.27 102.76C1019.29 104.041 1017.28 111.176 1016 111.542C1014.73 111.907 1012.72 115.749 1012.72 115.749C1012.72 115.749 998.855 116.114 997.395 115.383C995.936 114.652 993.928 106.602 994.476 105.505C995.023 104.407 994.476 101.481 996.483 94.7121C998.489 87.9436 998.307 79.1619 997.213 81.3581C996.119 83.5533 997.577 86.2966 996.119 83.5533C994.659 80.8099 994.112 78.4316 993.747 79.7112C993.383 80.9919 994.112 84.4677 993.2 82.6388C992.288 80.8099 991.194 77.8834 991.011 78.9799C990.829 80.0774 990.464 86.664 987.544 91.2363C984.625 95.8097 979.517 98.1879 975.504 96.3579C971.49 94.5279 969.3 91.4194 966.929 93.6134C964.558 95.8097 964.009 98.5531 964.009 98.5531C964.009 98.5531 966.016 96.9073 967.111 97.6386C968.206 98.3699 964.922 99.4675 971.49 104.225C978.057 108.981 981.158 107.884 982.07 108.615C982.982 109.347 978.969 118.127 980.976 115.75C982.982 113.372 983.166 110.079 985.355 109.348C987.544 108.617 989.916 106.787 990.646 108.25C991.375 109.714 991.01 114.653 992.104 114.653C993.199 114.653 1000.86 112.458 992.834 113.738C984.806 115.019 971.123 115.385 970.577 115.385C970.03 115.385 959.448 115.203 961.272 113.373C963.096 111.544 968.752 110.812 965.833 109.531C962.913 108.25 960.36 107.885 955.799 108.067C951.238 108.25 946.13 110.079 945.4 106.97C944.67 103.86 946.676 101.116 947.406 101.299C948.136 101.482 953.243 100.384 956.892 96.7253C960.541 93.0663 957.258 90.506 961.636 87.9436C966.014 85.3822 968.934 87.5784 967.292 86.6629C965.649 85.7484 963.46 80.6257 959.446 83.9195C955.433 87.2122 955.979 88.8591 953.243 88.8591C950.507 88.8591 938.831 89.0411 936.094 85.3822C933.358 81.7232 932.628 77.333 932.262 80.0774C931.898 82.8219 933.357 85.7484 932.08 84.6508C930.802 83.5533 929.161 79.7112 930.073 82.6388C930.985 85.5653 932.08 87.5784 931.533 87.7616C930.986 87.9436 929.526 84.8351 929.526 87.0291C929.526 89.2231 929.526 92.335 932.446 96.5421C935.366 100.749 937.736 99.6517 937.736 100.932C937.736 102.213 935.912 106.97 936.642 107.152C937.372 107.335 938.648 105.688 939.561 102.578C940.473 99.4686 941.021 101.664 937.92 97.8228C934.818 93.9808 933.176 89.7736 937.555 89.7736C941.933 89.7736 947.954 90.3218 950.144 92.7001C952.334 95.0783 953.428 94.529 947.042 100.201C940.657 105.872 938.832 107.702 939.561 108.433C940.291 109.165 946.313 108.8 944.488 109.531C942.664 110.262 938.102 109.531 940.109 111.178C942.115 112.824 949.231 114.104 947.407 115.203C945.583 116.3 927.521 116.849 926.609 114.654C925.697 112.459 924.966 109.715 924.966 109.715C924.966 109.715 928.251 109.349 929.893 104.227C931.534 99.1046 930.622 97.4577 930.805 95.6288C930.987 93.7988 932.994 89.0422 932.994 89.0422C932.994 89.0422 930.805 86.664 929.71 85.7495C928.615 84.8351 927.886 89.2254 926.79 87.3953C925.696 85.5664 925.696 82.8219 925.332 84.6508C924.966 86.4798 926.061 84.6508 923.872 88.8591C921.683 93.0663 922.96 96.5421 918.217 98.0048C913.474 99.4686 906.905 99.8337 904.898 102.944C902.893 106.055 903.257 110.627 903.805 112.091L904.352 113.554C904.352 113.554 903.805 113.189 904.534 112.091C905.264 110.994 905.446 107.884 908.183 107.884C910.92 107.884 912.015 110.627 914.02 111.543C916.027 112.458 915.844 115.933 915.844 115.933C915.844 115.933 916.939 112.091 917.851 111.908C918.763 111.725 921.683 109.895 922.229 110.994C922.777 112.091 924.053 116.482 923.689 115.933C923.324 115.384 912.013 114.286 911.465 115.567C910.918 116.848 915.662 116.298 910.918 116.848C906.549 117.353 886.734 117.407 884.63 114.896C883.862 113.979 893.8 113.586 895.862 111.519C896.798 110.58 868.396 112.459 868.396 109.371C868.396 106.284 868.53 104.407 870.537 102.663C872.543 100.919 874.953 99.5774 875.755 97.1614C876.557 94.7476 873.747 96.6254 873.347 96.4911C872.945 96.3568 876.289 91.7945 875.755 90.8556C875.22 89.9168 872.543 92.4648 866.79 93.8076C861.036 95.1494 859.966 97.8328 862.107 102.394C864.248 106.956 868.664 105.749 868.396 106.152C868.128 106.553 870.403 106.42 871.608 107.761C872.811 109.103 872.009 110.444 871.608 112.591C871.206 114.738 873.213 112.994 874.953 112.994C876.692 112.994 873.214 112.189 872.678 111.786C872.144 111.384 875.086 111.25 875.086 111.25C875.086 111.25 871.206 106.152 871.608 105.749C872.009 105.346 881.108 99.9791 881.643 95.954C882.179 91.9288 880.707 91.7956 880.439 90.4528C880.172 89.111 882.847 86.159 883.917 83.3424C884.989 80.5247 882.178 83.8784 881.643 83.8784C881.108 83.8784 881.643 81.9996 881.241 79.8533C880.841 77.7058 880.037 81.8653 879.101 83.4756C878.164 85.0859 878.298 82.9396 876.96 80.5236C875.622 78.1087 875.89 86.6951 874.151 88.9757C872.411 91.2574 864.383 93.4037 860.636 92.598C856.89 91.7934 857.425 87.4996 853.946 87.6339C850.467 87.7682 850.467 90.7191 850.066 91.9266C849.664 93.134 849.262 94.074 849.262 94.074C849.262 94.074 850.333 93.2694 851.67 92.598C853.009 91.9266 854.479 92.7323 855.819 95.4157C857.157 98.0992 856.756 103.199 859.431 104.675C862.107 106.151 865.051 106.016 866.391 107.088C867.728 108.163 867.728 111.651 866.925 112.858C866.122 114.064 861.305 113.931 861.305 113.931C861.305 113.931 845.382 114.871 841.369 114.602C837.354 114.333 841.636 113.663 843.911 112.052C846.185 110.443 832.538 111.516 829.326 110.845C826.115 110.175 834.411 107.491 834.411 107.491C834.411 107.491 831.066 107.088 830.262 106.687C829.46 106.284 831.734 106.284 833.072 106.015C834.41 105.747 831.467 105.747 831.467 105.747C831.467 105.747 829.326 102.66 828.925 101.587C828.523 100.514 825.847 100.245 823.707 98.6352C821.566 97.026 819.157 93.6711 816.882 90.1831C814.608 86.6939 818.354 89.5128 819.158 89.5128C819.961 89.5128 817.954 85.6219 819.425 84.6819C820.897 83.7419 830.263 91.2563 830.531 94.2072C830.799 97.1592 825.447 98.9037 827.186 100.111C828.926 101.319 834.279 98.0992 836.285 95.55C838.292 93.0008 838.961 92.062 840.433 91.9266C841.905 91.7923 841.236 93.5369 841.504 94.2072C841.77 94.8786 842.039 92.7323 842.306 90.8534C842.574 88.9745 841.905 87.9014 839.229 86.8282C836.553 85.7551 832.673 88.9745 829.461 89.3774C826.25 89.7802 821.968 83.0716 821.166 81.4613C820.363 79.8522 821.701 74.887 821.3 73.411C820.898 71.935 819.961 75.0202 819.292 77.1676C818.622 79.315 819.024 75.423 818.222 73.411C817.418 71.399 817.15 77.3019 816.348 79.7168C815.545 82.1316 814.34 77.7047 812.467 77.1676C810.595 76.6305 814.876 84.278 814.742 85.2179C814.608 86.1568 813.538 89.2431 816.08 93.4026C818.622 97.562 822.503 98.2334 823.707 100.111C824.911 101.99 822.77 104.674 823.171 106.82C823.572 108.967 829.058 108.162 829.058 108.162C829.058 108.162 820.896 109.235 818.755 109.906C816.613 110.576 820.495 111.65 821.297 112.588C822.1 113.528 816.079 112.991 813.135 114.199C810.191 115.406 816.212 116.211 817.015 118.09C817.818 119.967 804.036 118.358 801.092 118.358C798.148 118.358 798.818 109.771 797.747 108.429C796.677 107.087 790.655 103.867 790.655 103.867C790.655 103.867 795.07 107.623 803.1 106.283C811.128 104.941 804.304 97.8295 803.902 96.4889C803.5 95.1471 801.092 97.4277 795.472 98.9038C789.852 100.38 787.711 98.0992 786.775 98.9038C785.839 99.7095 788.381 106.015 788.649 106.954C788.916 107.893 786.909 106.417 786.508 105.478C786.107 104.539 781.156 103.599 780.219 102.66C779.283 101.721 780.889 99.7095 780.889 99.0391C780.889 98.3688 779.685 98.7706 778.079 98.3677C776.473 97.966 778.747 96.6232 779.551 95.8186C780.354 95.014 778.213 94.3426 777.678 93.1351C777.143 91.9277 780.622 92.4637 780.622 92.4637C780.622 92.4637 779.953 89.1099 783.165 89.3785C786.376 89.6471 785.841 95.55 789.855 95.9528C793.869 96.3557 799.088 95.1483 801.362 94.0751C803.638 93.0019 801.63 90.0499 801.496 87.9036C801.362 85.7573 803.369 83.8784 805.376 83.207C807.384 82.5356 807.651 84.4145 808.32 85.6219C808.99 86.8293 810.06 86.5608 810.06 86.5608C810.06 86.5608 806.714 86.6939 806.448 90.3174C806.18 93.9397 807.786 93.538 808.588 97.1592C809.392 100.783 808.188 102.795 806.448 106.686C804.708 110.576 800.961 110.442 799.891 112.455C798.821 114.467 799.891 114.199 800.159 115.809C800.426 117.419 803.237 117.016 804.307 117.285C805.377 117.554 798.687 117.688 798.687 117.688C798.687 117.688 798.017 113.797 797.751 113.127C797.483 112.455 795.475 110.04 795.475 110.04C795.475 110.04 793.87 112.588 792.397 113.663C790.925 114.736 789.32 109.369 789.32 109.369C789.32 109.369 790.659 112.052 791.327 114.066C791.997 116.078 791.194 115.273 790.791 117.286C790.39 119.298 794.271 118.359 796.01 118.359C796.358 118.223 792.436 118.872 784.801 118.588C782.586 118.506 779.752 116.363 776.997 116.551C773.542 116.788 768.909 118.39 764.877 118.395C761.586 118.398 757.804 116.405 754.251 116.408C750.898 116.412 747.784 118.413 744.291 118.417C739.254 118.423 699.6 114.597 694.5 114.602" stroke="#AAA9BC" stroke-width="1.2" stroke-linecap="round" stroke-linejoin="round"/>
<path d="M357.5 114.5C367.906 113.905 485.124 115.587 522.146 115.289C524.671 115.268 524.392 114.259 524.657 112.271C523.955 113.238 523.189 114.255 522.066 114.683C520.943 115.113 519.383 114.634 519.14 113.467C519.023 112.909 519.226 112.337 519.425 111.8C520.135 109.891 520.843 107.982 521.442 106.686C512.854 103.066 507.674 93.4174 508.298 84.2059C508.922 74.9957 514.741 66.5586 522.569 61.5301C530.397 56.5003 540.009 54.6417 549.332 55.056C556.091 55.3554 562.976 56.8748 568.53 60.6964C574.084 64.518 578.098 70.9269 577.91 78.5185C579.813 78.7821 582.029 77.3899 583.522 78.5909C584.497 79.3744 584.503 80.8155 584.425 82.055C584.331 83.5659 584.236 85.0761 584.139 86.587C584.105 87.1298 584.058 87.7098 583.716 88.1371C583.439 88.4848 583.01 88.6753 582.594 88.8364C580.108 89.796 577.402 90.1855 574.742 89.9683C574.122 88.8742 573.49 87.7535 573.267 86.5172C573.042 85.2829 573.3 83.8875 574.234 83.0381C574.847 82.4804 575.669 82.2188 576.464 81.9709C578.21 81.4281 579.956 80.8853 581.702 80.3438C581.972 80.2603 582.275 80.1775 582.532 80.3001C582.796 80.428 582.915 80.732 583.001 81.0112C583.531 82.7511 583.643 84.6136 583.323 86.4031C582.54 86.4044 581.756 86.4063 580.973 86.4076C580.594 86.4076 580.135 86.3626 579.973 86.0234C579.823 85.7129 580.03 85.3482 580.275 85.1035C580.8 84.5732 581.545 84.2639 582.296 84.2607C580.637 83.5372 578.491 84.1713 577.506 85.6763C578.623 85.9294 579.133 87.5206 578.372 88.3654C577.608 89.2128 575.954 88.8925 575.569 87.8246C575.186 86.756 576.266 85.4741 576.97 86.27C578.821 87.5754 580.349 89.3244 581.385 91.3246C578.821 96.1821 573.491 98.9045 568.341 100.928C555.364 106.029 541.384 108.626 527.419 108.528C526.371 108.52 524.968 108.158 524.998 107.12C524.998 107.12 525.101 108.408 525.409 108.121C517.179 102.777 512.207 92.8746 512.873 83.1595C513.539 73.4437 519.817 64.2975 528.703 60.1014C528.596 61.3579 528.9 62.6444 529.558 63.724C533.326 62.9177 537.147 62.3736 540.991 62.0977C540.953 60.605 540.913 59.1131 541.97 57.9721C551.86 55.1512 562.803 58.5801 570.829 64.9564C573.702 62.2953 577.383 60.4994 581.266 59.8581C579.784 63.1395 577.994 66.2846 575.925 69.2405C572.947 67.9788 569.267 68.5242 566.794 70.5955C564.754 67.5658 562.039 64.9851 558.896 63.0919L560.504 73.1462C560.543 73.3961 560.644 73.7073 560.899 73.7347C561.155 73.7608 561.109 73.2154 561.159 73.4861C556.394 78.5766 555.212 86.6392 558.319 92.8583C559.086 94.3959 560.117 95.9864 559.836 97.6774C559.421 100.164 556.53 101.299 554.074 101.979C546.026 104.207 537.783 106.456 529.726 106.517C530.187 108.85 530.897 111.134 531.841 113.323C533.234 112.677 534.318 111.41 534.732 109.945C543.903 110.788 553.291 109.193 561.586 105.932C563.03 107.25 564.473 108.567 565.916 109.883C567.137 108.035 567.587 105.706 567.143 103.544C570.341 102.823 573.352 101.303 575.823 99.1667C576.345 98.7153 576.988 98.1979 577.653 98.3969C578.184 98.5541 578.473 99.1073 578.676 99.6182C579.68 102.158 579.943 104.981 579.422 107.661C578.238 106.533 577.055 105.405 575.871 104.279C575.105 103.551 574.394 102.166 575.315 101.644C576.211 101.138 577.062 102.37 577.355 103.348C578.097 105.852 580.131 106.6 580.875 109.104C594.697 109.284 681.186 114.99 695 114.5" stroke="#AAA9BC" stroke-width="1.2" stroke-linecap="round" stroke-linejoin="round"/>
</svg>
