<svg width="20" height="20" viewBox="0 0 20 20" fill="none" xmlns="http://www.w3.org/2000/svg">
<g clip-path="url(#clip0_165_181)">
<path d="M20 0.625V0H18.8281V0.625C18.8281 2.09914 17.748 3.32523 16.3377 3.55469H3.66234C2.25203 3.32523 1.17188 2.09914 1.17188 0.625V0H0V0.625C0 1.94531 0.621172 3.12328 1.58664 3.88199C0.645195 4.36984 0 5.35285 0 6.48438V8.28125H1.79688C2.53641 8.28125 3.2123 8.00523 3.7284 7.5516L4.16605 16.108C4.2777 18.2904 6.07699 20 8.26227 20H11.7377C13.923 20 15.7223 18.2904 15.8339 16.108L16.2716 7.5516C16.7877 8.00523 17.4636 8.28125 18.2031 8.28125H20V6.48438C20 5.35285 19.3548 4.36984 18.4134 3.88199C19.3788 3.12328 20 1.94531 20 0.625ZM3.55469 5.35156C3.55469 6.32082 2.76613 7.10938 1.79688 7.10938H1.17188V6.48438C1.17188 5.51512 1.96043 4.72656 2.92969 4.72656H3.55469V5.35156ZM14.6636 16.0481C14.5839 17.607 13.2987 18.8281 11.7377 18.8281H8.26227C6.70133 18.8281 5.41613 17.607 5.33641 16.0481L5.28391 15.0216C6.50211 13.7143 8.20766 12.9688 10 12.9688C11.7923 12.9688 13.4979 13.7143 14.7161 15.0216L14.6636 16.0481ZM14.7941 13.4957C13.4476 12.4049 11.7593 11.7969 10 11.7969C8.2407 11.7969 6.55238 12.4049 5.20586 13.4957L4.7573 4.72656H15.2427L14.7941 13.4957ZM18.8281 6.48438V7.10938H18.2031C17.2339 7.10938 16.4453 6.32082 16.4453 5.35156V4.72656H17.0703C18.0396 4.72656 18.8281 5.51512 18.8281 6.48438Z" fill="black"/>
<path d="M8.04688 17.6562C8.47835 17.6562 8.82812 17.3065 8.82812 16.875C8.82812 16.4435 8.47835 16.0938 8.04688 16.0938C7.6154 16.0938 7.26562 16.4435 7.26562 16.875C7.26562 17.3065 7.6154 17.6562 8.04688 17.6562Z" fill="black"/>
<path d="M11.9531 17.6562C12.3846 17.6562 12.7344 17.3065 12.7344 16.875C12.7344 16.4435 12.3846 16.0938 11.9531 16.0938C11.5217 16.0938 11.1719 16.4435 11.1719 16.875C11.1719 17.3065 11.5217 17.6562 11.9531 17.6562Z" fill="black"/>
<path d="M6.875 9.60938C7.30647 9.60938 7.65625 9.2596 7.65625 8.82812C7.65625 8.39665 7.30647 8.04688 6.875 8.04688C6.44353 8.04688 6.09375 8.39665 6.09375 8.82812C6.09375 9.2596 6.44353 9.60938 6.875 9.60938Z" fill="black"/>
<path d="M13.125 9.60938C13.5565 9.60938 13.9062 9.2596 13.9062 8.82812C13.9062 8.39665 13.5565 8.04688 13.125 8.04688C12.6935 8.04688 12.3438 8.39665 12.3438 8.82812C12.3438 9.2596 12.6935 9.60938 13.125 9.60938Z" fill="black"/>
</g>
<defs>
<clipPath id="clip0_165_181">
<rect width="20" height="20" fill="white"/>
</clipPath>
</defs>
</svg>
