<svg width="20" height="20" viewBox="0 0 20 20" fill="none" xmlns="http://www.w3.org/2000/svg">
<g clip-path="url(#clip0_56_995)">
<path d="M15.6755 5.25388V5.24449L16.8253 2.34624C17.1994 1.38355 16.0309 0.569564 15.2638 1.25206L13.1318 3.15944L15.6755 5.25388Z" stroke="#2E2E2E" stroke-miterlimit="10" stroke-linecap="round" stroke-linejoin="round"/>
<path d="M6.86749 3.1594L4.73548 1.25202C3.96845 0.569527 2.79992 1.38273 3.17404 2.3462L4.32379 5.24446V5.25385L6.86749 3.1594Z" stroke="#2E2E2E" stroke-miterlimit="10" stroke-linecap="round" stroke-linejoin="round"/>
<path d="M3.8846 10.0971C2.24802 9.31125 1.68763 7.60971 1.50057 6.51553C1.39725 5.93635 1.79955 5.37517 2.38812 5.28203C3.2115 5.14115 3.90338 5.18811 4.33307 5.24446L3.8846 10.0971Z" stroke="#2E2E2E" stroke-miterlimit="10" stroke-linecap="round" stroke-linejoin="round"/>
<path d="M15.6665 5.24446C16.097 5.18811 16.7889 5.14193 17.6115 5.28203C18.2008 5.37517 18.6023 5.93635 18.4998 6.51631C18.3127 7.6105 17.7516 9.31204 16.1158 10.0971L15.6665 5.24446Z" stroke="#2E2E2E" stroke-miterlimit="10" stroke-linecap="round" stroke-linejoin="round"/>
<path d="M13.2253 9.71042H6.77373C4.73173 9.71042 3.07715 11.3658 3.07715 13.407V15.3034C3.07715 17.3454 4.73251 19 6.77373 19H13.2253C15.2673 19 16.9219 17.3446 16.9219 15.3034V13.407C16.9227 11.3658 15.2673 9.71042 13.2253 9.71042Z" stroke="#2E2E2E" stroke-miterlimit="10" stroke-linecap="round" stroke-linejoin="round"/>
<path d="M3.88672 11.0981C4.56765 10.2528 5.60861 9.71274 6.7748 9.71274H13.2241C14.3981 9.71274 15.439 10.2606 16.1121 11.1137V11.1114V10.0939V7.08843C16.1121 6.43098 15.9556 5.80484 15.6738 5.25696C15.6738 5.24914 15.6738 5.24131 15.666 5.24131C15.1573 4.23166 14.2415 3.46463 13.1301 3.15939C12.7779 3.05764 12.4101 3.00285 12.0266 3.00285H8.59061H7.97229C7.58878 3.00285 7.22092 3.05764 6.86872 3.15939C5.75732 3.46463 4.84158 4.23166 4.33284 5.24131C4.32502 5.24131 4.32502 5.24914 4.32502 5.25696C4.04325 5.80484 3.88672 6.43098 3.88672 7.08843V10.0939V11.0957V11.0981Z" stroke="#2E2E2E" stroke-miterlimit="10" stroke-linecap="round" stroke-linejoin="round"/>
<path d="M8.5874 3.00052C9.2605 4.16906 9.90543 6.16097 9.1204 8.99347C9.05466 9.24628 8.96152 9.47952 8.8496 9.71354" stroke="#2E2E2E" stroke-miterlimit="10" stroke-linecap="round" stroke-linejoin="round"/>
<path d="M6.91681 16.2145C7.4822 16.2145 7.94055 15.7561 7.94055 15.1907C7.94055 14.6253 7.4822 14.167 6.91681 14.167C6.35141 14.167 5.89307 14.6253 5.89307 15.1907C5.89307 15.7561 6.35141 16.2145 6.91681 16.2145Z" stroke="#2E2E2E" stroke-miterlimit="10" stroke-linecap="round" stroke-linejoin="round"/>
<path d="M13.0818 16.2145C13.6472 16.2145 14.1056 15.7561 14.1056 15.1907C14.1056 14.6253 13.6472 14.167 13.0818 14.167C12.5164 14.167 12.0581 14.6253 12.0581 15.1907C12.0581 15.7561 12.5164 16.2145 13.0818 16.2145Z" stroke="#2E2E2E" stroke-miterlimit="10" stroke-linecap="round" stroke-linejoin="round"/>
<path d="M6.91713 8.64831C7.34247 8.64831 7.68728 8.3035 7.68728 7.87815C7.68728 7.45281 7.34247 7.108 6.91713 7.108C6.49178 7.108 6.14697 7.45281 6.14697 7.87815C6.14697 8.3035 6.49178 8.64831 6.91713 8.64831Z" stroke="#2E2E2E" stroke-miterlimit="10" stroke-linecap="round" stroke-linejoin="round"/>
<path d="M13.0822 8.64831C13.5075 8.64831 13.8523 8.3035 13.8523 7.87815C13.8523 7.45281 13.5075 7.108 13.0822 7.108C12.6568 7.108 12.312 7.45281 12.312 7.87815C12.312 8.3035 12.6568 8.64831 13.0822 8.64831Z" stroke="#2E2E2E" stroke-miterlimit="10" stroke-linecap="round" stroke-linejoin="round"/>
</g>
<defs>
<clipPath id="clip0_56_995">
<rect width="20" height="20" fill="white"/>
</clipPath>
</defs>
</svg>
