<svg width="20" height="20" viewBox="0 0 20 20" fill="none" xmlns="http://www.w3.org/2000/svg">
<path d="M5.00024 8.22853C2.97169 8.86566 1.50024 10.7608 1.50024 12.9996C1.50024 15.7611 3.73882 17.9996 6.50024 17.9996C7.89894 17.9996 9.1635 17.4253 10.071 16.4996C10.9551 15.5978 11.5002 14.3624 11.5002 12.9996M15.0002 8.22853C17.029 8.86554 18.5006 10.7608 18.5006 12.9998C18.5006 15.7612 16.2621 17.9998 13.5006 17.9998C12.3749 17.9998 11.336 17.6277 10.5002 16.9998M15.0002 6.99953C15.0002 9.76095 12.7617 11.9995 10.0002 11.9995C7.23882 11.9995 5.00024 9.76095 5.00024 6.99953C5.00024 4.2381 7.23882 1.99953 10.0002 1.99953C12.7617 1.99953 15.0002 4.2381 15.0002 6.99953Z" stroke="black" stroke-width="1.2" stroke-linecap="round" stroke-linejoin="round"/>
</svg>
