<svg width="20" height="20" viewBox="0 0 20 20" fill="none" xmlns="http://www.w3.org/2000/svg">
<path d="M5.00027 8.22877C2.97171 8.86591 1.50027 10.7611 1.50027 12.9999C1.50027 15.7613 3.73884 17.9999 6.50027 17.9999C7.89896 17.9999 9.16352 17.4256 10.071 16.4999C10.9551 15.598 11.5003 14.3626 11.5003 12.9999M15.0003 8.22877C17.029 8.86578 18.5007 10.761 18.5007 13C18.5007 15.7614 16.2621 18 13.5007 18C12.3749 18 11.336 17.6279 10.5003 17.0001M15.0003 6.99977C15.0003 9.76119 12.7617 11.9998 10.0003 11.9998C7.23884 11.9998 5.00027 9.76119 5.00027 6.99977C5.00027 4.23835 7.23884 1.99977 10.0003 1.99977C12.7617 1.99977 15.0003 4.23835 15.0003 6.99977Z" stroke="#2E2E2E" stroke-width="1.2" stroke-linecap="round" stroke-linejoin="round"/>
</svg>
