<svg width="20" height="20" viewBox="0 0 20 20" fill="none" xmlns="http://www.w3.org/2000/svg">
<path d="M4 2H16M4 18H16M14.5 2V4.26441C14.5 4.93635 14.2744 5.58884 13.8594 6.1173L11.4581 9.17508C11.0219 9.73054 11.0322 10.5151 11.483 11.0588L13.8096 13.8656C14.2558 14.4038 14.5 15.081 14.5 15.7802V18M5.5 2V4.26441C5.5 4.93635 5.72558 5.58884 6.14059 6.1173L8.54193 9.17508C8.97814 9.73054 8.96778 10.5151 8.51704 11.0588L6.19036 13.8656C5.74418 14.4038 5.5 15.081 5.5 15.7802V18" stroke="#2E2E2E" stroke-width="1.2" stroke-linecap="round" stroke-linejoin="round"/>
</svg>
