<svg width="16" height="16" viewBox="0 0 16 16" fill="none" xmlns="http://www.w3.org/2000/svg">
<path d="M9.31908 12.5257L7.8758 13.9694C6.26503 15.5805 3.64305 15.5805 2.03228 13.9694C0.420812 12.3575 0.420812 9.73563 2.03228 8.1245L3.47557 6.68088C3.63601 6.5204 3.63601 6.25997 3.47557 6.09949C3.31513 5.93901 3.05476 5.93901 2.89431 6.09949L1.45103 7.54311C0.515107 8.47924 0 9.72297 0 11.0469C0 12.3709 0.515107 13.6146 1.45103 14.5508C2.4165 15.5172 3.68527 16 4.95404 16C6.22281 16 7.49158 15.5172 8.45705 14.5508L9.90034 13.1071C10.0608 12.9466 10.0608 12.6862 9.90034 12.5257C9.7399 12.3653 9.47953 12.3653 9.31908 12.5257ZM10.756 4.6622L4.66271 10.7569C4.50227 10.9174 4.50227 11.1778 4.66271 11.3383C4.74293 11.4186 4.84778 11.4587 4.95334 11.4587C5.05889 11.4587 5.16374 11.4186 5.24396 11.3383L11.3373 5.24359C11.4977 5.08311 11.4977 4.82268 11.3373 4.6622C11.1768 4.50172 10.9165 4.50172 10.756 4.6622ZM14.549 1.44907C12.6173 -0.483025 9.4746 -0.483025 7.54295 1.44907L6.09966 2.89269C5.93922 3.05318 5.93922 3.3136 6.09966 3.47408C6.26011 3.63456 6.52047 3.63456 6.68092 3.47408L8.1242 2.03046C9.73497 0.419326 12.357 0.419326 13.9677 2.03046C14.7481 2.81105 15.1781 3.84924 15.1781 4.9529C15.1781 6.05655 14.7481 7.09475 13.9677 7.87533L12.5244 9.31895C12.364 9.47943 12.364 9.73986 12.5244 9.90034C12.6047 9.98058 12.7095 10.0207 12.8151 10.0207C12.9206 10.0207 13.0255 9.98058 13.1057 9.90034L14.549 8.45672C15.4849 7.52058 16 6.27686 16 4.9529C16 3.62893 15.4849 2.38521 14.549 1.44907Z" fill="#F34444"/>
</svg>
