<svg width="20" height="20" viewBox="0 0 20 20" fill="none" xmlns="http://www.w3.org/2000/svg">
<path d="M2.30627 4.44428L15.6401 17.4617M2.30627 4.44428C2.80237 3.87791 3.54335 3.51836 4.3712 3.51836H8.87875M2.30627 4.44428C1.90727 4.8998 1.66667 5.48911 1.66667 6.13273V15.7188C1.66667 17.1627 2.87753 18.3332 4.3712 18.3332H14.2878C15.7815 18.3332 16.9923 17.1627 16.9923 15.7188V11.7972M8.87875 11.7972L3.01893 17.4617M15.2682 4.62947V4.57377M18.3333 4.56505C18.3333 6.49742 15.2682 9.07391 15.2682 9.07391C15.2682 9.07391 12.2031 6.49742 12.2031 4.56505C12.2031 2.96423 13.5754 1.6665 15.2682 1.6665C16.961 1.6665 18.3333 2.96423 18.3333 4.56505Z" stroke="#2E2E2E" stroke-width="1.2" stroke-linecap="round" stroke-linejoin="round"/>
</svg>
