<svg width="20" height="20" viewBox="0 0 20 20" fill="none" xmlns="http://www.w3.org/2000/svg">
<path d="M2.30629 4.44453L15.6401 17.462M2.30629 4.44453C2.80239 3.87815 3.54337 3.5186 4.37122 3.5186H8.87877M2.30629 4.44453C1.90729 4.90005 1.66669 5.48935 1.66669 6.13298V15.719C1.66669 17.1629 2.87755 18.3334 4.37122 18.3334H14.2878C15.7815 18.3334 16.9924 17.1629 16.9924 15.719V11.7975M8.87877 11.7975L3.01895 17.462M15.2682 4.62971V4.57401M18.3334 4.5653C18.3334 6.49767 15.2682 9.07416 15.2682 9.07416C15.2682 9.07416 12.2031 6.49767 12.2031 4.5653C12.2031 2.96447 13.5754 1.66675 15.2682 1.66675C16.961 1.66675 18.3334 2.96447 18.3334 4.5653Z" stroke="black" stroke-width="1.2" stroke-linecap="round" stroke-linejoin="round"/>
</svg>
