<svg width="24" height="24" viewBox="0 0 24 24" fill="none" xmlns="http://www.w3.org/2000/svg">
<g clip-path="url(#clip0_98_733)">
<path d="M6.56254 10.4482H14.1797C14.5313 10.4482 14.8219 10.7342 14.8219 11.0904C14.8219 11.442 14.536 11.7326 14.1797 11.7326H6.56254C6.21097 11.7326 5.92035 11.4467 5.92035 11.0904C5.92035 10.7342 6.21097 10.4482 6.56254 10.4482Z" fill="#2E2E2E"/>
<path d="M14.1797 12.9893H6.56254C6.21097 12.9893 5.92035 13.2752 5.92035 13.6314C5.92035 13.9877 6.20629 14.2736 6.56254 14.2736H14.1797C14.5313 14.2736 14.8219 13.9877 14.8219 13.6314C14.8219 13.2752 14.5313 12.9893 14.1797 12.9893Z" fill="#2E2E2E"/>
<path d="M14.1797 15.5249H6.56251C6.21095 15.5343 5.9297 15.8296 5.93907 16.1812C5.94845 16.5233 6.22032 16.7952 6.56251 16.8046H14.1797C14.5313 16.814 14.8266 16.5374 14.8359 16.1812C14.8453 15.8296 14.5688 15.5343 14.2125 15.5249C14.2031 15.5249 14.1891 15.5249 14.1797 15.5249Z" fill="#2E2E2E"/>
<path d="M24 5.72344C24 2.56406 21.4407 0 18.2766 0C15.9375 0 13.8375 1.42031 12.961 3.59062C12.1125 3.37031 11.2407 3.2625 10.3688 3.2625C4.65471 3.25781 2.7257e-05 7.9125 2.7257e-05 13.6312C-0.00466024 15.6703 0.59534 17.6672 1.72971 19.3688L0.904715 22.1156C0.67034 22.8937 1.11096 23.7094 1.88909 23.9437C2.02503 23.9859 2.16096 24.0047 2.30159 24.0047C2.50315 24.0047 2.70471 23.9625 2.88753 23.8828L5.45159 22.7672C6.96096 23.5781 8.64847 24.0047 10.3641 24.0047C16.0828 24.0047 20.7328 19.3547 20.7328 13.6359C20.7328 12.7594 20.625 11.8875 20.4047 11.0438C22.5797 10.1625 24 8.0625 24 5.72344ZM19.2891 13.6312C19.2891 18.5484 15.2907 22.5469 10.3735 22.5469C8.78909 22.5469 7.23753 22.1297 5.86878 21.3281L5.55003 21.1406L2.31565 22.5469L2.31096 22.5516C2.30628 22.5469 2.30159 22.5469 2.30159 22.5422C2.30159 22.5375 2.30159 22.5375 2.30159 22.5328L3.33284 19.1063L3.12659 18.8156C2.0344 17.3062 1.44846 15.4922 1.45315 13.6312C1.45315 8.71406 5.45159 4.71562 10.3688 4.71562C11.1188 4.71562 11.8688 4.80937 12.5953 4.99687C12.1922 8.13281 14.4094 11.0063 17.55 11.4047C17.7891 11.4375 18.0328 11.4516 18.2766 11.4516C18.5203 11.4516 18.7641 11.4375 19.0078 11.4047C19.1953 12.1313 19.2891 12.8766 19.2891 13.6312ZM19.95 9.65156C19.4953 9.84844 19.0078 9.96094 18.511 9.98438C18.4313 9.98906 18.3563 9.98906 18.2766 9.98906C15.9188 9.98438 14.011 8.07656 14.0063 5.71875C14.0063 5.63906 14.0063 5.56406 14.011 5.48438C14.1422 3.13125 16.1532 1.32656 18.511 1.45781C20.8641 1.58906 22.6688 3.6 22.5375 5.95781C22.4485 7.58437 21.4453 9.01406 19.95 9.65156Z" fill="#2E2E2E"/>
<path d="M20.2172 4.9877H19.0125V3.78301C19.0219 3.3752 18.6985 3.0377 18.2906 3.02364C17.8828 3.01426 17.5453 3.3377 17.5313 3.74551V3.78301V4.9877H16.3266C15.9188 4.97832 15.5813 5.30176 15.5672 5.70957C15.5531 6.11739 15.8813 6.45489 16.2891 6.46895H16.3266H17.5313V7.67364C17.5406 8.08145 17.8828 8.40489 18.2906 8.39551C18.6844 8.38614 18.9985 8.06739 19.0125 7.67364V6.46895H20.2172C20.625 6.45957 20.9485 6.11739 20.9391 5.70957C20.9297 5.31114 20.611 4.99707 20.2172 4.9877Z" fill="#2E2E2E"/>
</g>
<defs>
<clipPath id="clip0_98_733">
<rect width="24" height="24" fill="white"/>
</clipPath>
</defs>
</svg>
