<svg width="20" height="20" viewBox="0 0 20 20" fill="none" xmlns="http://www.w3.org/2000/svg">
<circle cx="8.64391" cy="12.5762" r="0.677966" fill="black"/>
<circle cx="11.356" cy="12.5762" r="0.677966" fill="black"/>
<circle cx="12.712" cy="7.28807" r="0.677966" fill="black"/>
<circle cx="7.28789" cy="7.28807" r="0.677966" fill="black"/>
<path d="M11.3562 15.2882H8.64436C7.14663 15.2882 5.9325 14.0741 5.9325 12.5764C5.9325 11.0786 7.14663 9.8645 8.64436 9.8645H11.3562C12.854 9.8645 14.0681 11.0786 14.0681 12.5764C14.0681 14.0741 12.854 15.2882 11.3562 15.2882Z" stroke="black" stroke-miterlimit="10" stroke-linecap="round" stroke-linejoin="round"/>
<path d="M3.63976 7.20356C2.67525 6.788 2 5.82878 2 4.71186V3.35593C2 2.60708 2.60708 2 3.35593 2H4.71186C5.94149 2 6.98 2.81841 7.31237 3.9402" stroke="black" stroke-miterlimit="10" stroke-linecap="round" stroke-linejoin="round"/>
<path d="M17.441 9.69095C17.8019 10.724 18 11.5283 18 12.5763C18 17.0694 14.4932 18 10 18C5.50685 18 2 17.0694 2 12.5763C2 8.08312 5.50685 3.35593 10 3.35593C12.5788 3.35593 14.7417 5.00241 16.2323 7.25485C17.2645 6.87146 18 5.87756 18 4.71186V3.35593C18 2.60708 17.3929 2 16.6441 2H15.2881C14.0446 2 12.9965 2.83705 12.6766 3.97844" stroke="black" stroke-miterlimit="10" stroke-linecap="round" stroke-linejoin="round"/>
</svg>
