<svg width="20" height="20" viewBox="0 0 20 20" fill="none" xmlns="http://www.w3.org/2000/svg">
<circle cx="8.64379" cy="12.5763" r="0.677966" fill="#2E2E2E"/>
<circle cx="11.3562" cy="12.5763" r="0.677966" fill="#2E2E2E"/>
<circle cx="12.7121" cy="7.28813" r="0.677966" fill="#2E2E2E"/>
<circle cx="7.28783" cy="7.28813" r="0.677966" fill="#2E2E2E"/>
<path d="M11.3563 15.2881H8.64448C7.14675 15.2881 5.93262 14.074 5.93262 12.5763C5.93262 11.0785 7.14675 9.86441 8.64448 9.86441H11.3563C12.8541 9.86441 14.0682 11.0785 14.0682 12.5763C14.0682 14.074 12.8541 15.2881 11.3563 15.2881Z" stroke="#2E2E2E" stroke-miterlimit="10" stroke-linecap="round" stroke-linejoin="round"/>
<path d="M3.63976 7.20356C2.67525 6.788 2 5.82878 2 4.71186V3.35593C2 2.60708 2.60708 2 3.35593 2H4.71186C5.94149 2 6.98 2.81841 7.31237 3.9402" stroke="#2E2E2E" stroke-miterlimit="10" stroke-linecap="round" stroke-linejoin="round"/>
<path d="M17.441 9.69095C17.8019 10.724 18 11.5283 18 12.5763C18 17.0694 14.4932 18 10 18C5.50685 18 2 17.0694 2 12.5763C2 8.08312 5.50685 3.35593 10 3.35593C12.5788 3.35593 14.7417 5.00241 16.2323 7.25485C17.2645 6.87146 18 5.87756 18 4.71186V3.35593C18 2.60708 17.3929 2 16.6441 2H15.2881C14.0446 2 12.9965 2.83705 12.6766 3.97844" stroke="#2E2E2E" stroke-miterlimit="10" stroke-linecap="round" stroke-linejoin="round"/>
</svg>
