<svg width="16" height="16" viewBox="0 0 16 16" fill="none" xmlns="http://www.w3.org/2000/svg">
<path d="M14.0001 8.6001C14.3315 8.6001 14.6001 8.33147 14.6001 8.0001C14.6001 7.66873 14.3315 7.4001 14.0001 7.4001L14.0001 8.6001ZM13.8001 8.0001C13.8001 11.2033 11.2033 13.8001 8.0001 13.8001V15.0001C11.8661 15.0001 15.0001 11.8661 15.0001 8.0001H13.8001ZM8.0001 13.8001C4.79685 13.8001 2.2001 11.2033 2.2001 8.0001H1.0001C1.0001 11.8661 4.1341 15.0001 8.0001 15.0001V13.8001ZM2.2001 8.0001C2.2001 4.79685 4.79685 2.2001 8.0001 2.2001V1.0001C4.1341 1.0001 1.0001 4.1341 1.0001 8.0001H2.2001ZM8.0001 2.2001C11.2033 2.2001 13.8001 4.79685 13.8001 8.0001H15.0001C15.0001 4.1341 11.8661 1.0001 8.0001 1.0001V2.2001ZM8.0001 13.8001C7.81202 13.8001 7.58554 13.7155 7.32725 13.4658C7.06607 13.2133 6.80345 12.8189 6.56989 12.2851C6.10356 11.2192 5.8001 9.70467 5.8001 8.0001H4.6001C4.6001 9.83015 4.92344 11.5156 5.4705 12.7661C5.74365 13.3904 6.08438 13.9333 6.49317 14.3285C6.90485 14.7265 7.41498 15.0001 8.0001 15.0001V13.8001ZM5.8001 8.0001C5.8001 6.29552 6.10356 4.78102 6.56989 3.71511C6.80345 3.18126 7.06607 2.78691 7.32725 2.53441C7.58554 2.2847 7.81202 2.2001 8.0001 2.2001V1.0001C7.41498 1.0001 6.90485 1.27367 6.49317 1.67167C6.08438 2.06688 5.74365 2.6098 5.4705 3.23412C4.92344 4.48456 4.6001 6.17005 4.6001 8.0001H5.8001ZM8.0001 15.0001C8.58522 15.0001 9.09534 14.7265 9.50702 14.3285C9.91581 13.9333 10.2565 13.3904 10.5297 12.7661C11.0768 11.5156 11.4001 9.83015 11.4001 8.0001H10.2001C10.2001 9.70467 9.89664 11.2192 9.4303 12.2851C9.19674 12.8189 8.93413 13.2133 8.67295 13.4658C8.41465 13.7155 8.18818 13.8001 8.0001 13.8001V15.0001ZM11.4001 8.0001C11.4001 6.17005 11.0768 4.48456 10.5297 3.23412C10.2565 2.6098 9.91581 2.06688 9.50702 1.67167C9.09534 1.27367 8.58522 1.0001 8.0001 1.0001V2.2001C8.18818 2.2001 8.41465 2.2847 8.67295 2.53441C8.93413 2.78691 9.19674 3.18126 9.4303 3.71511C9.89664 4.78102 10.2001 6.29552 10.2001 8.0001H11.4001ZM1.6001 8.6001L14.0001 8.6001L14.0001 7.4001L1.6001 7.4001L1.6001 8.6001Z" fill="#2948A8"/>
</svg>
