<svg width="24" height="24" viewBox="0 0 24 24" fill="none" xmlns="http://www.w3.org/2000/svg">
<path d="M9.1199 9.1199V8.3699C8.70569 8.3699 8.3699 8.70569 8.3699 9.1199H9.1199ZM9.21553 9.1199H9.96553C9.96553 8.70569 9.62974 8.3699 9.21553 8.3699V9.1199ZM14.8799 9.1199V8.3699C14.4657 8.3699 14.1299 8.70569 14.1299 9.1199H14.8799ZM14.9649 9.1199H15.7149C15.7149 8.70569 15.3791 8.3699 14.9649 8.3699V9.1199ZM9.21553 9.19678V9.94678C9.62974 9.94678 9.96553 9.61099 9.96553 9.19678H9.21553ZM9.1199 9.19678H8.3699C8.3699 9.61099 8.70569 9.94678 9.1199 9.94678V9.19678ZM14.9649 9.19678V9.94678C15.3791 9.94678 15.7149 9.61099 15.7149 9.19678H14.9649ZM14.8799 9.19678H14.1299C14.1299 9.61099 14.4657 9.94678 14.8799 9.94678V9.19678ZM11.9998 14.4037L11.9998 13.6537L11.9998 14.4037ZM14.6902 16.6793C14.9082 17.0315 15.3704 17.1402 15.7226 16.9222C16.0748 16.7042 16.1836 16.242 15.9656 15.8898L14.6902 16.6793ZM8.03407 15.8898C7.81605 16.242 7.92483 16.7042 8.27703 16.9222C8.62923 17.1402 9.09148 17.0315 9.30949 16.6793L8.03407 15.8898ZM20.8499 11.9999C20.8499 16.8876 16.8876 20.8499 11.9999 20.8499V22.3499C17.716 22.3499 22.3499 17.716 22.3499 11.9999H20.8499ZM11.9999 20.8499C7.11218 20.8499 3.1499 16.8876 3.1499 11.9999H1.6499C1.6499 17.716 6.28375 22.3499 11.9999 22.3499V20.8499ZM3.1499 11.9999C3.1499 7.11218 7.11218 3.1499 11.9999 3.1499V1.6499C6.28375 1.6499 1.6499 6.28375 1.6499 11.9999H3.1499ZM11.9999 3.1499C16.8876 3.1499 20.8499 7.11218 20.8499 11.9999H22.3499C22.3499 6.28375 17.716 1.6499 11.9999 1.6499V3.1499ZM9.1199 9.8699H9.21553V8.3699H9.1199V9.8699ZM14.8799 9.8699H14.9649V8.3699H14.8799V9.8699ZM8.46553 9.1199V9.19678H9.96553V9.1199H8.46553ZM9.21553 8.44678H9.1199V9.94678H9.21553V8.44678ZM9.8699 9.19678V9.1199H8.3699V9.19678H9.8699ZM14.2149 9.1199V9.19678H15.7149V9.1199H14.2149ZM14.9649 8.44678H14.8799V9.94678H14.9649V8.44678ZM15.6299 9.19678V9.1199H14.1299V9.19678H15.6299ZM11.9998 15.1537C13.1219 15.1537 14.1176 15.7543 14.6902 16.6793L15.9656 15.8898C15.1383 14.5533 13.676 13.6537 11.9998 13.6537L11.9998 15.1537ZM9.30949 16.6793C9.88207 15.7543 10.8777 15.1537 11.9998 15.1537L11.9998 13.6537C10.3236 13.6537 8.86136 14.5533 8.03407 15.8898L9.30949 16.6793Z" fill="#2E2E2E"/>
</svg>
