<svg width="24" height="24" viewBox="0 0 24 24" fill="none" xmlns="http://www.w3.org/2000/svg">
<path d="M9.1199 9.1199V8.3699C8.70569 8.3699 8.3699 8.70569 8.3699 9.1199H9.1199ZM9.21553 9.1199H9.96553C9.96553 8.70569 9.62974 8.3699 9.21553 8.3699V9.1199ZM14.8799 9.1199V8.3699C14.4657 8.3699 14.1299 8.70569 14.1299 9.1199H14.8799ZM14.9649 9.1199H15.7149C15.7149 8.70569 15.3791 8.3699 14.9649 8.3699V9.1199ZM9.21553 9.19678V9.94678C9.62974 9.94678 9.96553 9.61099 9.96553 9.19678H9.21553ZM9.1199 9.19678H8.3699C8.3699 9.61099 8.70569 9.94678 9.1199 9.94678V9.19678ZM14.9649 9.19678V9.94678C15.3791 9.94678 15.7149 9.61099 15.7149 9.19678H14.9649ZM14.8799 9.19678H14.1299C14.1299 9.61099 14.4657 9.94678 14.8799 9.94678V9.19678ZM9.30956 14.5243C9.09155 14.1721 8.62931 14.0633 8.27711 14.2813C7.92491 14.4994 7.81613 14.9616 8.03414 15.3138L9.30956 14.5243ZM15.9657 15.3138C16.1837 14.9616 16.0749 14.4994 15.7227 14.2813C15.3705 14.0633 14.9082 14.1721 14.6902 14.5243L15.9657 15.3138ZM20.8499 11.9999C20.8499 16.8876 16.8876 20.8499 11.9999 20.8499V22.3499C17.716 22.3499 22.3499 17.716 22.3499 11.9999H20.8499ZM11.9999 20.8499C7.11218 20.8499 3.1499 16.8876 3.1499 11.9999H1.6499C1.6499 17.716 6.28375 22.3499 11.9999 22.3499V20.8499ZM3.1499 11.9999C3.1499 7.11218 7.11218 3.1499 11.9999 3.1499V1.6499C6.28375 1.6499 1.6499 6.28375 1.6499 11.9999H3.1499ZM11.9999 3.1499C16.8876 3.1499 20.8499 7.11218 20.8499 11.9999H22.3499C22.3499 6.28375 17.716 1.6499 11.9999 1.6499V3.1499ZM9.1199 9.8699H9.21553V8.3699H9.1199V9.8699ZM14.8799 9.8699H14.9649V8.3699H14.8799V9.8699ZM8.46553 9.1199V9.19678H9.96553V9.1199H8.46553ZM9.21553 8.44678H9.1199V9.94678H9.21553V8.44678ZM9.8699 9.19678V9.1199H8.3699V9.19678H9.8699ZM14.2149 9.1199V9.19678H15.7149V9.1199H14.2149ZM14.9649 8.44678H14.8799V9.94678H14.9649V8.44678ZM15.6299 9.19678V9.1199H14.1299V9.19678H15.6299ZM11.9999 16.0498C10.8778 16.0498 9.88214 15.4493 9.30956 14.5243L8.03414 15.3138C8.86144 16.6503 10.3237 17.5498 11.9999 17.5498V16.0498ZM14.6902 14.5243C14.1177 15.4493 13.122 16.0498 11.9999 16.0498V17.5498C13.6761 17.5498 15.1384 16.6503 15.9657 15.3138L14.6902 14.5243Z" fill="#2E2E2E"/>
</svg>
