<svg width="36" height="36" viewBox="0 0 36 36" fill="none" xmlns="http://www.w3.org/2000/svg">
<g clip-path="url(#clip0_86_83)">
<path d="M17.9962 0C8.0712 0 0 8.07883 0 17.9962C0 20.5518 0.526383 23.0159 1.57152 25.335C2.24285 26.1666 4.58487 27.7533 6.99555 24.679C5.77495 22.6726 5.11888 20.3535 5.11888 17.9886C5.11888 10.8862 10.8938 5.10362 17.9962 5.10362C25.0985 5.10362 30.8811 10.8862 30.8811 17.9886C30.8811 25.0909 25.1062 30.8735 17.9962 30.8735C15.6542 30.8735 13.5715 30.3624 11.5728 29.157L11.3592 29.0273L11.1608 29.1799C10.787 29.4622 8.68913 30.9803 5.43166 30.0114L4.26446 29.63L4.92053 30.3395C8.36109 33.9784 13.007 35.9847 17.9962 35.9847C27.9212 35.9847 36 27.9135 36 17.9809C36 8.04831 27.9212 0 17.9962 0Z" fill="#B5B5B6"/>
<path d="M35.9924 18.4385H30.8735C30.6446 25.2052 25.1672 30.675 18.3853 30.8733V35.9922C27.9822 35.7862 35.7559 28.0354 35.9924 18.4385Z" fill="url(#paint0_linear_86_83)"/>
<path d="M14.8684 10.9395C14.2886 11.1149 13.7165 11.4658 13.1977 12.0761C10.5811 15.12 9.75717 19.8956 7.97204 23.1912C7.65164 23.7862 7.3236 24.2821 7.00319 24.6941C4.59251 27.7608 2.25049 26.1817 1.57916 25.3501C1.57916 25.3501 1.65545 25.5714 1.86905 25.8918C2.29626 26.5478 3.26511 27.6235 5.16467 28.0812C8.1475 28.806 10.253 27.7379 11.2524 26.4487C12.3662 25.0145 13.0757 23.1836 14.7158 18.6292C15.8983 15.3412 17.0502 13.6324 17.9962 12.8543C17.1876 11.771 16.2034 11.0463 14.876 10.9547L14.8684 10.9395Z" fill="url(#paint1_linear_86_83)"/>
<path d="M35.4278 28.6537C32.7807 27.1204 28.4933 23.6417 26.8303 20.1096C25.6097 17.5158 25.2511 15.9595 23.5423 13.3276C21.7038 10.505 19.0642 10.4973 19.0642 10.4973C16.4628 10.3905 14.8608 10.9322 14.8608 10.9322C16.1882 11.0237 17.1723 11.7485 17.9809 12.8317C18.7133 13.8158 19.3083 15.0898 19.9034 16.4325C20.6434 18.1261 21.6504 20.7122 21.6504 20.7122C24.7476 28.7377 32.7959 29.1496 32.7959 29.1496C32.7959 29.1496 33.4062 29.1725 33.9784 29.1954C34.3751 29.2106 35.0312 29.1725 35.0312 29.1725C35.0312 29.1725 36.2289 29.1496 35.4278 28.6537Z" fill="#E72410"/>
<path d="M6.99555 24.6864C5.77495 22.6801 5.11888 20.3609 5.11888 17.996C5.11888 14.7843 6.30133 11.8396 8.25429 9.58154H2.09027C0.755245 12.0914 0 14.9598 0 17.996C0 20.5517 0.526383 23.0157 1.57152 25.3349C2.24285 26.1664 4.58487 27.7532 6.99555 24.6788V24.6864Z" fill="url(#paint2_linear_86_83)"/>
</g>
<defs>
<linearGradient id="paint0_linear_86_83" x1="29.6453" y1="19.2929" x2="24.6637" y2="32.9788" gradientUnits="userSpaceOnUse">
<stop stop-color="#B5B5B6"/>
<stop offset="0.18" stop-color="#B2B2B3"/>
<stop offset="0.26" stop-color="#ABABAC"/>
<stop offset="0.32" stop-color="#9F9F9F"/>
<stop offset="0.37" stop-color="#8D8D8E"/>
<stop offset="0.41" stop-color="#767676"/>
<stop offset="0.43" stop-color="#666666"/>
<stop offset="0.57" stop-color="#666666"/>
<stop offset="0.58" stop-color="#6B6B6B"/>
<stop offset="0.64" stop-color="#868686"/>
<stop offset="0.71" stop-color="#9A9A9B"/>
<stop offset="0.78" stop-color="#A9A9AA"/>
<stop offset="0.87" stop-color="#B2B2B3"/>
<stop offset="1" stop-color="#B5B5B6"/>
</linearGradient>
<linearGradient id="paint1_linear_86_83" x1="15.7076" y1="12.2745" x2="4.52385" y2="28.661" gradientUnits="userSpaceOnUse">
<stop stop-color="#123184"/>
<stop offset="0.13" stop-color="#0B3D90"/>
<stop offset="0.34" stop-color="#024C9E"/>
<stop offset="0.51" stop-color="#0052A4"/>
<stop offset="0.68" stop-color="#034A9D"/>
<stop offset="0.93" stop-color="#0E378A"/>
<stop offset="1" stop-color="#123184"/>
</linearGradient>
<linearGradient id="paint2_linear_86_83" x1="4.12715" y1="11.893" x2="4.12715" y2="23.9007" gradientUnits="userSpaceOnUse">
<stop stop-color="#B5B5B6"/>
<stop offset="0.59" stop-color="#B5B5B6"/>
<stop offset="1" stop-color="#666666"/>
</linearGradient>
<clipPath id="clip0_86_83">
<rect width="36" height="36" fill="white"/>
</clipPath>
</defs>
</svg>
