<svg width="165" height="24" viewBox="0 0 165 24" fill="none" xmlns="http://www.w3.org/2000/svg">
<g clip-path="url(#clip0_90_475)">
<path d="M11.9975 0C5.3808 0 0 5.38589 0 11.9975C0 13.7012 0.350922 15.3439 1.04768 16.89C1.49523 17.4444 3.05658 18.5022 4.6637 16.4526C3.84997 15.1151 3.41259 13.569 3.41259 11.9924C3.41259 7.25747 7.26256 3.40242 11.9975 3.40242C16.7324 3.40242 20.5874 7.25747 20.5874 11.9924C20.5874 16.7273 16.7374 20.5823 11.9975 20.5823C10.4361 20.5823 9.04768 20.2416 7.71519 19.438L7.57279 19.3516L7.44056 19.4533C7.19135 19.6415 5.79275 20.6535 3.62111 20.0076L2.84298 19.7533L3.28036 20.2263C5.57406 22.6523 8.67133 23.9898 11.9975 23.9898C18.6141 23.9898 24 18.609 24 11.9873C24 5.36554 18.6141 0 11.9975 0Z" fill="#B5B5B6"/>
<path d="M23.9949 12.2925H20.5823C20.4298 16.8036 16.7781 20.4501 12.2568 20.5824V23.995C18.6548 23.8576 23.8373 18.6904 23.9949 12.2925Z" fill="url(#paint0_linear_90_475)"/>
<path d="M9.91227 7.29297C9.52575 7.40994 9.14431 7.64389 8.79847 8.05076C7.05404 10.08 6.50477 13.2637 5.31468 15.4608C5.10108 15.8575 4.88239 16.1881 4.66879 16.4627C3.06167 18.5072 1.50032 17.4544 1.05276 16.9001C1.05276 16.9001 1.10362 17.0476 1.24603 17.2612C1.53083 17.6986 2.17673 18.4157 3.4431 18.7208C5.43166 19.204 6.83535 18.492 7.50159 17.6324C8.24412 16.6763 8.7171 15.4557 9.81055 12.4195C10.5989 10.2275 11.3668 9.08826 11.9975 8.56951C11.4584 7.84732 10.8023 7.36417 9.91735 7.30314L9.91227 7.29297Z" fill="url(#paint1_linear_90_475)"/>
<path d="M23.6186 19.1023C21.8538 18.0801 18.9955 15.7609 17.8868 13.4062C17.0731 11.677 16.8341 10.6395 15.6948 8.88491C14.4692 7.00315 12.7095 6.99807 12.7095 6.99807C10.9752 6.92687 9.90718 7.28796 9.90718 7.28796C10.7921 7.34899 11.4482 7.83214 11.9873 8.55433C12.4755 9.2104 12.8722 10.0597 13.2689 10.9548C13.7622 12.0839 14.4336 13.808 14.4336 13.808C16.4984 19.1583 21.864 19.4329 21.864 19.4329C21.864 19.4329 22.2708 19.4482 22.6523 19.4634C22.9167 19.4736 23.3541 19.4482 23.3541 19.4482C23.3541 19.4482 24.1526 19.4329 23.6186 19.1023Z" fill="#E72410"/>
<path d="M4.6637 16.4576C3.84997 15.1201 3.41259 13.574 3.41259 11.9974C3.41259 9.85623 4.20089 7.8931 5.50286 6.3877H1.39352C0.503497 8.06093 0 9.9732 0 11.9974C0 13.7011 0.350922 15.3438 1.04768 16.8899C1.49523 17.4443 3.05658 18.5021 4.6637 16.4525V16.4576Z" fill="url(#paint2_linear_90_475)"/>
</g>
<path d="M153.306 17.076H158.85C160.182 17.076 161.172 16.86 161.694 16.41V3.79199H164.16V20.316H161.694V18.408C161.154 18.948 159.93 19.218 158.382 19.218H150.858V10.488H156.348V6.22199H150.858V4.07999H158.796V12.63H153.306V17.076Z" fill="#2E2E2E"/>
<path d="M137.351 9.62384H148.007V11.7838H134.885V3.88184H137.351V9.62384ZM134.057 13.7458H148.745V15.9058H142.607V20.5858H140.141V15.9058H134.057V13.7458Z" fill="#2E2E2E"/>
<path d="M122.044 9.40799V6.22199H118.21V4.07999H124.456V7.46399H126.094V3.88199H128.47V20.118H126.094V15.204H123.322C122.332 17.238 120.622 18.678 118.012 19.416V17.022C120.532 16.14 122.044 13.656 122.044 9.40799ZM124.456 9.60599C124.438 10.866 124.312 12.018 124.06 13.08H126.094V9.60599H124.456ZM129.442 20.316V3.79199H131.836V20.316H129.442Z" fill="#2E2E2E"/>
<path d="M104.918 9.31775H115.34V11.2437H110.03V12.1077H116.276V14.1057H101.408V12.1077H107.582V11.2437H102.452V3.98975H115.232V5.93375H104.918V6.68975H115.052V8.59775H104.918V9.31775ZM102.164 17.8317C102.164 16.7517 102.812 16.0317 103.892 15.5817C105.098 15.0597 106.862 14.8797 108.86 14.8797C110.858 14.8797 112.622 15.0597 113.828 15.5817C114.908 16.0317 115.556 16.7517 115.556 17.8317C115.556 18.9117 114.908 19.6137 113.828 20.0817C112.622 20.6037 110.858 20.7837 108.86 20.7837C106.862 20.7837 105.098 20.6037 103.892 20.0817C102.812 19.6137 102.164 18.9117 102.164 17.8317ZM104.63 17.8317C104.63 18.0837 104.81 18.2817 105.152 18.4077C105.836 18.6957 107.168 18.7677 108.86 18.7677C110.552 18.7677 111.884 18.6957 112.586 18.4077C112.91 18.2817 113.09 18.0837 113.09 17.8317C113.09 17.5797 112.91 17.3817 112.586 17.2557C111.884 16.9677 110.552 16.8957 108.86 16.8957C107.168 16.8957 105.836 16.9677 105.152 17.2557C104.81 17.3817 104.63 17.5797 104.63 17.8317Z" fill="#2E2E2E"/>
<path d="M84.3479 9.31775H94.7699V11.2437H89.4599V12.1077H95.7059V14.1057H80.8379V12.1077H87.0119V11.2437H81.8819V3.98975H94.6619V5.93375H84.3479V6.68975H94.4819V8.59775H84.3479V9.31775ZM81.5939 17.8317C81.5939 16.7517 82.2419 16.0317 83.3219 15.5817C84.5279 15.0597 86.2919 14.8797 88.2899 14.8797C90.2879 14.8797 92.0519 15.0597 93.2579 15.5817C94.3379 16.0317 94.9859 16.7517 94.9859 17.8317C94.9859 18.9117 94.3379 19.6137 93.2579 20.0817C92.0519 20.6037 90.2879 20.7837 88.2899 20.7837C86.2919 20.7837 84.5279 20.6037 83.3219 20.0817C82.2419 19.6137 81.5939 18.9117 81.5939 17.8317ZM84.0599 17.8317C84.0599 18.0837 84.2399 18.2817 84.5819 18.4077C85.2659 18.6957 86.5979 18.7677 88.2899 18.7677C89.9819 18.7677 91.3139 18.6957 92.0159 18.4077C92.3399 18.2817 92.5199 18.0837 92.5199 17.8317C92.5199 17.5797 92.3399 17.3817 92.0159 17.2557C91.3139 16.9677 89.9819 16.8957 88.2899 16.8957C86.5979 16.8957 85.2659 16.9677 84.5819 17.2557C84.2399 17.3817 84.0599 17.5797 84.0599 17.8317Z" fill="#2E2E2E"/>
<path d="M65.1346 8.16606C65.1346 6.61806 65.8546 5.39406 67.0246 4.72806C68.3746 3.99006 69.9586 3.81006 72.0106 3.81006C74.0806 3.81006 75.6466 3.99006 76.9966 4.72806C78.1666 5.39406 78.8866 6.61806 78.8866 8.16606C78.8866 9.69606 78.1666 10.9381 76.9966 11.5861C75.6466 12.3421 74.0806 12.5221 72.0106 12.5221C69.9586 12.5221 68.3746 12.3421 67.0246 11.5861C65.8546 10.9381 65.1346 9.69606 65.1346 8.16606ZM67.6006 8.16606C67.6006 8.85006 67.8706 9.46206 68.3926 9.78606C69.1126 10.2361 70.2646 10.3621 72.0106 10.3621C73.7566 10.3621 74.9266 10.2361 75.6286 9.78606C76.1506 9.46206 76.4206 8.85006 76.4206 8.16606C76.4206 7.46406 76.1506 6.87006 75.6286 6.54606C74.9266 6.07806 73.7566 5.97006 72.0106 5.97006C70.2646 5.97006 69.1126 6.07806 68.3926 6.54606C67.8706 6.87006 67.6006 7.46406 67.6006 8.16606ZM64.6486 14.0341H79.3366V16.1941H76.3126V20.4961H73.8826V16.1941H70.1566V20.4961H67.7446V16.1941H64.6486V14.0341Z" fill="#2E2E2E"/>
<path d="M53.9493 6.58199C53.9493 9.49799 55.2813 10.794 57.3873 11.424V13.602C55.4073 13.242 53.6793 12.288 52.7253 11.028C51.8253 12.342 50.0973 13.386 48.0273 13.782V11.604C50.2053 10.956 51.4833 9.37199 51.4833 6.58199V3.88199H53.9493V6.58199ZM61.7793 8.11199H64.0653V10.254H61.7793V15.384H59.3133V3.79199H61.7793V8.11199ZM51.9513 18.246H62.0673V20.388H49.4853V14.538H51.9513V18.246Z" fill="#2E2E2E"/>
<path d="M33.044 4.85382H38.174V3.21582H40.64V4.85382H45.824V6.90582H40.874C41.594 8.12982 43.844 8.93982 46.004 9.04782V11.0818C43.376 10.9918 40.874 10.0918 39.416 8.74182C37.958 10.1098 35.474 10.9738 32.828 11.0818V9.04782C35.006 8.93982 37.22 8.12982 37.94 6.90582H33.044V4.85382ZM32 11.8918H46.868V13.9978H40.64V15.4378H45.824V20.5858H43.358V17.5258H32.936V15.4378H38.21V13.9978H32V11.8918Z" fill="#2E2E2E"/>
<defs>
<linearGradient id="paint0_linear_90_475" x1="19.7635" y1="12.8621" x2="16.4425" y2="21.9861" gradientUnits="userSpaceOnUse">
<stop stop-color="#B5B5B6"/>
<stop offset="0.18" stop-color="#B2B2B3"/>
<stop offset="0.26" stop-color="#ABABAC"/>
<stop offset="0.32" stop-color="#9F9F9F"/>
<stop offset="0.37" stop-color="#8D8D8E"/>
<stop offset="0.41" stop-color="#767676"/>
<stop offset="0.43" stop-color="#666666"/>
<stop offset="0.57" stop-color="#666666"/>
<stop offset="0.58" stop-color="#6B6B6B"/>
<stop offset="0.64" stop-color="#868686"/>
<stop offset="0.71" stop-color="#9A9A9B"/>
<stop offset="0.78" stop-color="#A9A9AA"/>
<stop offset="0.87" stop-color="#B2B2B3"/>
<stop offset="1" stop-color="#B5B5B6"/>
</linearGradient>
<linearGradient id="paint1_linear_90_475" x1="10.4717" y1="8.18299" x2="3.01589" y2="19.1073" gradientUnits="userSpaceOnUse">
<stop stop-color="#123184"/>
<stop offset="0.13" stop-color="#0B3D90"/>
<stop offset="0.34" stop-color="#024C9E"/>
<stop offset="0.51" stop-color="#0052A4"/>
<stop offset="0.68" stop-color="#034A9D"/>
<stop offset="0.93" stop-color="#0E378A"/>
<stop offset="1" stop-color="#123184"/>
</linearGradient>
<linearGradient id="paint2_linear_90_475" x1="2.75143" y1="7.9287" x2="2.75143" y2="15.9338" gradientUnits="userSpaceOnUse">
<stop stop-color="#B5B5B6"/>
<stop offset="0.59" stop-color="#B5B5B6"/>
<stop offset="1" stop-color="#666666"/>
</linearGradient>
<clipPath id="clip0_90_475">
<rect width="24" height="24" fill="white"/>
</clipPath>
</defs>
</svg>
